<svg width="52" height="52" viewBox="0 0 52 52" fill="none" xmlns="http://www.w3.org/2000/svg">
<rect width="52" height="52" rx="5" fill="#749723"/>
<path d="M14.7511 34.75C13.1853 34.7497 11.6483 34.3292 10.3004 33.5324C8.95245 32.7356 7.84303 31.5917 7.08785 30.2201C6.33267 28.8484 5.9594 27.2992 6.00697 25.7342C6.05454 24.1691 6.52122 22.6454 7.35831 21.3222C8.19541 19.9989 9.37225 18.9245 10.7661 18.2111C12.1599 17.4976 13.7196 17.1713 15.2826 17.266C16.8455 17.3608 18.3544 17.8733 19.6518 18.7499C20.9492 19.6266 21.9876 20.8353 22.6586 22.25H41.0011L44.7511 26L41.0011 29.75L38.5011 27.25L36.0011 29.75L33.5011 27.25L31.0011 29.75L28.5011 27.25L26.0011 29.75H22.6586C21.9489 31.2463 20.829 32.5105 19.4292 33.3956C18.0295 34.2807 16.4072 34.7503 14.7511 34.75ZM12.2511 28.5C12.9142 28.5 13.5501 28.2366 14.0189 27.7678C14.4877 27.2989 14.7511 26.663 14.7511 26C14.7511 25.337 14.4877 24.7011 14.0189 24.2322C13.5501 23.7634 12.9142 23.5 12.2511 23.5C11.5881 23.5 10.9522 23.7634 10.4834 24.2322C10.0145 24.7011 9.75112 25.337 9.75112 26C9.75112 26.663 10.0145 27.2989 10.4834 27.7678C10.9522 28.2366 11.5881 28.5 12.2511 28.5Z" fill="black"/>
</svg>
