<svg width="400" height="62" viewBox="0 0 400 62" fill="none" xmlns="http://www.w3.org/2000/svg">
<g filter="url(#filter0_d_246_2302)">
<rect x="5" y="5" width="390" height="52" rx="5" fill="#749723"/>
</g>
<path d="M171.84 35.612V23.6H168.32V39H177.34V35.612H171.84ZM185.357 39.308C189.779 39.308 193.365 35.832 193.365 31.3C193.365 26.768 189.779 23.292 185.357 23.292C180.935 23.292 177.349 26.768 177.349 31.3C177.349 35.832 180.935 39.308 185.357 39.308ZM185.357 35.876C182.849 35.876 180.869 34.05 180.869 31.3C180.869 28.55 182.849 26.724 185.357 26.724C187.865 26.724 189.845 28.55 189.845 31.3C189.845 34.05 187.865 35.876 185.357 35.876ZM210.593 30.42H202.871V33.5H206.985C206.435 34.974 205.093 35.876 203.047 35.876C200.055 35.876 198.207 33.962 198.207 31.344C198.207 28.638 200.143 26.724 202.739 26.724C204.477 26.724 205.863 27.516 206.501 28.528L209.493 26.812C208.195 24.744 205.709 23.292 202.761 23.292C198.229 23.292 194.687 26.856 194.687 31.322C194.687 35.744 198.163 39.308 203.003 39.308C207.315 39.308 210.593 36.448 210.593 31.74V30.42ZM212.578 23.6V39H216.098V23.6H212.578ZM227.324 23.6V31.96L221.384 23.6H218.744V39H222.264V30.64L228.204 39H230.844V23.6H227.324Z" fill="white"/>
<defs>
<filter id="filter0_d_246_2302" x="0" y="0" width="400" height="62" filterUnits="userSpaceOnUse" color-interpolation-filters="sRGB">
<feFlood flood-opacity="0" result="BackgroundImageFix"/>
<feColorMatrix in="SourceAlpha" type="matrix" values="0 0 0 0 0 0 0 0 0 0 0 0 0 0 0 0 0 0 127 0" result="hardAlpha"/>
<feOffset/>
<feGaussianBlur stdDeviation="2.5"/>
<feComposite in2="hardAlpha" operator="out"/>
<feColorMatrix type="matrix" values="0 0 0 0 0 0 0 0 0 0 0 0 0 0 0 0 0 0 0.2 0"/>
<feBlend mode="normal" in2="BackgroundImageFix" result="effect1_dropShadow_246_2302"/>
<feBlend mode="normal" in="SourceGraphic" in2="effect1_dropShadow_246_2302" result="shape"/>
</filter>
</defs>
</svg>
