<svg width="402" height="64" viewBox="0 0 402 64" fill="none" xmlns="http://www.w3.org/2000/svg">
<g filter="url(#filter0_d_247_2303)">
<rect x="3" y="3" width="390" height="52" rx="5" fill="white"/>
<rect x="1.5" y="1.5" width="393" height="55" rx="6.5" stroke="#749723" stroke-width="3"/>
</g>
<path d="M91.84 33.612V21.6H88.32V37H97.34V33.612H91.84ZM105.357 37.308C109.779 37.308 113.365 33.832 113.365 29.3C113.365 24.768 109.779 21.292 105.357 21.292C100.935 21.292 97.3495 24.768 97.3495 29.3C97.3495 33.832 100.935 37.308 105.357 37.308ZM105.357 33.876C102.849 33.876 100.869 32.05 100.869 29.3C100.869 26.55 102.849 24.724 105.357 24.724C107.865 24.724 109.845 26.55 109.845 29.3C109.845 32.05 107.865 33.876 105.357 33.876ZM130.593 28.42H122.871V31.5H126.985C126.435 32.974 125.093 33.876 123.047 33.876C120.055 33.876 118.207 31.962 118.207 29.344C118.207 26.638 120.143 24.724 122.739 24.724C124.477 24.724 125.863 25.516 126.501 26.528L129.493 24.812C128.195 22.744 125.709 21.292 122.761 21.292C118.229 21.292 114.687 24.856 114.687 29.322C114.687 33.744 118.163 37.308 123.003 37.308C127.315 37.308 130.593 34.448 130.593 29.74V28.42ZM132.578 21.6V37H136.098V21.6H132.578ZM147.324 21.6V29.96L141.384 21.6H138.744V37H142.264V28.64L148.204 37H150.844V21.6H147.324ZM162.128 37H166.132L168.64 27.914L171.148 37H175.152L179.398 21.6H175.702L173.04 32.38L170.07 21.6H167.21L164.24 32.38L161.578 21.6H157.882L162.128 37ZM180.939 21.6V37H184.459V21.6H180.939ZM197.445 21.6H186.005V24.988H189.965V37H193.485V24.988H197.445V21.6ZM207.346 21.6V27.496H202.506V21.6H198.986V37H202.506V30.884H207.346V37H210.866V21.6H207.346ZM234.255 28.42H226.533V31.5H230.647C230.097 32.974 228.755 33.876 226.709 33.876C223.717 33.876 221.869 31.962 221.869 29.344C221.869 26.638 223.805 24.724 226.401 24.724C228.139 24.724 229.525 25.516 230.163 26.528L233.155 24.812C231.857 22.744 229.371 21.292 226.423 21.292C221.891 21.292 218.349 24.856 218.349 29.322C218.349 33.744 221.825 37.308 226.665 37.308C230.977 37.308 234.255 34.448 234.255 29.74V28.42ZM243.588 37.308C248.01 37.308 251.596 33.832 251.596 29.3C251.596 24.768 248.01 21.292 243.588 21.292C239.166 21.292 235.58 24.768 235.58 29.3C235.58 33.832 239.166 37.308 243.588 37.308ZM243.588 33.876C241.08 33.876 239.1 32.05 239.1 29.3C239.1 26.55 241.08 24.724 243.588 24.724C246.096 24.724 248.076 26.55 248.076 29.3C248.076 32.05 246.096 33.876 243.588 33.876ZM260.926 37.308C265.348 37.308 268.934 33.832 268.934 29.3C268.934 24.768 265.348 21.292 260.926 21.292C256.504 21.292 252.918 24.768 252.918 29.3C252.918 33.832 256.504 37.308 260.926 37.308ZM260.926 33.876C258.418 33.876 256.438 32.05 256.438 29.3C256.438 26.55 258.418 24.724 260.926 24.724C263.434 24.724 265.414 26.55 265.414 29.3C265.414 32.05 263.434 33.876 260.926 33.876ZM286.162 28.42H278.44V31.5H282.554C282.004 32.974 280.662 33.876 278.616 33.876C275.624 33.876 273.776 31.962 273.776 29.344C273.776 26.638 275.712 24.724 278.308 24.724C280.046 24.724 281.432 25.516 282.07 26.528L285.062 24.812C283.764 22.744 281.278 21.292 278.33 21.292C273.798 21.292 270.256 24.856 270.256 29.322C270.256 33.744 273.732 37.308 278.572 37.308C282.884 37.308 286.162 34.448 286.162 29.74V28.42ZM291.666 33.612V21.6H288.146V37H297.166V33.612H291.666ZM302.236 33.612V30.884H307.736V27.54H302.236V24.988H308.286V21.6H298.716V37H308.396V33.612H302.236Z" fill="#749723"/>
<defs>
<filter id="filter0_d_247_2303" x="0" y="0" width="402" height="64" filterUnits="userSpaceOnUse" color-interpolation-filters="sRGB">
<feFlood flood-opacity="0" result="BackgroundImageFix"/>
<feColorMatrix in="SourceAlpha" type="matrix" values="0 0 0 0 0 0 0 0 0 0 0 0 0 0 0 0 0 0 127 0" result="hardAlpha"/>
<feOffset dx="4" dy="4"/>
<feGaussianBlur stdDeviation="1"/>
<feComposite in2="hardAlpha" operator="out"/>
<feColorMatrix type="matrix" values="0 0 0 0 0 0 0 0 0 0 0 0 0 0 0 0 0 0 0.2 0"/>
<feBlend mode="normal" in2="BackgroundImageFix" result="effect1_dropShadow_247_2303"/>
<feBlend mode="normal" in="SourceGraphic" in2="effect1_dropShadow_247_2303" result="shape"/>
</filter>
</defs>
</svg>
