<svg width="400" height="62" viewBox="0 0 400 62" fill="none" xmlns="http://www.w3.org/2000/svg">
<g filter="url(#filter0_d_247_2303)">
<rect x="5" y="5" width="390" height="52" rx="5" fill="white"/>
<rect x="6.5" y="6.5" width="387" height="49" rx="3.5" stroke="#749723" stroke-width="3"/>
</g>
<path d="M93.84 35.612V23.6H90.32V39H99.34V35.612H93.84ZM107.357 39.308C111.779 39.308 115.365 35.832 115.365 31.3C115.365 26.768 111.779 23.292 107.357 23.292C102.935 23.292 99.3495 26.768 99.3495 31.3C99.3495 35.832 102.935 39.308 107.357 39.308ZM107.357 35.876C104.849 35.876 102.869 34.05 102.869 31.3C102.869 28.55 104.849 26.724 107.357 26.724C109.865 26.724 111.845 28.55 111.845 31.3C111.845 34.05 109.865 35.876 107.357 35.876ZM132.593 30.42H124.871V33.5H128.985C128.435 34.974 127.093 35.876 125.047 35.876C122.055 35.876 120.207 33.962 120.207 31.344C120.207 28.638 122.143 26.724 124.739 26.724C126.477 26.724 127.863 27.516 128.501 28.528L131.493 26.812C130.195 24.744 127.709 23.292 124.761 23.292C120.229 23.292 116.687 26.856 116.687 31.322C116.687 35.744 120.163 39.308 125.003 39.308C129.315 39.308 132.593 36.448 132.593 31.74V30.42ZM134.578 23.6V39H138.098V23.6H134.578ZM149.324 23.6V31.96L143.384 23.6H140.744V39H144.264V30.64L150.204 39H152.844V23.6H149.324ZM164.128 39H168.132L170.64 29.914L173.148 39H177.152L181.398 23.6H177.702L175.04 34.38L172.07 23.6H169.21L166.24 34.38L163.578 23.6H159.882L164.128 39ZM182.939 23.6V39H186.459V23.6H182.939ZM199.445 23.6H188.005V26.988H191.965V39H195.485V26.988H199.445V23.6ZM209.346 23.6V29.496H204.506V23.6H200.986V39H204.506V32.884H209.346V39H212.866V23.6H209.346ZM236.255 30.42H228.533V33.5H232.647C232.097 34.974 230.755 35.876 228.709 35.876C225.717 35.876 223.869 33.962 223.869 31.344C223.869 28.638 225.805 26.724 228.401 26.724C230.139 26.724 231.525 27.516 232.163 28.528L235.155 26.812C233.857 24.744 231.371 23.292 228.423 23.292C223.891 23.292 220.349 26.856 220.349 31.322C220.349 35.744 223.825 39.308 228.665 39.308C232.977 39.308 236.255 36.448 236.255 31.74V30.42ZM245.588 39.308C250.01 39.308 253.596 35.832 253.596 31.3C253.596 26.768 250.01 23.292 245.588 23.292C241.166 23.292 237.58 26.768 237.58 31.3C237.58 35.832 241.166 39.308 245.588 39.308ZM245.588 35.876C243.08 35.876 241.1 34.05 241.1 31.3C241.1 28.55 243.08 26.724 245.588 26.724C248.096 26.724 250.076 28.55 250.076 31.3C250.076 34.05 248.096 35.876 245.588 35.876ZM262.926 39.308C267.348 39.308 270.934 35.832 270.934 31.3C270.934 26.768 267.348 23.292 262.926 23.292C258.504 23.292 254.918 26.768 254.918 31.3C254.918 35.832 258.504 39.308 262.926 39.308ZM262.926 35.876C260.418 35.876 258.438 34.05 258.438 31.3C258.438 28.55 260.418 26.724 262.926 26.724C265.434 26.724 267.414 28.55 267.414 31.3C267.414 34.05 265.434 35.876 262.926 35.876ZM288.162 30.42H280.44V33.5H284.554C284.004 34.974 282.662 35.876 280.616 35.876C277.624 35.876 275.776 33.962 275.776 31.344C275.776 28.638 277.712 26.724 280.308 26.724C282.046 26.724 283.432 27.516 284.07 28.528L287.062 26.812C285.764 24.744 283.278 23.292 280.33 23.292C275.798 23.292 272.256 26.856 272.256 31.322C272.256 35.744 275.732 39.308 280.572 39.308C284.884 39.308 288.162 36.448 288.162 31.74V30.42ZM293.666 35.612V23.6H290.146V39H299.166V35.612H293.666ZM304.236 35.612V32.884H309.736V29.54H304.236V26.988H310.286V23.6H300.716V39H310.396V35.612H304.236Z" fill="#749723"/>
<defs>
<filter id="filter0_d_247_2303" x="0" y="0" width="400" height="62" filterUnits="userSpaceOnUse" color-interpolation-filters="sRGB">
<feFlood flood-opacity="0" result="BackgroundImageFix"/>
<feColorMatrix in="SourceAlpha" type="matrix" values="0 0 0 0 0 0 0 0 0 0 0 0 0 0 0 0 0 0 127 0" result="hardAlpha"/>
<feOffset/>
<feGaussianBlur stdDeviation="2.5"/>
<feComposite in2="hardAlpha" operator="out"/>
<feColorMatrix type="matrix" values="0 0 0 0 0 0 0 0 0 0 0 0 0 0 0 0 0 0 0.2 0"/>
<feBlend mode="normal" in2="BackgroundImageFix" result="effect1_dropShadow_247_2303"/>
<feBlend mode="normal" in="SourceGraphic" in2="effect1_dropShadow_247_2303" result="shape"/>
</filter>
</defs>
</svg>
