<svg width="52" height="52" viewBox="0 0 52 52" fill="none" xmlns="http://www.w3.org/2000/svg">
<rect width="52" height="52" rx="5" fill="#749723"/>
<path d="M13.5 41C13.5 41 11 41 11 38.5C11 36 13.5 28.5 26 28.5C38.5 28.5 41 36 41 38.5C41 41 38.5 41 38.5 41H13.5ZM26 26C27.9891 26 29.8968 25.2098 31.3033 23.8033C32.7098 22.3968 33.5 20.4891 33.5 18.5C33.5 16.5109 32.7098 14.6032 31.3033 13.1967C29.8968 11.7902 27.9891 11 26 11C24.0109 11 22.1032 11.7902 20.6967 13.1967C19.2902 14.6032 18.5 16.5109 18.5 18.5C18.5 20.4891 19.2902 22.3968 20.6967 23.8033C22.1032 25.2098 24.0109 26 26 26Z" fill="black"/>
</svg>
