<svg width="190" height="31" viewBox="0 0 190 31" fill="none" xmlns="http://www.w3.org/2000/svg">
<path d="M8.44 30H11L18.88 4.76L26.72 30H29.28L37.4 2H35.16L27.96 27.16L20.12 2H17.6L9.8 27.16L2.56 2H0.32L8.44 30ZM48.4238 9.56C42.3038 9.56 38.0638 14.12 38.0638 20C38.0638 26.04 42.4238 30.44 48.5838 30.44C52.5438 30.44 55.6638 28.64 57.3038 25.92L55.5438 24.88C54.3838 27 51.9038 28.52 48.6238 28.52C44.0638 28.52 40.6238 25.56 40.1438 21.04H58.2638C58.2638 20.72 58.3038 20.4 58.3038 20.08C58.3038 14.6 54.5038 9.56 48.4238 9.56ZM48.4238 11.48C52.3438 11.48 55.7838 14.2 56.2238 19.08H40.1438C40.5438 14.64 43.8638 11.48 48.4238 11.48ZM62.9784 30H64.9784V0.799999H62.9784V30ZM80.3025 30.44C84.2225 30.44 87.5825 28.44 89.1825 25.36L87.5025 24.36C86.1825 26.84 83.5425 28.52 80.3025 28.52C75.4625 28.52 71.8225 24.76 71.8225 20C71.8225 15.24 75.4625 11.48 80.3025 11.48C83.5025 11.48 86.2225 13.12 87.3825 15.64L89.0225 14.68C87.5825 11.56 84.2225 9.56 80.3025 9.56C74.2625 9.56 69.7825 14.08 69.7825 20C69.7825 25.92 74.2625 30.44 80.3025 30.44ZM102.529 30.44C108.329 30.44 113.009 25.92 113.009 20C113.009 14.08 108.329 9.56 102.529 9.56C96.6891 9.56 92.0091 14.08 92.0091 20C92.0091 25.92 96.6891 30.44 102.529 30.44ZM102.529 28.52C97.7691 28.52 94.0491 24.76 94.0491 20C94.0491 15.24 97.7691 11.48 102.529 11.48C107.289 11.48 110.969 15.24 110.969 20C110.969 24.76 107.289 28.52 102.529 28.52ZM139.182 9.56C136.502 9.56 133.942 10.84 132.502 13.64C131.462 11 129.182 9.56 126.262 9.56C123.702 9.56 121.302 10.68 119.822 13.44V10H117.822V30H119.822V18.84C119.822 13.72 122.742 11.48 126.022 11.48C129.102 11.48 131.142 13.52 131.142 17.32V30H133.142V18.84C133.142 13.72 135.782 11.48 139.142 11.48C142.262 11.48 144.462 13.52 144.462 17.32V30H146.462V17.32C146.462 12.32 143.422 9.56 139.182 9.56ZM161.119 9.56C154.999 9.56 150.759 14.12 150.759 20C150.759 26.04 155.119 30.44 161.279 30.44C165.239 30.44 168.359 28.64 169.999 25.92L168.239 24.88C167.079 27 164.599 28.52 161.319 28.52C156.759 28.52 153.319 25.56 152.839 21.04H170.959C170.959 20.72 170.999 20.4 170.999 20.08C170.999 14.6 167.199 9.56 161.119 9.56ZM161.119 11.48C165.039 11.48 168.479 14.2 168.919 19.08H152.839C153.239 14.64 156.559 11.48 161.119 11.48ZM186.858 22.8H188.458L188.858 10V2H186.458V10L186.858 22.8ZM187.658 30.4C188.658 30.4 189.458 29.6 189.458 28.6C189.458 27.6 188.658 26.8 187.658 26.8C186.658 26.8 185.858 27.6 185.858 28.6C185.858 29.6 186.658 30.4 187.658 30.4Z" fill="black"/>
</svg>
