<svg width="60" height="60" viewBox="0 0 60 60" fill="none" xmlns="http://www.w3.org/2000/svg">
<path d="M45 7.5H15C13.0109 7.5 11.1032 8.29018 9.6967 9.6967C8.29018 11.1032 7.5 13.0109 7.5 15V45C7.5 46.9891 8.29018 48.8968 9.6967 50.3033C11.1032 51.7098 13.0109 52.5 15 52.5H45C46.9891 52.5 48.8968 51.7098 50.3033 50.3033C51.7098 48.8968 52.5 46.9891 52.5 45V15C52.5 13.0109 51.7098 11.1032 50.3033 9.6967C48.8968 8.29018 46.9891 7.5 45 7.5ZM36.775 33.225C37.0093 33.4574 37.1953 33.7339 37.3222 34.0386C37.4491 34.3432 37.5145 34.67 37.5145 35C37.5145 35.33 37.4491 35.6568 37.3222 35.9614C37.1953 36.2661 37.0093 36.5426 36.775 36.775C36.5426 37.0093 36.2661 37.1953 35.9614 37.3222C35.6568 37.4491 35.33 37.5145 35 37.5145C34.67 37.5145 34.3432 37.4491 34.0386 37.3222C33.7339 37.1953 33.4574 37.0093 33.225 36.775L30 33.525L26.775 36.775C26.5426 37.0093 26.2661 37.1953 25.9614 37.3222C25.6568 37.4491 25.33 37.5145 25 37.5145C24.67 37.5145 24.3432 37.4491 24.0386 37.3222C23.7339 37.1953 23.4574 37.0093 23.225 36.775C22.9907 36.5426 22.8047 36.2661 22.6778 35.9614C22.5509 35.6568 22.4855 35.33 22.4855 35C22.4855 34.67 22.5509 34.3432 22.6778 34.0386C22.8047 33.7339 22.9907 33.4574 23.225 33.225L26.475 30L23.225 26.775C22.7542 26.3042 22.4898 25.6658 22.4898 25C22.4898 24.3342 22.7542 23.6958 23.225 23.225C23.6958 22.7542 24.3342 22.4898 25 22.4898C25.6658 22.4898 26.3042 22.7542 26.775 23.225L30 26.475L33.225 23.225C33.6958 22.7542 34.3342 22.4898 35 22.4898C35.6658 22.4898 36.3042 22.7542 36.775 23.225C37.2458 23.6958 37.5102 24.3342 37.5102 25C37.5102 25.6658 37.2458 26.3042 36.775 26.775L33.525 30L36.775 33.225Z" fill="black"/>
</svg>
