<svg width="293" height="35" viewBox="0 0 293 35" fill="none" xmlns="http://www.w3.org/2000/svg">
<path d="M8.7 1.8H0.132V27H2.04V17.388H8.7C13.236 17.388 16.548 14.04 16.548 9.612C16.548 5.148 13.236 1.8 8.7 1.8ZM8.7 15.588H2.04V3.6H8.7C12.156 3.6 14.64 6.12 14.64 9.612C14.64 13.068 12.156 15.588 8.7 15.588ZM33.8609 9V18.504C33.8609 23.364 31.0889 25.668 27.5609 25.668C24.1769 25.668 22.2689 23.508 22.2689 20.196V9H20.4329V20.196C20.4329 24.552 23.1329 27.396 27.4169 27.396C30.1889 27.396 32.4929 26.244 33.8609 23.58V27H35.6609V9H33.8609ZM50.7612 8.604C47.2692 8.604 44.4972 10.404 43.0212 13.176V1.8H41.2212V27H43.0212V22.824C44.4972 25.596 47.2692 27.396 50.7612 27.396C55.9092 27.396 60.0852 23.328 60.0852 18C60.0852 12.672 55.9092 8.604 50.7612 8.604ZM50.6532 25.668C46.3692 25.668 43.0212 22.284 43.0212 18C43.0212 13.716 46.3692 10.332 50.6532 10.332C54.9372 10.332 58.2852 13.716 58.2852 18C58.2852 22.284 54.9372 25.668 50.6532 25.668ZM64.4243 27H66.2243V0.719999H64.4243V27ZM72.672 4.644C73.464 4.644 74.112 3.996 74.112 3.204C74.112 2.448 73.464 1.8 72.672 1.8C71.88 1.8 71.232 2.448 71.232 3.204C71.232 3.996 71.88 4.644 72.672 4.644ZM71.772 27H73.572V9H71.772V27ZM80.3437 13.716C80.3437 11.556 82.3237 10.332 84.6637 10.332C86.6437 10.332 88.5157 11.196 89.2717 13.068L90.7837 12.204C89.8117 10.008 87.5797 8.604 84.6637 8.604C80.9917 8.604 78.5437 10.872 78.5437 13.716C78.5437 20.196 89.4517 17.388 89.4517 22.284C89.4517 24.552 87.3277 25.668 84.8077 25.668C82.1077 25.668 80.1637 24.444 79.5157 22.5L77.9677 23.4C78.8317 25.704 81.2077 27.396 84.8077 27.396C88.6597 27.396 91.2517 25.236 91.2517 22.284C91.2517 15.696 80.3437 18.54 80.3437 13.716ZM103.676 8.604C100.904 8.604 98.6002 9.756 97.2322 12.42V1.8H95.4322V27H97.2322V17.496C97.2322 12.636 100.004 10.332 103.532 10.332C106.916 10.332 108.824 12.492 108.824 15.804V27H110.66V15.804C110.66 11.448 107.96 8.604 103.676 8.604ZM138.526 9L132.262 25.02L124.99 9H123.046L131.326 27.324L130.93 28.296C129.814 30.924 127.978 32.724 125.566 32.508V34.2C128.662 34.452 131.326 32.112 132.694 28.656L140.47 9H138.526ZM151.243 27.396C156.463 27.396 160.675 23.328 160.675 18C160.675 12.672 156.463 8.604 151.243 8.604C145.987 8.604 141.775 12.672 141.775 18C141.775 23.328 145.987 27.396 151.243 27.396ZM151.243 25.668C146.959 25.668 143.611 22.284 143.611 18C143.611 13.716 146.959 10.332 151.243 10.332C155.527 10.332 158.839 13.716 158.839 18C158.839 22.284 155.527 25.668 151.243 25.668ZM177.966 9V18.504C177.966 23.364 175.194 25.668 171.666 25.668C168.282 25.668 166.374 23.508 166.374 20.196V9H164.538V20.196C164.538 24.552 167.238 27.396 171.522 27.396C174.294 27.396 176.598 26.244 177.966 23.58V27H179.766V9H177.966ZM187.127 12.528V9H185.327V27H187.127V16.992C187.127 12.384 190.043 10.476 193.139 10.476V8.748C190.691 8.748 188.351 9.684 187.127 12.528ZM215.925 8.604C212.433 8.604 209.661 10.404 208.185 13.176V9H206.385V34.2H208.185V22.824C209.661 25.596 212.433 27.396 215.925 27.396C221.073 27.396 225.249 23.328 225.249 18C225.249 12.672 221.073 8.604 215.925 8.604ZM215.817 25.668C211.533 25.668 208.185 22.284 208.185 18C208.185 13.716 211.533 10.332 215.817 10.332C220.101 10.332 223.449 13.716 223.449 18C223.449 22.284 220.101 25.668 215.817 25.668ZM237.832 27.396C243.052 27.396 247.264 23.328 247.264 18C247.264 12.672 243.052 8.604 237.832 8.604C232.576 8.604 228.364 12.672 228.364 18C228.364 23.328 232.576 27.396 237.832 27.396ZM237.832 25.668C233.548 25.668 230.2 22.284 230.2 18C230.2 13.716 233.548 10.332 237.832 10.332C242.116 10.332 245.428 13.716 245.428 18C245.428 22.284 242.116 25.668 237.832 25.668ZM252.469 13.716C252.469 11.556 254.449 10.332 256.789 10.332C258.769 10.332 260.641 11.196 261.397 13.068L262.909 12.204C261.937 10.008 259.705 8.604 256.789 8.604C253.117 8.604 250.669 10.872 250.669 13.716C250.669 20.196 261.577 17.388 261.577 22.284C261.577 24.552 259.453 25.668 256.933 25.668C254.233 25.668 252.289 24.444 251.641 22.5L250.093 23.4C250.957 25.704 253.333 27.396 256.933 27.396C260.785 27.396 263.377 25.236 263.377 22.284C263.377 15.696 252.469 18.54 252.469 13.716ZM276.246 10.764V9H270.882V3.96L269.046 4.5V9H265.086V10.764H269.046V22.464C269.046 26.568 271.53 27.72 276.246 27V25.38C272.574 25.704 270.882 25.632 270.882 22.464V10.764H276.246ZM290.631 20.52H292.071L292.431 9V1.8H290.271V9L290.631 20.52ZM291.351 27.36C292.251 27.36 292.971 26.64 292.971 25.74C292.971 24.84 292.251 24.12 291.351 24.12C290.451 24.12 289.731 24.84 289.731 25.74C289.731 26.64 290.451 27.36 291.351 27.36Z" fill="black"/>
</svg>
