<svg width="138" height="53" viewBox="0 0 138 53" fill="none" xmlns="http://www.w3.org/2000/svg">
<g filter="url(#filter0_d_303_2230)">
<rect x="4" y="4" width="130" height="45" rx="5" fill="#749723"/>
</g>
<path d="M36.5 19H31.2V33H34.4V28.6H36.5C39.26 28.6 41.4 26.46 41.4 23.8C41.4 21.14 39.26 19 36.5 19ZM36.5 25.6H34.4V22H36.5C37.48 22 38.2 22.78 38.2 23.8C38.2 24.82 37.48 25.6 36.5 25.6ZM48.2969 33.28C51.3769 33.28 53.6969 31.48 53.6969 28.48V19H50.4969V28.2C50.4969 29.26 49.9969 30.16 48.2969 30.16C46.5969 30.16 46.0969 29.26 46.0969 28.2V19H42.8969V28.48C42.8969 31.48 45.2169 33.28 48.2969 33.28ZM64.6847 25.74C65.4447 25.08 65.9047 24.16 65.9047 23C65.9047 20.58 63.9247 19 61.4847 19H56.0047V33H61.8847C64.3847 33 66.4047 31.38 66.4047 28.9C66.4047 27.48 65.7247 26.4 64.6847 25.74ZM61.4847 22C62.2247 22 62.7047 22.52 62.7047 23.24C62.7047 23.96 62.2047 24.48 61.4847 24.48H59.2047V22H61.4847ZM61.8847 30H59.2047V27.32H61.8847C62.6847 27.32 63.2047 27.88 63.2047 28.66C63.2047 29.44 62.6847 30 61.8847 30ZM71.1969 29.92V19H67.9969V33H76.1969V29.92H71.1969ZM77.6063 19V33H80.8063V19H77.6063ZM87.9164 33.28C90.9564 33.28 93.1164 31.68 93.1164 28.98C93.1164 26.02 90.7364 25.28 88.6164 24.64C86.4364 23.98 86.0964 23.54 86.0964 22.9C86.0964 22.34 86.5964 21.84 87.5964 21.84C88.8764 21.84 89.5364 22.46 90.0164 23.46L92.7164 21.88C91.6964 19.82 89.8964 18.72 87.5964 18.72C85.1764 18.72 82.8964 20.28 82.8964 22.98C82.8964 25.66 84.9364 26.66 87.0164 27.24C89.1164 27.82 89.9164 28.16 89.9164 29.02C89.9164 29.56 89.5364 30.16 88.0164 30.16C86.4364 30.16 85.5764 29.38 85.0764 28.22L82.3164 29.82C83.0964 31.88 84.9764 33.28 87.9164 33.28ZM102.218 19V24.36H97.818V19H94.618V33H97.818V27.44H102.218V33H105.418V19H102.218Z" fill="white"/>
<defs>
<filter id="filter0_d_303_2230" x="0" y="0" width="138" height="53" filterUnits="userSpaceOnUse" color-interpolation-filters="sRGB">
<feFlood flood-opacity="0" result="BackgroundImageFix"/>
<feColorMatrix in="SourceAlpha" type="matrix" values="0 0 0 0 0 0 0 0 0 0 0 0 0 0 0 0 0 0 127 0" result="hardAlpha"/>
<feOffset/>
<feGaussianBlur stdDeviation="2"/>
<feComposite in2="hardAlpha" operator="out"/>
<feColorMatrix type="matrix" values="0 0 0 0 0 0 0 0 0 0 0 0 0 0 0 0 0 0 0.2 0"/>
<feBlend mode="normal" in2="BackgroundImageFix" result="effect1_dropShadow_303_2230"/>
<feBlend mode="normal" in="SourceGraphic" in2="effect1_dropShadow_303_2230" result="shape"/>
</filter>
</defs>
</svg>
