<svg width="308" height="28" viewBox="0 0 308 28" fill="none" xmlns="http://www.w3.org/2000/svg">
<path d="M9.836 27.396C14.84 27.396 18.116 24.66 18.116 20.484C18.116 16.128 14.228 14.724 9.764 13.248C6.164 12.06 3.608 11.124 3.608 8.1C3.608 5.292 5.804 3.24 9.296 3.24C12.896 3.24 14.84 5.328 15.776 7.596L17.396 6.696C16.172 3.78 13.436 1.404 9.296 1.404C5.012 1.404 1.664 4.032 1.664 8.172C1.664 12.564 5.444 13.752 9.656 15.12C13.508 16.344 16.172 17.496 16.172 20.52C16.172 23.4 14.048 25.56 9.836 25.56C5.696 25.56 3.14 23.508 2.276 20.484L0.62 21.456C1.772 25.02 5.12 27.396 9.836 27.396ZM31.0361 8.604C25.5281 8.604 21.7121 12.708 21.7121 18C21.7121 23.436 25.6361 27.396 31.1801 27.396C34.7441 27.396 37.5521 25.776 39.0281 23.328L37.4441 22.392C36.4001 24.3 34.1681 25.668 31.2161 25.668C27.1121 25.668 24.0161 23.004 23.5841 18.936H39.8921C39.8921 18.648 39.9281 18.36 39.9281 18.072C39.9281 13.14 36.5081 8.604 31.0361 8.604ZM31.0361 10.332C34.5641 10.332 37.6601 12.78 38.0561 17.172H23.5841C23.9441 13.176 26.9321 10.332 31.0361 10.332ZM44.1353 27H45.9353V0.719999H44.1353V27ZM51.4829 27H53.2829V0.719999H51.4829V27ZM66.9306 8.604C61.4226 8.604 57.6066 12.708 57.6066 18C57.6066 23.436 61.5306 27.396 67.0746 27.396C70.6386 27.396 73.4466 25.776 74.9226 23.328L73.3386 22.392C72.2946 24.3 70.0626 25.668 67.1106 25.668C63.0066 25.668 59.9106 23.004 59.4786 18.936H75.7866C75.7866 18.648 75.8226 18.36 75.8226 18.072C75.8226 13.14 72.4026 8.604 66.9306 8.604ZM66.9306 10.332C70.4586 10.332 73.5546 12.78 73.9506 17.172H59.4786C59.8386 13.176 62.8266 10.332 66.9306 10.332ZM81.8298 12.528V9H80.0298V27H81.8298V16.992C81.8298 12.384 84.7458 10.476 87.8418 10.476V8.748C85.3938 8.748 83.0538 9.684 81.8298 12.528ZM95.8867 1.8H93.6547L92.2867 9.288H93.9427L95.8867 1.8ZM99.1835 13.716C99.1835 11.556 101.164 10.332 103.504 10.332C105.484 10.332 107.356 11.196 108.112 13.068L109.624 12.204C108.652 10.008 106.42 8.604 103.504 8.604C99.8315 8.604 97.3835 10.872 97.3835 13.716C97.3835 20.196 108.292 17.388 108.292 22.284C108.292 24.552 106.168 25.668 103.648 25.668C100.948 25.668 99.0035 24.444 98.3555 22.5L96.8075 23.4C97.6715 25.704 100.048 27.396 103.648 27.396C107.5 27.396 110.092 25.236 110.092 22.284C110.092 15.696 99.1835 18.54 99.1835 13.716ZM124.945 4.644C125.737 4.644 126.385 3.996 126.385 3.204C126.385 2.448 125.737 1.8 124.945 1.8C124.153 1.8 123.505 2.448 123.505 3.204C123.505 3.996 124.153 4.644 124.945 4.644ZM124.045 27H125.845V9H124.045V27ZM139.637 8.604C136.865 8.604 134.561 9.756 133.193 12.42V9H131.393V27H133.193V17.496C133.193 12.636 135.965 10.332 139.493 10.332C142.877 10.332 144.785 12.492 144.785 15.804V27H146.621V15.804C146.621 11.448 143.921 8.604 139.637 8.604ZM160.209 3.132V1.404C155.493 1.044 153.009 3.6 153.009 8.028V9H149.913V10.764H153.009V27H154.845V10.764H160.209V9H154.845V8.028C154.845 4.536 156.537 2.844 160.209 3.132ZM170.047 27.396C175.267 27.396 179.479 23.328 179.479 18C179.479 12.672 175.267 8.604 170.047 8.604C164.791 8.604 160.579 12.672 160.579 18C160.579 23.328 164.791 27.396 170.047 27.396ZM170.047 25.668C165.763 25.668 162.415 22.284 162.415 18C162.415 13.716 165.763 10.332 170.047 10.332C174.331 10.332 177.643 13.716 177.643 18C177.643 22.284 174.331 25.668 170.047 25.668ZM185.611 12.528V9H183.811V27H185.611V16.992C185.611 12.384 188.527 10.476 191.623 10.476V8.748C189.175 8.748 186.835 9.684 185.611 12.528ZM214.496 8.604C212.084 8.604 209.78 9.756 208.484 12.276C207.548 9.9 205.496 8.604 202.868 8.604C200.564 8.604 198.404 9.612 197.072 12.096V9H195.272V27H197.072V16.956C197.072 12.348 199.7 10.332 202.652 10.332C205.424 10.332 207.26 12.168 207.26 15.588V27H209.06V16.956C209.06 12.348 211.436 10.332 214.46 10.332C217.268 10.332 219.248 12.168 219.248 15.588V27H221.048V15.588C221.048 11.088 218.312 8.604 214.496 8.604ZM241.979 9V13.068C240.467 10.368 237.695 8.604 234.239 8.604C229.127 8.604 224.915 12.672 224.915 18C224.915 23.328 229.127 27.396 234.239 27.396C237.695 27.396 240.467 25.632 241.979 22.932V27H243.815V9H241.979ZM234.383 25.668C230.099 25.668 226.751 22.284 226.751 18C226.751 13.716 230.099 10.332 234.383 10.332C238.667 10.332 241.979 13.716 241.979 18C241.979 22.284 238.667 25.668 234.383 25.668ZM258.558 10.764V9H253.194V3.96L251.358 4.5V9H247.398V10.764H251.358V22.464C251.358 26.568 253.842 27.72 258.558 27V25.38C254.886 25.704 253.194 25.632 253.194 22.464V10.764H258.558ZM263.777 4.644C264.569 4.644 265.217 3.996 265.217 3.204C265.217 2.448 264.569 1.8 263.777 1.8C262.985 1.8 262.337 2.448 262.337 3.204C262.337 3.996 262.985 4.644 263.777 4.644ZM262.877 27H264.677V9H262.877V27ZM278.469 27.396C283.689 27.396 287.901 23.328 287.901 18C287.901 12.672 283.689 8.604 278.469 8.604C273.213 8.604 269.001 12.672 269.001 18C269.001 23.328 273.213 27.396 278.469 27.396ZM278.469 25.668C274.185 25.668 270.837 22.284 270.837 18C270.837 13.716 274.185 10.332 278.469 10.332C282.753 10.332 286.065 13.716 286.065 18C286.065 22.284 282.753 25.668 278.469 25.668ZM300.477 8.604C297.705 8.604 295.401 9.756 294.033 12.42V9H292.233V27H294.033V17.496C294.033 12.636 296.805 10.332 300.333 10.332C303.717 10.332 305.625 12.492 305.625 15.804V27H307.461V15.804C307.461 11.448 304.761 8.604 300.477 8.604Z" fill="black"/>
</svg>
