<svg width="1432" height="472" viewBox="0 0 1432 472" fill="none" xmlns="http://www.w3.org/2000/svg">
<rect width="1432" height="356" fill="#9BBF7F"/>
<path d="M592.791 70.336C596.247 70.336 598.839 68.296 598.839 64.6V53.2H594.999V64.6C594.999 65.632 594.495 66.592 592.815 66.592C591.519 66.592 590.967 66.088 590.439 65.152L587.103 67.072C588.207 69.208 590.127 70.336 592.791 70.336ZM609.62 70.336C614.444 70.336 618.356 66.544 618.356 61.6C618.356 56.656 614.444 52.864 609.62 52.864C604.796 52.864 600.884 56.656 600.884 61.6C600.884 66.544 604.796 70.336 609.62 70.336ZM609.62 66.592C606.884 66.592 604.724 64.6 604.724 61.6C604.724 58.6 606.884 56.608 609.62 56.608C612.356 56.608 614.516 58.6 614.516 61.6C614.516 64.6 612.356 66.592 609.62 66.592ZM620.518 53.2V70H624.358V53.2H620.518ZM636.605 53.2V62.32L630.125 53.2H627.245V70H631.085V60.88L637.565 70H640.445V53.2H636.605ZM657.339 70.336C662.163 70.336 666.075 66.544 666.075 61.6C666.075 56.656 662.163 52.864 657.339 52.864C652.515 52.864 648.603 56.656 648.603 61.6C648.603 66.544 652.515 70.336 657.339 70.336ZM657.339 66.592C654.603 66.592 652.443 64.6 652.443 61.6C652.443 58.6 654.603 56.608 657.339 56.608C660.075 56.608 662.235 58.6 662.235 61.6C662.235 64.6 660.075 66.592 657.339 66.592ZM674.48 70.336C678.176 70.336 680.96 68.176 680.96 64.576V53.2H677.12V64.24C677.12 65.512 676.52 66.592 674.48 66.592C672.44 66.592 671.84 65.512 671.84 64.24V53.2H668V64.576C668 68.176 670.784 70.336 674.48 70.336ZM692.561 70H696.689L693.113 63.832C694.961 62.896 696.209 61.024 696.209 58.96C696.209 55.768 693.641 53.2 690.449 53.2H683.729V70H687.569V64.48H689.393L692.561 70ZM687.569 56.8H690.449C691.505 56.8 692.369 57.736 692.369 58.96C692.369 60.184 691.505 61.12 690.449 61.12H687.569V56.8ZM712.511 70.336C715.583 70.336 718.271 68.824 719.711 66.448L716.399 64.528C715.679 65.824 714.215 66.592 712.511 66.592C709.535 66.592 707.615 64.6 707.615 61.6C707.615 58.6 709.535 56.608 712.511 56.608C714.215 56.608 715.655 57.376 716.399 58.672L719.711 56.752C718.247 54.376 715.559 52.864 712.511 52.864C707.447 52.864 703.775 56.656 703.775 61.6C703.775 66.544 707.447 70.336 712.511 70.336ZM729.292 70.336C734.116 70.336 738.028 66.544 738.028 61.6C738.028 56.656 734.116 52.864 729.292 52.864C724.468 52.864 720.556 56.656 720.556 61.6C720.556 66.544 724.468 70.336 729.292 70.336ZM729.292 66.592C726.556 66.592 724.396 64.6 724.396 61.6C724.396 58.6 726.556 56.608 729.292 56.608C732.028 56.608 734.188 58.6 734.188 61.6C734.188 64.6 732.028 66.592 729.292 66.592ZM756.99 53.2H753.15L748.59 60.664L744.03 53.2H740.19V70H744.03V60.232L748.374 67.36H748.806L753.15 60.232V70H756.99V53.2ZM776.678 53.2H772.838L768.278 60.664L763.718 53.2H759.878V70H763.718V60.232L768.062 67.36H768.494L772.838 60.232V70H776.678V53.2ZM785.925 70.336C789.621 70.336 792.405 68.176 792.405 64.576V53.2H788.565V64.24C788.565 65.512 787.965 66.592 785.925 66.592C783.885 66.592 783.285 65.512 783.285 64.24V53.2H779.445V64.576C779.445 68.176 782.229 70.336 785.925 70.336ZM804.534 53.2V62.32L798.054 53.2H795.174V70H799.014V60.88L805.494 70H808.374V53.2H804.534ZM811.253 53.2V70H815.093V53.2H811.253ZM829.259 53.2H816.779V56.896H821.099V70H824.939V56.896H829.259V53.2ZM844.62 53.2H840.252L837.06 59.68L833.868 53.2H829.5L835.14 63.544V70H838.98V63.544L844.62 53.2Z" fill="black"/>
<path d="M1037.72 115.2H1025.24V118.896H1029.56V132H1033.4V118.896H1037.72V115.2ZM1040.34 127.44H1048.86C1048.96 126.984 1049 126.504 1049 126C1049 122.376 1046.41 119.664 1042.91 119.664C1039.12 119.664 1036.52 122.424 1036.52 126C1036.52 129.576 1039.07 132.336 1043.17 132.336C1045.45 132.336 1047.23 131.496 1048.4 129.864L1045.52 128.208C1045.04 128.736 1044.2 129.12 1043.22 129.12C1041.9 129.12 1040.8 128.688 1040.34 127.44ZM1040.27 124.752C1040.6 123.528 1041.52 122.856 1042.88 122.856C1043.96 122.856 1045.04 123.36 1045.43 124.752H1040.27ZM1054.65 122.136V120H1051.05V132H1054.65V126.576C1054.65 124.2 1056.76 123.6 1058.25 123.84V119.76C1056.73 119.76 1055.13 120.528 1054.65 122.136ZM1073.37 119.664C1071.67 119.664 1070.56 120.288 1069.89 121.248C1069.22 120.24 1068.16 119.664 1066.75 119.664C1065.14 119.664 1064.08 120.288 1063.53 121.104V120H1059.93V132H1063.53V125.232C1063.53 123.816 1064.2 122.976 1065.4 122.976C1066.55 122.976 1067.13 123.744 1067.13 124.944V132H1070.73V125.232C1070.73 123.816 1071.4 122.976 1072.6 122.976C1073.75 122.976 1074.33 123.744 1074.33 124.944V132H1077.93V124.632C1077.93 121.632 1076.13 119.664 1073.37 119.664ZM1092.15 132.336C1095.68 132.336 1098.51 129.576 1098.51 126C1098.51 122.424 1095.68 119.664 1092.15 119.664C1088.62 119.664 1085.79 122.424 1085.79 126C1085.79 129.576 1088.62 132.336 1092.15 132.336ZM1092.15 128.832C1090.59 128.832 1089.39 127.704 1089.39 126C1089.39 124.296 1090.59 123.168 1092.15 123.168C1093.71 123.168 1094.91 124.296 1094.91 126C1094.91 127.704 1093.71 128.832 1092.15 128.832ZM1106.8 118.32V114.864C1102.81 114.624 1100.96 116.64 1100.96 120H1099.36V123.456H1100.96V132H1104.56V123.456H1106.8V120H1104.56C1104.56 118.608 1105.45 118.2 1106.8 118.32ZM1122.83 115.2V121.128C1122.04 120.216 1120.86 119.664 1119.25 119.664C1116.11 119.664 1113.52 122.424 1113.52 126C1113.52 129.576 1116.11 132.336 1119.25 132.336C1120.86 132.336 1122.04 131.784 1122.83 130.872V132H1126.43V115.2H1122.83ZM1119.97 128.928C1118.32 128.928 1117.12 127.8 1117.12 126C1117.12 124.2 1118.32 123.072 1119.97 123.072C1121.63 123.072 1122.83 124.2 1122.83 126C1122.83 127.8 1121.63 128.928 1119.97 128.928ZM1132.29 127.44H1140.81C1140.9 126.984 1140.95 126.504 1140.95 126C1140.95 122.376 1138.36 119.664 1134.85 119.664C1131.06 119.664 1128.47 122.424 1128.47 126C1128.47 129.576 1131.01 132.336 1135.12 132.336C1137.4 132.336 1139.17 131.496 1140.35 129.864L1137.47 128.208C1136.99 128.736 1136.15 129.12 1135.17 129.12C1133.85 129.12 1132.74 128.688 1132.29 127.44ZM1132.21 124.752C1132.55 123.528 1133.46 122.856 1134.83 122.856C1135.91 122.856 1136.99 123.36 1137.37 124.752H1132.21ZM1142.99 132H1146.59V114.48H1142.99V132ZM1151.03 118.944C1152.2 118.944 1153.19 117.96 1153.19 116.784C1153.19 115.608 1152.2 114.624 1151.03 114.624C1149.85 114.624 1148.87 115.608 1148.87 116.784C1148.87 117.96 1149.85 118.944 1151.03 118.944ZM1149.23 132H1152.83V120H1149.23V132ZM1163.12 120L1160.62 127.608L1158.12 120H1154.14L1158.58 132H1162.66L1167.1 120H1163.12ZM1171.17 127.44H1179.69C1179.78 126.984 1179.83 126.504 1179.83 126C1179.83 122.376 1177.24 119.664 1173.74 119.664C1169.94 119.664 1167.35 122.424 1167.35 126C1167.35 129.576 1169.9 132.336 1174 132.336C1176.28 132.336 1178.06 131.496 1179.23 129.864L1176.35 128.208C1175.87 128.736 1175.03 129.12 1174.05 129.12C1172.73 129.12 1171.62 128.688 1171.17 127.44ZM1171.1 124.752C1171.43 123.528 1172.34 122.856 1173.71 122.856C1174.79 122.856 1175.87 123.36 1176.26 124.752H1171.1ZM1185.47 122.136V120H1181.87V132H1185.47V126.576C1185.47 124.2 1187.59 123.6 1189.07 123.84V119.76C1187.56 119.76 1185.95 120.528 1185.47 122.136ZM1198.55 120L1196.3 127.344L1193.63 120H1189.67L1194.45 131.448C1193.92 132.912 1193.13 133.44 1191.45 133.44V136.8C1194.81 136.968 1196.94 135.456 1198.29 131.64L1202.39 120H1198.55Z" fill="black"/>
<path d="M1032.8 165.2H1026.44V182H1030.28V176.72H1032.8C1036.11 176.72 1038.68 174.152 1038.68 170.96C1038.68 167.768 1036.11 165.2 1032.8 165.2ZM1032.8 173.12H1030.28V168.8H1032.8C1033.98 168.8 1034.84 169.736 1034.84 170.96C1034.84 172.184 1033.98 173.12 1032.8 173.12ZM1048.46 170V171.128C1047.67 170.216 1046.49 169.664 1044.89 169.664C1041.74 169.664 1039.15 172.424 1039.15 176C1039.15 179.576 1041.74 182.336 1044.89 182.336C1046.49 182.336 1047.67 181.784 1048.46 180.872V182H1052.06V170H1048.46ZM1045.61 178.928C1043.95 178.928 1042.75 177.8 1042.75 176C1042.75 174.2 1043.95 173.072 1045.61 173.072C1047.26 173.072 1048.46 174.2 1048.46 176C1048.46 177.8 1047.26 178.928 1045.61 178.928ZM1062.26 170L1060.01 177.344L1057.34 170H1053.38L1058.16 181.448C1057.63 182.912 1056.84 183.44 1055.16 183.44V186.8C1058.52 186.968 1060.65 185.456 1062 181.64L1066.1 170H1062.26ZM1080.87 169.664C1079.17 169.664 1078.06 170.288 1077.39 171.248C1076.72 170.24 1075.66 169.664 1074.25 169.664C1072.64 169.664 1071.58 170.288 1071.03 171.104V170H1067.43V182H1071.03V175.232C1071.03 173.816 1071.7 172.976 1072.9 172.976C1074.05 172.976 1074.63 173.744 1074.63 174.944V182H1078.23V175.232C1078.23 173.816 1078.9 172.976 1080.1 172.976C1081.25 172.976 1081.83 173.744 1081.83 174.944V182H1085.43V174.632C1085.43 171.632 1083.63 169.664 1080.87 169.664ZM1091.11 177.44H1099.63C1099.72 176.984 1099.77 176.504 1099.77 176C1099.77 172.376 1097.18 169.664 1093.67 169.664C1089.88 169.664 1087.29 172.424 1087.29 176C1087.29 179.576 1089.83 182.336 1093.94 182.336C1096.22 182.336 1097.99 181.496 1099.17 179.864L1096.29 178.208C1095.81 178.736 1094.97 179.12 1093.99 179.12C1092.67 179.12 1091.56 178.688 1091.11 177.44ZM1091.03 174.752C1091.37 173.528 1092.28 172.856 1093.65 172.856C1094.73 172.856 1095.81 173.36 1096.19 174.752H1091.03ZM1108.84 169.664C1107.26 169.664 1106.06 170.24 1105.41 171.128V170H1101.81V182H1105.41V175.448C1105.41 173.744 1106.32 172.976 1107.64 172.976C1108.8 172.976 1109.73 173.672 1109.73 175.16V182H1113.33V174.632C1113.33 171.392 1111.27 169.664 1108.84 169.664ZM1122.84 173.456V170H1120.36V166.64L1116.76 167.72V170H1114.84V173.456H1116.76V177.704C1116.76 181.064 1118.13 182.48 1122.84 182V178.736C1121.25 178.832 1120.36 178.736 1120.36 177.704V173.456H1122.84ZM1144.55 169.664C1142.85 169.664 1141.74 170.288 1141.07 171.248C1140.4 170.24 1139.34 169.664 1137.93 169.664C1136.32 169.664 1135.26 170.288 1134.71 171.104V170H1131.11V182H1134.71V175.232C1134.71 173.816 1135.38 172.976 1136.58 172.976C1137.73 172.976 1138.31 173.744 1138.31 174.944V182H1141.91V175.232C1141.91 173.816 1142.58 172.976 1143.78 172.976C1144.93 172.976 1145.51 173.744 1145.51 174.944V182H1149.11V174.632C1149.11 171.632 1147.31 169.664 1144.55 169.664ZM1154.79 177.44H1163.31C1163.4 176.984 1163.45 176.504 1163.45 176C1163.45 172.376 1160.86 169.664 1157.35 169.664C1153.56 169.664 1150.97 172.424 1150.97 176C1150.97 179.576 1153.51 182.336 1157.62 182.336C1159.9 182.336 1161.67 181.496 1162.85 179.864L1159.97 178.208C1159.49 178.736 1158.65 179.12 1157.67 179.12C1156.35 179.12 1155.24 178.688 1154.79 177.44ZM1154.71 174.752C1155.05 173.528 1155.96 172.856 1157.33 172.856C1158.41 172.856 1159.49 173.36 1159.87 174.752H1154.71ZM1172.17 173.456V170H1169.7V166.64L1166.1 167.72V170H1164.18V173.456H1166.1V177.704C1166.1 181.064 1167.47 182.48 1172.17 182V178.736C1170.59 178.832 1169.7 178.736 1169.7 177.704V173.456H1172.17ZM1181.24 169.664C1179.66 169.664 1178.46 170.24 1177.81 171.128V165.2H1174.21V182H1177.81V175.448C1177.81 173.744 1178.72 172.976 1180.04 172.976C1181.19 172.976 1182.13 173.672 1182.13 175.16V182H1185.73V174.632C1185.73 171.392 1183.67 169.664 1181.24 169.664ZM1193.96 182.336C1197.49 182.336 1200.32 179.576 1200.32 176C1200.32 172.424 1197.49 169.664 1193.96 169.664C1190.43 169.664 1187.6 172.424 1187.6 176C1187.6 179.576 1190.43 182.336 1193.96 182.336ZM1193.96 178.832C1192.4 178.832 1191.2 177.704 1191.2 176C1191.2 174.296 1192.4 173.168 1193.96 173.168C1195.52 173.168 1196.72 174.296 1196.72 176C1196.72 177.704 1195.52 178.832 1193.96 178.832ZM1211.07 165.2V171.128C1210.28 170.216 1209.1 169.664 1207.5 169.664C1204.35 169.664 1201.76 172.424 1201.76 176C1201.76 179.576 1204.35 182.336 1207.5 182.336C1209.1 182.336 1210.28 181.784 1211.07 180.872V182H1214.67V165.2H1211.07ZM1208.22 178.928C1206.56 178.928 1205.36 177.8 1205.36 176C1205.36 174.2 1206.56 173.072 1208.22 173.072C1209.87 173.072 1211.07 174.2 1211.07 176C1211.07 177.8 1209.87 178.928 1208.22 178.928ZM1220.6 173.504C1220.6 173.072 1220.99 172.832 1221.61 172.832C1222.4 172.832 1222.88 173.264 1223.22 173.888L1226.29 172.232C1225.28 170.528 1223.56 169.664 1221.61 169.664C1219.12 169.664 1216.91 170.984 1216.91 173.6C1216.91 177.752 1222.81 177.056 1222.81 178.376C1222.81 178.856 1222.38 179.12 1221.52 179.12C1220.46 179.12 1219.79 178.616 1219.48 177.704L1216.36 179.48C1217.29 181.424 1219.12 182.336 1221.52 182.336C1224.11 182.336 1226.51 181.16 1226.51 178.4C1226.51 173.96 1220.6 174.872 1220.6 173.504Z" fill="black"/>
<path d="M1034.46 232.336C1037.53 232.336 1040.22 230.824 1041.66 228.448L1038.34 226.528C1037.62 227.824 1036.16 228.592 1034.46 228.592C1031.48 228.592 1029.56 226.6 1029.56 223.6C1029.56 220.6 1031.48 218.608 1034.46 218.608C1036.16 218.608 1037.6 219.376 1038.34 220.672L1041.66 218.752C1040.19 216.376 1037.5 214.864 1034.46 214.864C1029.39 214.864 1025.72 218.656 1025.72 223.6C1025.72 228.544 1029.39 232.336 1034.46 232.336ZM1049.21 232.336C1052.74 232.336 1055.57 229.576 1055.57 226C1055.57 222.424 1052.74 219.664 1049.21 219.664C1045.68 219.664 1042.85 222.424 1042.85 226C1042.85 229.576 1045.68 232.336 1049.21 232.336ZM1049.21 228.832C1047.65 228.832 1046.45 227.704 1046.45 226C1046.45 224.296 1047.65 223.168 1049.21 223.168C1050.77 223.168 1051.97 224.296 1051.97 226C1051.97 227.704 1050.77 228.832 1049.21 228.832ZM1064.64 219.664C1063.06 219.664 1061.86 220.24 1061.21 221.128V220H1057.61V232H1061.21V225.448C1061.21 223.744 1062.12 222.976 1063.44 222.976C1064.59 222.976 1065.53 223.672 1065.53 225.16V232H1069.13V224.632C1069.13 221.392 1067.07 219.664 1064.64 219.664ZM1078.63 223.456V220H1076.16V216.64L1072.56 217.72V220H1070.64V223.456H1072.56V227.704C1072.56 231.064 1073.93 232.48 1078.63 232V228.736C1077.05 228.832 1076.16 228.736 1076.16 227.704V223.456H1078.63ZM1089.15 220V221.128C1088.36 220.216 1087.18 219.664 1085.57 219.664C1082.43 219.664 1079.84 222.424 1079.84 226C1079.84 229.576 1082.43 232.336 1085.57 232.336C1087.18 232.336 1088.36 231.784 1089.15 230.872V232H1092.75V220H1089.15ZM1086.29 228.928C1084.64 228.928 1083.44 227.8 1083.44 226C1083.44 224.2 1084.64 223.072 1086.29 223.072C1087.95 223.072 1089.15 224.2 1089.15 226C1089.15 227.8 1087.95 228.928 1086.29 228.928ZM1101.15 232.336C1103.5 232.336 1105.54 231.112 1106.57 229.24L1103.43 227.44C1103.05 228.28 1102.16 228.784 1101.1 228.784C1099.54 228.784 1098.39 227.656 1098.39 226C1098.39 224.344 1099.54 223.216 1101.1 223.216C1102.16 223.216 1103.02 223.72 1103.43 224.56L1106.57 222.736C1105.54 220.888 1103.48 219.664 1101.15 219.664C1097.5 219.664 1094.79 222.424 1094.79 226C1094.79 229.576 1097.5 232.336 1101.15 232.336ZM1115.06 223.456V220H1112.58V216.64L1108.98 217.72V220H1107.06V223.456H1108.98V227.704C1108.98 231.064 1110.35 232.48 1115.06 232V228.736C1113.47 228.832 1112.58 228.736 1112.58 227.704V223.456H1115.06ZM1129.09 232.336C1131.44 232.336 1133.48 231.112 1134.51 229.24L1131.37 227.44C1130.98 228.28 1130.1 228.784 1129.04 228.784C1127.48 228.784 1126.33 227.656 1126.33 226C1126.33 224.344 1127.48 223.216 1129.04 223.216C1130.1 223.216 1130.96 223.72 1131.37 224.56L1134.51 222.736C1133.48 220.888 1131.42 219.664 1129.09 219.664C1125.44 219.664 1122.73 222.424 1122.73 226C1122.73 229.576 1125.44 232.336 1129.09 232.336ZM1143.83 220V226.552C1143.83 228.256 1142.92 229.024 1141.6 229.024C1140.45 229.024 1139.51 228.328 1139.51 226.84V220H1135.91V227.368C1135.91 230.608 1137.97 232.336 1140.4 232.336C1141.98 232.336 1143.18 231.76 1143.83 230.872V232H1147.43V220H1143.83ZM1153.36 223.504C1153.36 223.072 1153.74 222.832 1154.37 222.832C1155.16 222.832 1155.64 223.264 1155.98 223.888L1159.05 222.232C1158.04 220.528 1156.31 219.664 1154.37 219.664C1151.87 219.664 1149.66 220.984 1149.66 223.6C1149.66 227.752 1155.57 227.056 1155.57 228.376C1155.57 228.856 1155.14 229.12 1154.27 229.12C1153.22 229.12 1152.54 228.616 1152.23 227.704L1149.11 229.48C1150.05 231.424 1151.87 232.336 1154.27 232.336C1156.86 232.336 1159.26 231.16 1159.26 228.4C1159.26 223.96 1153.36 224.872 1153.36 223.504ZM1167.74 223.456V220H1165.27V216.64L1161.67 217.72V220H1159.75V223.456H1161.67V227.704C1161.67 231.064 1163.04 232.48 1167.74 232V228.736C1166.16 228.832 1165.27 228.736 1165.27 227.704V223.456H1167.74ZM1175.31 232.336C1178.83 232.336 1181.67 229.576 1181.67 226C1181.67 222.424 1178.83 219.664 1175.31 219.664C1171.78 219.664 1168.95 222.424 1168.95 226C1168.95 229.576 1171.78 232.336 1175.31 232.336ZM1175.31 228.832C1173.75 228.832 1172.55 227.704 1172.55 226C1172.55 224.296 1173.75 223.168 1175.31 223.168C1176.87 223.168 1178.07 224.296 1178.07 226C1178.07 227.704 1176.87 228.832 1175.31 228.832ZM1197.14 219.664C1195.44 219.664 1194.33 220.288 1193.66 221.248C1192.99 220.24 1191.93 219.664 1190.52 219.664C1188.91 219.664 1187.85 220.288 1187.3 221.104V220H1183.7V232H1187.3V225.232C1187.3 223.816 1187.97 222.976 1189.17 222.976C1190.33 222.976 1190.9 223.744 1190.9 224.944V232H1194.5V225.232C1194.5 223.816 1195.17 222.976 1196.37 222.976C1197.53 222.976 1198.1 223.744 1198.1 224.944V232H1201.7V224.632C1201.7 221.632 1199.9 219.664 1197.14 219.664ZM1207.38 227.44H1215.9C1216 226.984 1216.04 226.504 1216.04 226C1216.04 222.376 1213.45 219.664 1209.95 219.664C1206.16 219.664 1203.56 222.424 1203.56 226C1203.56 229.576 1206.11 232.336 1210.21 232.336C1212.49 232.336 1214.27 231.496 1215.44 229.864L1212.56 228.208C1212.08 228.736 1211.24 229.12 1210.26 229.12C1208.94 229.12 1207.84 228.688 1207.38 227.44ZM1207.31 224.752C1207.64 223.528 1208.56 222.856 1209.92 222.856C1211 222.856 1212.08 223.36 1212.47 224.752H1207.31ZM1221.69 222.136V220H1218.09V232H1221.69V226.576C1221.69 224.2 1223.8 223.6 1225.29 223.84V219.76C1223.77 219.76 1222.17 220.528 1221.69 222.136ZM1236.38 223.504C1236.38 223.072 1236.76 222.832 1237.38 222.832C1238.18 222.832 1238.66 223.264 1238.99 223.888L1242.06 222.232C1241.06 220.528 1239.33 219.664 1237.38 219.664C1234.89 219.664 1232.68 220.984 1232.68 223.6C1232.68 227.752 1238.58 227.056 1238.58 228.376C1238.58 228.856 1238.15 229.12 1237.29 229.12C1236.23 229.12 1235.56 228.616 1235.25 227.704L1232.13 229.48C1233.06 231.424 1234.89 232.336 1237.29 232.336C1239.88 232.336 1242.28 231.16 1242.28 228.4C1242.28 223.96 1236.38 224.872 1236.38 223.504ZM1247.18 227.44H1255.7C1255.79 226.984 1255.84 226.504 1255.84 226C1255.84 222.376 1253.25 219.664 1249.74 219.664C1245.95 219.664 1243.36 222.424 1243.36 226C1243.36 229.576 1245.9 232.336 1250.01 232.336C1252.29 232.336 1254.06 231.496 1255.24 229.864L1252.36 228.208C1251.88 228.736 1251.04 229.12 1250.06 229.12C1248.74 229.12 1247.63 228.688 1247.18 227.44ZM1247.1 224.752C1247.44 223.528 1248.35 222.856 1249.72 222.856C1250.8 222.856 1251.88 223.36 1252.26 224.752H1247.1ZM1261.48 222.136V220H1257.88V232H1261.48V226.576C1261.48 224.2 1263.59 223.6 1265.08 223.84V219.76C1263.57 219.76 1261.96 220.528 1261.48 222.136ZM1274.42 220L1271.93 227.608L1269.43 220H1265.45L1269.89 232H1273.97L1278.41 220H1274.42ZM1281.53 218.944C1282.7 218.944 1283.69 217.96 1283.69 216.784C1283.69 215.608 1282.7 214.624 1281.53 214.624C1280.35 214.624 1279.37 215.608 1279.37 216.784C1279.37 217.96 1280.35 218.944 1281.53 218.944ZM1279.73 232H1283.33V220H1279.73V232ZM1291.72 232.336C1294.07 232.336 1296.11 231.112 1297.14 229.24L1294 227.44C1293.62 228.28 1292.73 228.784 1291.67 228.784C1290.11 228.784 1288.96 227.656 1288.96 226C1288.96 224.344 1290.11 223.216 1291.67 223.216C1292.73 223.216 1293.59 223.72 1294 224.56L1297.14 222.736C1296.11 220.888 1294.05 219.664 1291.72 219.664C1288.07 219.664 1285.36 222.424 1285.36 226C1285.36 229.576 1288.07 232.336 1291.72 232.336ZM1301.58 227.44H1310.1C1310.19 226.984 1310.24 226.504 1310.24 226C1310.24 222.376 1307.65 219.664 1304.14 219.664C1300.35 219.664 1297.76 222.424 1297.76 226C1297.76 229.576 1300.3 232.336 1304.41 232.336C1306.69 232.336 1308.46 231.496 1309.64 229.864L1306.76 228.208C1306.28 228.736 1305.44 229.12 1304.46 229.12C1303.14 229.12 1302.03 228.688 1301.58 227.44ZM1301.5 224.752C1301.84 223.528 1302.75 222.856 1304.12 222.856C1305.2 222.856 1306.28 223.36 1306.66 224.752H1301.5Z" fill="black"/>
<path d="M1034.46 70.336C1037.53 70.336 1040.22 68.824 1041.66 66.448L1038.34 64.528C1037.62 65.824 1036.16 66.592 1034.46 66.592C1031.48 66.592 1029.56 64.6 1029.56 61.6C1029.56 58.6 1031.48 56.608 1034.46 56.608C1036.16 56.608 1037.6 57.376 1038.34 58.672L1041.66 56.752C1040.19 54.376 1037.5 52.864 1034.46 52.864C1029.39 52.864 1025.72 56.656 1025.72 61.6C1025.72 66.544 1029.39 70.336 1034.46 70.336ZM1049.82 70.336C1053.51 70.336 1056.3 68.176 1056.3 64.576V53.2H1052.46V64.24C1052.46 65.512 1051.86 66.592 1049.82 66.592C1047.78 66.592 1047.18 65.512 1047.18 64.24V53.2H1043.34V64.576C1043.34 68.176 1046.12 70.336 1049.82 70.336ZM1064.95 70.336C1068.59 70.336 1071.18 68.416 1071.18 65.176C1071.18 61.624 1068.33 60.736 1065.79 59.968C1063.17 59.176 1062.76 58.648 1062.76 57.88C1062.76 57.208 1063.36 56.608 1064.56 56.608C1066.1 56.608 1066.89 57.352 1067.47 58.552L1070.71 56.656C1069.48 54.184 1067.32 52.864 1064.56 52.864C1061.66 52.864 1058.92 54.736 1058.92 57.976C1058.92 61.192 1061.37 62.392 1063.87 63.088C1066.39 63.784 1067.35 64.192 1067.35 65.224C1067.35 65.872 1066.89 66.592 1065.07 66.592C1063.17 66.592 1062.14 65.656 1061.54 64.264L1058.23 66.184C1059.16 68.656 1061.42 70.336 1064.95 70.336ZM1083.77 53.2H1071.29V56.896H1075.61V70H1079.45V56.896H1083.77V53.2ZM1092.51 70.336C1097.33 70.336 1101.25 66.544 1101.25 61.6C1101.25 56.656 1097.33 52.864 1092.51 52.864C1087.69 52.864 1083.77 56.656 1083.77 61.6C1083.77 66.544 1087.69 70.336 1092.51 70.336ZM1092.51 66.592C1089.77 66.592 1087.61 64.6 1087.61 61.6C1087.61 58.6 1089.77 56.608 1092.51 56.608C1095.25 56.608 1097.41 58.6 1097.41 61.6C1097.41 64.6 1095.25 66.592 1092.51 66.592ZM1120.21 53.2H1116.37L1111.81 60.664L1107.25 53.2H1103.41V70H1107.25V60.232L1111.59 67.36H1112.02L1116.37 60.232V70H1120.21V53.2ZM1126.94 66.304V63.328H1132.94V59.68H1126.94V56.896H1133.54V53.2H1123.1V70H1133.66V66.304H1126.94ZM1144.65 70H1148.78L1145.21 63.832C1147.05 62.896 1148.3 61.024 1148.3 58.96C1148.3 55.768 1145.73 53.2 1142.54 53.2H1135.82V70H1139.66V64.48H1141.49L1144.65 70ZM1139.66 56.8H1142.54C1143.6 56.8 1144.46 57.736 1144.46 58.96C1144.46 60.184 1143.6 61.12 1142.54 61.12H1139.66V56.8ZM1162.47 70.336C1166.12 70.336 1168.71 68.416 1168.71 65.176C1168.71 61.624 1165.85 60.736 1163.31 59.968C1160.69 59.176 1160.28 58.648 1160.28 57.88C1160.28 57.208 1160.88 56.608 1162.08 56.608C1163.62 56.608 1164.41 57.352 1164.99 58.552L1168.23 56.656C1167 54.184 1164.84 52.864 1162.08 52.864C1159.18 52.864 1156.44 54.736 1156.44 57.976C1156.44 61.192 1158.89 62.392 1161.39 63.088C1163.91 63.784 1164.87 64.192 1164.87 65.224C1164.87 65.872 1164.41 66.592 1162.59 66.592C1160.69 66.592 1159.66 65.656 1159.06 64.264L1155.75 66.184C1156.68 68.656 1158.94 70.336 1162.47 70.336ZM1174.35 66.304V63.328H1180.35V59.68H1174.35V56.896H1180.95V53.2H1170.51V70H1181.07V66.304H1174.35ZM1192.07 70H1196.2L1192.62 63.832C1194.47 62.896 1195.72 61.024 1195.72 58.96C1195.72 55.768 1193.15 53.2 1189.96 53.2H1183.24V70H1187.08V64.48H1188.9L1192.07 70ZM1187.08 56.8H1189.96C1191.01 56.8 1191.88 57.736 1191.88 58.96C1191.88 60.184 1191.01 61.12 1189.96 61.12H1187.08V56.8ZM1201.8 70H1206.7L1212.17 53.2H1207.97L1204.25 65.56L1200.53 53.2H1196.33L1201.8 70ZM1213.61 53.2V70H1217.45V53.2H1213.61ZM1228.35 70.336C1231.43 70.336 1234.11 68.824 1235.55 66.448L1232.24 64.528C1231.52 65.824 1230.06 66.592 1228.35 66.592C1225.38 66.592 1223.46 64.6 1223.46 61.6C1223.46 58.6 1225.38 56.608 1228.35 56.608C1230.06 56.608 1231.5 57.376 1232.24 58.672L1235.55 56.752C1234.09 54.376 1231.4 52.864 1228.35 52.864C1223.29 52.864 1219.62 56.656 1219.62 61.6C1219.62 66.544 1223.29 70.336 1228.35 70.336ZM1241.19 66.304V63.328H1247.19V59.68H1241.19V56.896H1247.79V53.2H1237.35V70H1247.91V66.304H1241.19Z" fill="black"/>
<path d="M186.612 66.304V63.328H192.612V59.68H186.612V56.896H193.212V53.2H182.772V70H193.332V66.304H186.612ZM208.699 70L203.683 61.384L208.459 53.2H204.091L201.499 57.64L198.907 53.2H194.539L199.315 61.384L194.299 70H198.667L201.499 65.152L204.331 70H208.699ZM216.741 53.2H210.381V70H214.221V64.72H216.741C220.053 64.72 222.621 62.152 222.621 58.96C222.621 55.768 220.053 53.2 216.741 53.2ZM216.741 61.12H214.221V56.8H216.741C217.917 56.8 218.781 57.736 218.781 58.96C218.781 60.184 217.917 61.12 216.741 61.12ZM228.378 66.304V53.2H224.538V70H234.378V66.304H228.378ZM243.124 70.336C247.948 70.336 251.86 66.544 251.86 61.6C251.86 56.656 247.948 52.864 243.124 52.864C238.3 52.864 234.388 56.656 234.388 61.6C234.388 66.544 238.3 70.336 243.124 70.336ZM243.124 66.592C240.388 66.592 238.228 64.6 238.228 61.6C238.228 58.6 240.388 56.608 243.124 56.608C245.86 56.608 248.02 58.6 248.02 61.6C248.02 64.6 245.86 66.592 243.124 66.592ZM262.854 70H266.982L263.406 63.832C265.254 62.896 266.502 61.024 266.502 58.96C266.502 55.768 263.934 53.2 260.742 53.2H254.022V70H257.862V64.48H259.686L262.854 70ZM257.862 56.8H260.742C261.798 56.8 262.662 57.736 262.662 58.96C262.662 60.184 261.798 61.12 260.742 61.12H257.862V56.8ZM272.628 66.304V63.328H278.628V59.68H272.628V56.896H279.228V53.2H268.788V70H279.348V66.304H272.628ZM298.794 53.2H286.314V56.896H290.634V70H294.474V56.896H298.794V53.2ZM309.595 53.2V59.632H304.315V53.2H300.475V70H304.315V63.328H309.595V70H313.435V53.2H309.595ZM320.159 66.304V63.328H326.159V59.68H320.159V56.896H326.759V53.2H316.319V70H326.879V66.304H320.159ZM343.061 70.336C346.133 70.336 348.821 68.824 350.261 66.448L346.949 64.528C346.229 65.824 344.765 66.592 343.061 66.592C340.085 66.592 338.165 64.6 338.165 61.6C338.165 58.6 340.085 56.608 343.061 56.608C344.765 56.608 346.205 57.376 346.949 58.672L350.261 56.752C348.797 54.376 346.109 52.864 343.061 52.864C337.997 52.864 334.325 56.656 334.325 61.6C334.325 66.544 337.997 70.336 343.061 70.336ZM359.843 70.336C364.667 70.336 368.579 66.544 368.579 61.6C368.579 56.656 364.667 52.864 359.843 52.864C355.019 52.864 351.107 56.656 351.107 61.6C351.107 66.544 355.019 70.336 359.843 70.336ZM359.843 66.592C357.107 66.592 354.947 64.6 354.947 61.6C354.947 58.6 357.107 56.608 359.843 56.608C362.579 56.608 364.739 58.6 364.739 61.6C364.739 64.6 362.579 66.592 359.843 66.592ZM374.581 66.304V53.2H370.741V70H380.581V66.304H374.581ZM386.112 66.304V53.2H382.272V70H392.112V66.304H386.112ZM397.643 66.304V63.328H403.643V59.68H397.643V56.896H404.243V53.2H393.803V70H404.363V66.304H397.643ZM414.429 70.336C417.501 70.336 420.189 68.824 421.629 66.448L418.317 64.528C417.597 65.824 416.133 66.592 414.429 66.592C411.453 66.592 409.533 64.6 409.533 61.6C409.533 58.6 411.453 56.608 414.429 56.608C416.133 56.608 417.573 57.376 418.317 58.672L421.629 56.752C420.165 54.376 417.477 52.864 414.429 52.864C409.365 52.864 405.693 56.656 405.693 61.6C405.693 66.544 409.365 70.336 414.429 70.336ZM434.708 53.2H422.228V56.896H426.548V70H430.388V56.896H434.708V53.2ZM436.389 53.2V70H440.229V53.2H436.389ZM451.132 70.336C455.956 70.336 459.868 66.544 459.868 61.6C459.868 56.656 455.956 52.864 451.132 52.864C446.308 52.864 442.396 56.656 442.396 61.6C442.396 66.544 446.308 70.336 451.132 70.336ZM451.132 66.592C448.396 66.592 446.236 64.6 446.236 61.6C446.236 58.6 448.396 56.608 451.132 56.608C453.868 56.608 456.028 58.6 456.028 61.6C456.028 64.6 453.868 66.592 451.132 66.592ZM471.39 53.2V62.32L464.91 53.2H462.03V70H465.87V60.88L472.35 70H475.23V53.2H471.39Z" fill="black"/>
<path d="M190.632 122.336C193.704 122.336 196.392 120.824 197.832 118.448L194.52 116.528C193.8 117.824 192.336 118.592 190.632 118.592C187.656 118.592 185.736 116.6 185.736 113.6C185.736 110.6 187.656 108.608 190.632 108.608C192.336 108.608 193.776 109.376 194.52 110.672L197.832 108.752C196.368 106.376 193.68 104.864 190.632 104.864C185.568 104.864 181.896 108.656 181.896 113.6C181.896 118.544 185.568 122.336 190.632 122.336ZM199.746 122H203.346V104.48H199.746V122ZM211.74 122.336C215.268 122.336 218.1 119.576 218.1 116C218.1 112.424 215.268 109.664 211.74 109.664C208.212 109.664 205.38 112.424 205.38 116C205.38 119.576 208.212 122.336 211.74 122.336ZM211.74 118.832C210.18 118.832 208.98 117.704 208.98 116C208.98 114.296 210.18 113.168 211.74 113.168C213.3 113.168 214.5 114.296 214.5 116C214.5 117.704 213.3 118.832 211.74 118.832ZM226.934 113.456V110H224.462V106.64L220.862 107.72V110H218.942V113.456H220.862V117.704C220.862 121.064 222.23 122.48 226.934 122V118.736C225.35 118.832 224.462 118.736 224.462 117.704V113.456H226.934ZM236.004 109.664C234.42 109.664 233.22 110.24 232.572 111.128V105.2H228.972V122H232.572V115.448C232.572 113.744 233.484 112.976 234.804 112.976C235.956 112.976 236.892 113.672 236.892 115.16V122H240.492V114.632C240.492 111.392 238.428 109.664 236.004 109.664ZM244.765 108.944C245.941 108.944 246.925 107.96 246.925 106.784C246.925 105.608 245.941 104.624 244.765 104.624C243.589 104.624 242.605 105.608 242.605 106.784C242.605 107.96 243.589 108.944 244.765 108.944ZM242.965 122H246.565V110H242.965V122ZM256.231 109.664C254.647 109.664 253.447 110.24 252.799 111.128V110H249.199V122H252.799V115.448C252.799 113.744 253.711 112.976 255.031 112.976C256.183 112.976 257.119 113.672 257.119 115.16V122H260.719V114.632C260.719 111.392 258.655 109.664 256.231 109.664ZM271.999 110V111.224C271.207 110.24 270.055 109.664 268.495 109.664C265.087 109.664 262.591 112.448 262.591 115.76C262.591 119.072 265.087 121.856 268.495 121.856C270.055 121.856 271.207 121.28 271.999 120.296V121.4C271.999 123.104 270.967 123.968 269.287 123.968C267.703 123.968 267.007 123.296 266.551 122.456L263.479 124.232C264.583 126.2 266.671 127.136 269.167 127.136C272.359 127.136 275.503 125.432 275.503 121.4V110H271.999ZM269.095 118.544C267.391 118.544 266.191 117.416 266.191 115.76C266.191 114.104 267.391 112.976 269.095 112.976C270.799 112.976 271.999 114.104 271.999 115.76C271.999 117.416 270.799 118.544 269.095 118.544Z" fill="black"/>
<path d="M193.036 165.288C193.948 164.496 194.5 163.392 194.5 162C194.5 159.096 192.124 157.2 189.196 157.2H182.62V174H189.676C192.676 174 195.1 172.056 195.1 169.08C195.1 167.376 194.284 166.08 193.036 165.288ZM189.196 160.8C190.084 160.8 190.66 161.424 190.66 162.288C190.66 163.152 190.06 163.776 189.196 163.776H186.46V160.8H189.196ZM189.676 170.4H186.46V167.184H189.676C190.636 167.184 191.26 167.856 191.26 168.792C191.26 169.728 190.636 170.4 189.676 170.4ZM205.837 162V163.128C205.045 162.216 203.869 161.664 202.261 161.664C199.117 161.664 196.525 164.424 196.525 168C196.525 171.576 199.117 174.336 202.261 174.336C203.869 174.336 205.045 173.784 205.837 172.872V174H209.437V162H205.837ZM202.981 170.928C201.325 170.928 200.125 169.8 200.125 168C200.125 166.2 201.325 165.072 202.981 165.072C204.637 165.072 205.837 166.2 205.837 168C205.837 169.8 204.637 170.928 202.981 170.928ZM220.886 162V163.224C220.094 162.24 218.942 161.664 217.382 161.664C213.974 161.664 211.478 164.448 211.478 167.76C211.478 171.072 213.974 173.856 217.382 173.856C218.942 173.856 220.094 173.28 220.886 172.296V173.4C220.886 175.104 219.854 175.968 218.174 175.968C216.59 175.968 215.894 175.296 215.438 174.456L212.366 176.232C213.47 178.2 215.558 179.136 218.054 179.136C221.246 179.136 224.39 177.432 224.39 173.4V162H220.886ZM217.982 170.544C216.278 170.544 215.078 169.416 215.078 167.76C215.078 166.104 216.278 164.976 217.982 164.976C219.686 164.976 220.886 166.104 220.886 167.76C220.886 169.416 219.686 170.544 217.982 170.544ZM230.322 165.504C230.322 165.072 230.706 164.832 231.33 164.832C232.122 164.832 232.602 165.264 232.938 165.888L236.01 164.232C235.002 162.528 233.274 161.664 231.33 161.664C228.834 161.664 226.626 162.984 226.626 165.6C226.626 169.752 232.53 169.056 232.53 170.376C232.53 170.856 232.098 171.12 231.234 171.12C230.178 171.12 229.506 170.616 229.194 169.704L226.074 171.48C227.01 173.424 228.834 174.336 231.234 174.336C233.826 174.336 236.226 173.16 236.226 170.4C236.226 165.96 230.322 166.872 230.322 165.504Z" fill="black"/>
<path d="M193.292 226H197.492L191.78 209.2H186.884L181.172 226H185.372L186.212 223.36H192.452L193.292 226ZM187.364 219.76L189.332 213.592L191.3 219.76H187.364ZM204.213 226.336C206.565 226.336 208.605 225.112 209.637 223.24L206.493 221.44C206.109 222.28 205.221 222.784 204.165 222.784C202.605 222.784 201.453 221.656 201.453 220C201.453 218.344 202.605 217.216 204.165 217.216C205.221 217.216 206.085 217.72 206.493 218.56L209.637 216.736C208.605 214.888 206.541 213.664 204.213 213.664C200.565 213.664 197.853 216.424 197.853 220C197.853 223.576 200.565 226.336 204.213 226.336ZM216.611 226.336C218.963 226.336 221.003 225.112 222.035 223.24L218.891 221.44C218.507 222.28 217.619 222.784 216.563 222.784C215.003 222.784 213.851 221.656 213.851 220C213.851 218.344 215.003 217.216 216.563 217.216C217.619 217.216 218.483 217.72 218.891 218.56L222.035 216.736C221.003 214.888 218.939 213.664 216.611 213.664C212.963 213.664 210.251 216.424 210.251 220C210.251 223.576 212.963 226.336 216.611 226.336ZM226.466 221.44H234.986C235.082 220.984 235.13 220.504 235.13 220C235.13 216.376 232.538 213.664 229.034 213.664C225.242 213.664 222.65 216.424 222.65 220C222.65 223.576 225.194 226.336 229.298 226.336C231.578 226.336 233.354 225.496 234.53 223.864L231.65 222.208C231.17 222.736 230.33 223.12 229.346 223.12C228.026 223.12 226.922 222.688 226.466 221.44ZM226.394 218.752C226.73 217.528 227.642 216.856 229.01 216.856C230.09 216.856 231.17 217.36 231.554 218.752H226.394ZM240.111 217.504C240.111 217.072 240.495 216.832 241.119 216.832C241.911 216.832 242.391 217.264 242.727 217.888L245.799 216.232C244.791 214.528 243.063 213.664 241.119 213.664C238.623 213.664 236.415 214.984 236.415 217.6C236.415 221.752 242.319 221.056 242.319 222.376C242.319 222.856 241.887 223.12 241.023 223.12C239.967 223.12 239.295 222.616 238.983 221.704L235.863 223.48C236.799 225.424 238.623 226.336 241.023 226.336C243.615 226.336 246.015 225.16 246.015 222.4C246.015 217.96 240.111 218.872 240.111 217.504ZM250.611 217.504C250.611 217.072 250.995 216.832 251.619 216.832C252.411 216.832 252.891 217.264 253.227 217.888L256.299 216.232C255.291 214.528 253.563 213.664 251.619 213.664C249.123 213.664 246.915 214.984 246.915 217.6C246.915 221.752 252.819 221.056 252.819 222.376C252.819 222.856 252.387 223.12 251.523 223.12C250.467 223.12 249.795 222.616 249.483 221.704L246.363 223.48C247.299 225.424 249.123 226.336 251.523 226.336C254.115 226.336 256.515 225.16 256.515 222.4C256.515 217.96 250.611 218.872 250.611 217.504ZM263.955 226.336C267.483 226.336 270.315 223.576 270.315 220C270.315 216.424 267.483 213.664 263.955 213.664C260.427 213.664 257.595 216.424 257.595 220C257.595 223.576 260.427 226.336 263.955 226.336ZM263.955 222.832C262.395 222.832 261.195 221.704 261.195 220C261.195 218.296 262.395 217.168 263.955 217.168C265.515 217.168 266.715 218.296 266.715 220C266.715 221.704 265.515 222.832 263.955 222.832ZM275.951 216.136V214H272.351V226H275.951V220.576C275.951 218.2 278.063 217.6 279.551 217.84V213.76C278.039 213.76 276.431 214.528 275.951 216.136ZM283.034 212.944C284.21 212.944 285.194 211.96 285.194 210.784C285.194 209.608 284.21 208.624 283.034 208.624C281.858 208.624 280.874 209.608 280.874 210.784C280.874 211.96 281.858 212.944 283.034 212.944ZM281.234 226H284.834V214H281.234V226ZM290.684 221.44H299.204C299.3 220.984 299.348 220.504 299.348 220C299.348 216.376 296.756 213.664 293.252 213.664C289.46 213.664 286.868 216.424 286.868 220C286.868 223.576 289.412 226.336 293.516 226.336C295.796 226.336 297.572 225.496 298.748 223.864L295.868 222.208C295.388 222.736 294.548 223.12 293.564 223.12C292.244 223.12 291.14 222.688 290.684 221.44ZM290.612 218.752C290.948 217.528 291.86 216.856 293.228 216.856C294.308 216.856 295.388 217.36 295.772 218.752H290.612ZM304.33 217.504C304.33 217.072 304.714 216.832 305.338 216.832C306.13 216.832 306.61 217.264 306.946 217.888L310.018 216.232C309.01 214.528 307.282 213.664 305.338 213.664C302.842 213.664 300.634 214.984 300.634 217.6C300.634 221.752 306.538 221.056 306.538 222.376C306.538 222.856 306.106 223.12 305.242 223.12C304.186 223.12 303.514 222.616 303.202 221.704L300.082 223.48C301.018 225.424 302.842 226.336 305.242 226.336C307.834 226.336 310.234 225.16 310.234 222.4C310.234 217.96 304.33 218.872 304.33 217.504Z" fill="black"/>
<path d="M191.869 261.2V267.632H186.589V261.2H182.749V278H186.589V271.328H191.869V278H195.709V261.2H191.869ZM204.232 278.336C207.76 278.336 210.592 275.576 210.592 272C210.592 268.424 207.76 265.664 204.232 265.664C200.704 265.664 197.872 268.424 197.872 272C197.872 275.576 200.704 278.336 204.232 278.336ZM204.232 274.832C202.672 274.832 201.472 273.704 201.472 272C201.472 270.296 202.672 269.168 204.232 269.168C205.792 269.168 206.992 270.296 206.992 272C206.992 273.704 205.792 274.832 204.232 274.832ZM226.069 265.664C224.365 265.664 223.261 266.288 222.589 267.248C221.917 266.24 220.861 265.664 219.445 265.664C217.837 265.664 216.781 266.288 216.229 267.104V266H212.629V278H216.229V271.232C216.229 269.816 216.901 268.976 218.101 268.976C219.253 268.976 219.829 269.744 219.829 270.944V278H223.429V271.232C223.429 269.816 224.101 268.976 225.301 268.976C226.453 268.976 227.029 269.744 227.029 270.944V278H230.629V270.632C230.629 267.632 228.829 265.664 226.069 265.664ZM236.306 273.44H244.826C244.922 272.984 244.97 272.504 244.97 272C244.97 268.376 242.378 265.664 238.874 265.664C235.082 265.664 232.49 268.424 232.49 272C232.49 275.576 235.034 278.336 239.138 278.336C241.418 278.336 243.194 277.496 244.37 275.864L241.49 274.208C241.01 274.736 240.17 275.12 239.186 275.12C237.866 275.12 236.762 274.688 236.306 273.44ZM236.234 270.752C236.57 269.528 237.482 268.856 238.85 268.856C239.93 268.856 241.01 269.36 241.394 270.752H236.234Z" fill="black"/>
<path d="M602.509 206.481V209.636H600.199V213.493H602.509V224.958H607.258V213.493H610.443C610.443 213.493 610.743 211.644 610.888 209.62H607.276V206.985C607.276 206.588 607.794 206.059 608.307 206.059H610.892V202.042H607.374C602.392 202.042 602.509 205.903 602.509 206.481Z" fill="black"/>
<path d="M591.75 195.167C590.534 195.167 589.369 195.65 588.509 196.509C587.649 197.369 587.167 198.534 587.167 199.75V227.25C587.167 228.466 587.649 229.631 588.509 230.491C589.369 231.35 590.534 231.833 591.75 231.833H619.25C620.465 231.833 621.631 231.35 622.491 230.491C623.35 229.631 623.833 228.466 623.833 227.25V199.75C623.833 198.534 623.35 197.369 622.491 196.509C621.631 195.65 620.465 195.167 619.25 195.167H591.75ZM591.75 190.583H619.25C621.681 190.583 624.013 191.549 625.732 193.268C627.451 194.987 628.417 197.319 628.417 199.75V227.25C628.417 229.681 627.451 232.013 625.732 233.732C624.013 235.451 621.681 236.417 619.25 236.417H591.75C589.319 236.417 586.987 235.451 585.268 233.732C583.549 232.013 582.583 229.681 582.583 227.25V199.75C582.583 197.319 583.549 194.987 585.268 193.268C586.987 191.549 589.319 190.583 591.75 190.583V190.583Z" fill="black"/>
<path d="M669.875 190.583H689.125C696.458 190.583 702.417 196.542 702.417 203.875V223.125C702.417 226.65 701.016 230.031 698.524 232.524C696.031 235.016 692.65 236.417 689.125 236.417H669.875C662.542 236.417 656.583 230.458 656.583 223.125V203.875C656.583 200.35 657.984 196.969 660.476 194.476C662.969 191.984 666.35 190.583 669.875 190.583V190.583ZM669.417 195.167C667.229 195.167 665.13 196.036 663.583 197.583C662.036 199.13 661.167 201.229 661.167 203.417V223.583C661.167 228.144 664.856 231.833 669.417 231.833H689.583C691.771 231.833 693.87 230.964 695.417 229.417C696.964 227.87 697.833 225.771 697.833 223.583V203.417C697.833 198.856 694.144 195.167 689.583 195.167H669.417ZM691.531 198.604C692.291 198.604 693.02 198.906 693.557 199.443C694.094 199.98 694.396 200.709 694.396 201.469C694.396 202.229 694.094 202.957 693.557 203.494C693.02 204.032 692.291 204.333 691.531 204.333C690.771 204.333 690.043 204.032 689.506 203.494C688.968 202.957 688.667 202.229 688.667 201.469C688.667 200.709 688.968 199.98 689.506 199.443C690.043 198.906 690.771 198.604 691.531 198.604ZM679.5 202.042C682.539 202.042 685.453 203.249 687.602 205.398C689.751 207.547 690.958 210.461 690.958 213.5C690.958 216.539 689.751 219.453 687.602 221.602C685.453 223.751 682.539 224.958 679.5 224.958C676.461 224.958 673.547 223.751 671.398 221.602C669.249 219.453 668.042 216.539 668.042 213.5C668.042 210.461 669.249 207.547 671.398 205.398C673.547 203.249 676.461 202.042 679.5 202.042V202.042ZM679.5 206.625C677.677 206.625 675.928 207.349 674.639 208.639C673.349 209.928 672.625 211.677 672.625 213.5C672.625 215.323 673.349 217.072 674.639 218.361C675.928 219.651 677.677 220.375 679.5 220.375C681.323 220.375 683.072 219.651 684.361 218.361C685.651 217.072 686.375 215.323 686.375 213.5C686.375 211.677 685.651 209.928 684.361 208.639C683.072 207.349 681.323 206.625 679.5 206.625Z" fill="black"/>
<path d="M770.992 204.326C771.022 204.727 771.022 205.126 771.022 205.525C771.022 217.728 761.734 231.79 744.76 231.79C739.53 231.79 734.672 230.275 730.583 227.644C731.326 227.729 732.041 227.759 732.813 227.759C736.968 227.769 741.005 226.379 744.274 223.815C742.347 223.78 740.48 223.144 738.932 221.997C737.385 220.849 736.234 219.247 735.641 217.414C736.212 217.499 736.785 217.556 737.385 217.556C738.212 217.556 739.044 217.442 739.816 217.242C737.726 216.82 735.846 215.687 734.497 214.036C733.147 212.384 732.411 210.316 732.414 208.183V208.069C733.645 208.754 735.073 209.182 736.585 209.24C735.318 208.398 734.279 207.255 733.561 205.914C732.843 204.573 732.468 203.075 732.469 201.554C732.469 199.839 732.925 198.267 733.725 196.897C736.045 199.75 738.938 202.084 742.217 203.748C745.496 205.412 749.087 206.369 752.76 206.556C752.618 205.869 752.531 205.156 752.531 204.441C752.53 203.229 752.768 202.028 753.232 200.908C753.696 199.788 754.376 198.77 755.233 197.913C756.09 197.055 757.108 196.375 758.228 195.912C759.348 195.448 760.549 195.21 761.761 195.21C764.42 195.21 766.819 196.324 768.506 198.125C770.572 197.726 772.554 196.971 774.363 195.895C773.674 198.029 772.231 199.837 770.305 200.983C772.138 200.774 773.929 200.292 775.619 199.553C774.357 201.393 772.792 203.007 770.992 204.326V204.326Z" fill="black"/>
<path d="M824.854 224.715C824.472 225.256 824.109 225.523 823.763 225.523C823.532 225.523 823.4 225.388 823.358 225.119C823.342 225.064 823.342 224.853 823.342 224.448V217.43H821.616V224.967C821.616 225.641 821.673 226.096 821.768 226.384C821.94 226.867 822.324 227.093 822.881 227.093C823.516 227.093 824.168 226.71 824.854 225.922V226.962H826.582V217.431H824.854V224.715V224.715Z" fill="black"/>
<path d="M815.343 215.971H817.375V226.962H819.296V215.971H821.365V214.17H815.343V215.971Z" fill="black"/>
<path d="M827.104 207.637C827.667 207.637 827.937 207.191 827.937 206.3V202.247C827.937 201.357 827.667 200.913 827.104 200.913C826.541 200.913 826.271 201.357 826.271 202.247V206.3C826.272 207.191 826.541 207.637 827.104 207.637Z" fill="black"/>
<path d="M831.589 217.314C830.954 217.314 830.362 217.662 829.805 218.348V214.17H828.077V226.962H829.805V226.037C830.381 226.752 830.975 227.093 831.589 227.093C832.277 227.093 832.739 226.731 832.97 226.022C833.085 225.618 833.143 224.983 833.143 224.102V220.306C833.143 219.404 833.085 218.774 832.97 218.391C832.738 217.676 832.277 217.314 831.589 217.314ZM831.416 224.237C831.416 225.098 831.163 225.522 830.665 225.522C830.381 225.522 830.093 225.387 829.804 225.098V219.288C830.093 219.004 830.381 218.869 830.665 218.869C831.163 218.869 831.416 219.31 831.416 220.169V224.237Z" fill="black"/>
<path d="M837.089 217.314C836.208 217.314 835.519 217.639 835.021 218.292C834.654 218.773 834.487 219.518 834.487 220.536V223.876C834.487 224.888 834.675 225.641 835.042 226.116C835.541 226.767 836.228 227.093 837.133 227.093C838.035 227.093 838.742 226.751 839.221 226.06C839.432 225.75 839.57 225.396 839.624 225.025C839.639 224.851 839.661 224.468 839.661 223.912V223.659H837.898C837.898 224.352 837.877 224.735 837.861 224.829C837.762 225.291 837.514 225.522 837.089 225.522C836.496 225.522 836.208 225.082 836.208 224.2V222.51H839.661V220.536C839.661 219.517 839.488 218.773 839.127 218.292C838.643 217.639 837.956 217.314 837.089 217.314V217.314ZM837.934 221.073H836.208V220.191C836.208 219.31 836.496 218.869 837.074 218.869C837.645 218.869 837.934 219.31 837.934 220.191V221.073V221.073Z" fill="black"/>
<path d="M843.45 193.7H811.55C809.432 193.7 807.7 195.432 807.7 197.55V229.45C807.7 231.567 809.432 233.3 811.55 233.3H843.45C845.567 233.3 847.3 231.567 847.3 229.45V197.55C847.3 195.432 845.567 193.7 843.45 193.7ZM831.119 199.458H832.859V206.549C832.859 206.959 832.859 207.172 832.88 207.228C832.919 207.499 833.055 207.637 833.289 207.637C833.638 207.637 834.005 207.366 834.391 206.82V199.458H836.137V209.089H834.391V208.038C833.697 208.835 833.034 209.223 832.398 209.223C831.836 209.223 831.448 208.994 831.273 208.506C831.177 208.215 831.119 207.754 831.119 207.074V199.458V199.458ZM824.526 202.598C824.526 201.569 824.702 200.816 825.073 200.329C825.556 199.671 826.235 199.342 827.104 199.342C827.979 199.342 828.658 199.671 829.141 200.329C829.506 200.816 829.683 201.569 829.683 202.598V205.972C829.683 206.995 829.507 207.754 829.141 208.238C828.658 208.894 827.98 209.223 827.104 209.223C826.235 209.223 825.555 208.894 825.073 208.238C824.702 207.754 824.526 206.995 824.526 205.972V202.598ZM819.859 196.165L821.233 201.24L822.553 196.165H824.51L822.182 203.855V209.089H820.246V203.855C820.071 202.927 819.684 201.568 819.063 199.766C818.655 198.567 818.23 197.362 817.823 196.165H819.859ZM841.29 227.535C840.941 229.054 839.697 230.175 838.201 230.342C834.657 230.738 831.071 230.74 827.5 230.738C823.929 230.74 820.342 230.738 816.799 230.342C815.302 230.175 814.06 229.054 813.711 227.535C813.213 225.37 813.213 223.007 813.213 220.78C813.213 218.55 813.219 216.189 813.717 214.024C814.066 212.504 815.308 211.384 816.805 211.217C820.348 210.82 823.935 210.819 827.506 210.82C831.077 210.819 834.663 210.82 838.207 211.217C839.703 211.384 840.946 212.504 841.296 214.024C841.793 216.189 841.791 218.55 841.791 220.78C841.791 223.007 841.788 225.37 841.29 227.535V227.535Z" fill="black"/>
<path d="M634.4 400H642.76V399.031H635.844L639.967 394.794C641.316 393.426 642.456 391.963 642.456 390.31C642.456 387.84 640.537 386.491 638.504 386.491C636.775 386.491 635.274 387.327 634.476 388.961L635.331 389.474C635.958 388.144 637.06 387.46 638.504 387.46C640.119 387.46 641.43 388.486 641.43 390.31C641.43 391.621 640.442 392.875 639.283 394.072L634.4 399.088V400ZM649.402 400.209C652.594 400.209 654.38 397.454 654.38 393.35C654.38 389.246 652.594 386.491 649.402 386.491C646.21 386.491 644.424 389.246 644.424 393.35C644.424 397.454 646.21 400.209 649.402 400.209ZM649.402 399.24C646.932 399.24 645.45 397.074 645.45 393.35C645.45 389.626 646.932 387.46 649.402 387.46C651.872 387.46 653.354 389.626 653.354 393.35C653.354 397.074 651.872 399.24 649.402 399.24ZM656.016 400H664.376V399.031H657.46L661.583 394.794C662.932 393.426 664.072 391.963 664.072 390.31C664.072 387.84 662.153 386.491 660.12 386.491C658.391 386.491 656.89 387.327 656.092 388.961L656.947 389.474C657.574 388.144 658.676 387.46 660.12 387.46C661.735 387.46 663.046 388.486 663.046 390.31C663.046 391.621 662.058 392.875 660.899 394.072L656.016 399.088V400ZM669.019 386.7L665.542 387.897L665.789 388.771L668.867 387.802V400H669.874V386.7H669.019ZM678.246 386.7V400H679.253V386.7H678.246ZM691.29 386.7V398.138L683.424 386.7H682.55V400H683.557V388.562L691.404 400H692.297V386.7H691.29ZM701.75 400.209C704.239 400.209 706.405 398.917 707.488 396.96L706.595 396.447C705.721 398.119 703.859 399.24 701.75 399.24C698.254 399.24 695.841 396.618 695.841 393.35C695.841 390.082 698.254 387.46 701.75 387.46C703.84 387.46 705.683 388.562 706.557 390.196L707.45 389.683C706.348 387.745 704.201 386.491 701.75 386.491C697.703 386.491 694.834 389.55 694.834 393.35C694.834 397.15 697.703 400.209 701.75 400.209ZM718.261 400H719.42L716.114 394.414C717.805 393.958 719.04 392.438 719.04 390.633C719.04 388.467 717.273 386.7 715.107 386.7H709.863V400H710.87V394.547H715.069L718.261 400ZM710.87 387.65H715.107C716.722 387.65 718.033 388.98 718.033 390.633C718.033 392.267 716.722 393.597 715.107 393.597H710.87V387.65ZM722.522 399.05V393.768H728.602V392.818H722.522V387.65H729.077V386.7H721.515V400H729.172V399.05H722.522ZM736.643 386.7H731.646V400H736.643C740.31 400 742.913 397.017 742.913 393.35C742.913 389.683 740.31 386.7 736.643 386.7ZM736.643 399.05H732.653V387.65H736.643C739.778 387.65 741.925 390.196 741.925 393.35C741.925 396.504 739.778 399.05 736.643 399.05ZM745.451 386.7V400H746.458V386.7H745.451ZM756.843 393.103C757.869 392.552 758.553 391.488 758.553 390.196C758.553 388.277 756.995 386.7 755.057 386.7H749.756V400H755.494C757.508 400 759.123 398.385 759.123 396.371C759.123 394.851 758.173 393.616 756.843 393.103ZM755.057 387.65C756.425 387.65 757.546 388.79 757.546 390.196C757.546 391.602 756.425 392.742 755.057 392.742H750.763V387.65H755.057ZM755.494 399.05H750.763V393.692H755.494C756.938 393.692 758.116 394.889 758.116 396.371C758.116 397.853 756.938 399.05 755.494 399.05ZM762.6 399.05V386.7H761.593V400H768.87V399.05H762.6ZM771.971 399.05V393.768H778.051V392.818H771.971V387.65H778.526V386.7H770.964V400H778.621V399.05H771.971ZM785.16 400.209C787.801 400.209 789.53 398.765 789.53 396.561C789.53 394.262 787.478 393.521 785.122 392.742C783.222 392.115 781.873 391.621 781.873 390.025C781.873 388.543 783.032 387.46 784.875 387.46C786.775 387.46 787.801 388.562 788.295 389.759L789.15 389.284C788.504 387.745 787.06 386.491 784.875 386.491C782.614 386.491 780.847 387.878 780.847 390.063C780.847 392.381 782.842 393.008 785.065 393.73C787.098 394.376 788.504 394.984 788.504 396.58C788.504 398.1 787.383 399.24 785.16 399.24C782.975 399.24 781.626 398.157 781.17 396.561L780.296 397.074C780.904 398.955 782.671 400.209 785.16 400.209ZM570.65 422.209C573.291 422.209 575.02 420.765 575.02 418.561C575.02 416.262 572.968 415.521 570.612 414.742C568.712 414.115 567.363 413.621 567.363 412.025C567.363 410.543 568.522 409.46 570.365 409.46C572.265 409.46 573.291 410.562 573.785 411.759L574.64 411.284C573.994 409.745 572.55 408.491 570.365 408.491C568.104 408.491 566.337 409.878 566.337 412.063C566.337 414.381 568.332 415.008 570.555 415.73C572.588 416.376 573.994 416.984 573.994 418.58C573.994 420.1 572.873 421.24 570.65 421.24C568.465 421.24 567.116 420.157 566.66 418.561L565.786 419.074C566.394 420.955 568.161 422.209 570.65 422.209ZM581.915 422.209C583.777 422.209 585.373 421.259 586.133 419.796L585.335 419.321C584.708 420.499 583.454 421.297 581.915 421.297C579.616 421.297 577.887 419.511 577.887 417.25C577.887 414.989 579.616 413.203 581.915 413.203C583.435 413.203 584.727 413.982 585.278 415.179L586.057 414.723C585.373 413.241 583.777 412.291 581.915 412.291C579.046 412.291 576.918 414.438 576.918 417.25C576.918 420.062 579.046 422.209 581.915 422.209ZM592.565 412.291C591.102 412.291 589.886 412.899 589.164 414.305V408.7H588.214V422H589.164V416.984C589.164 414.419 590.627 413.203 592.489 413.203C594.275 413.203 595.282 414.343 595.282 416.091V422H596.251V416.091C596.251 413.792 594.826 412.291 592.565 412.291ZM603.29 422.209C606.045 422.209 608.268 420.062 608.268 417.25C608.268 414.438 606.045 412.291 603.29 412.291C600.516 412.291 598.293 414.438 598.293 417.25C598.293 420.062 600.516 422.209 603.29 422.209ZM603.29 421.297C601.029 421.297 599.262 419.511 599.262 417.25C599.262 414.989 601.029 413.203 603.29 413.203C605.551 413.203 607.299 414.989 607.299 417.25C607.299 419.511 605.551 421.297 603.29 421.297ZM614.905 422.209C617.66 422.209 619.883 420.062 619.883 417.25C619.883 414.438 617.66 412.291 614.905 412.291C612.131 412.291 609.908 414.438 609.908 417.25C609.908 420.062 612.131 422.209 614.905 422.209ZM614.905 421.297C612.644 421.297 610.877 419.511 610.877 417.25C610.877 414.989 612.644 413.203 614.905 413.203C617.166 413.203 618.914 414.989 618.914 417.25C618.914 419.511 617.166 421.297 614.905 421.297ZM622.169 422H623.119V408.13H622.169V422ZM636.147 412.291C634.304 412.291 632.841 413.241 632.062 414.704V412.5H631.112V425.8H632.062V419.796C632.841 421.259 634.304 422.209 636.147 422.209C638.864 422.209 641.068 420.062 641.068 417.25C641.068 414.438 638.864 412.291 636.147 412.291ZM636.09 421.297C633.829 421.297 632.062 419.511 632.062 417.25C632.062 414.989 633.829 413.203 636.09 413.203C638.351 413.203 640.118 414.989 640.118 417.25C640.118 419.511 638.351 421.297 636.09 421.297ZM644.309 414.362V412.5H643.359V422H644.309V416.718C644.309 414.286 645.848 413.279 647.482 413.279V412.367C646.19 412.367 644.955 412.861 644.309 414.362ZM653.183 422.209C655.938 422.209 658.161 420.062 658.161 417.25C658.161 414.438 655.938 412.291 653.183 412.291C650.409 412.291 648.186 414.438 648.186 417.25C648.186 420.062 650.409 422.209 653.183 422.209ZM653.183 421.297C650.922 421.297 649.155 419.511 649.155 417.25C649.155 414.989 650.922 413.203 653.183 413.203C655.444 413.203 657.192 414.989 657.192 417.25C657.192 419.511 655.444 421.297 653.183 421.297ZM661.005 408.7C660.587 408.7 660.245 409.042 660.245 409.441C660.245 409.859 660.587 410.201 661.005 410.201C661.423 410.201 661.765 409.859 661.765 409.441C661.765 409.042 661.423 408.7 661.005 408.7ZM660.53 423.083C660.53 424.603 659.827 425.249 658.326 425.097V426.009C660.378 426.199 661.48 425.097 661.48 423.083V412.5H660.53V423.083ZM668.675 412.291C665.768 412.291 663.754 414.457 663.754 417.25C663.754 420.119 665.825 422.209 668.751 422.209C670.632 422.209 672.114 421.354 672.893 420.062L672.057 419.568C671.506 420.575 670.328 421.297 668.77 421.297C666.604 421.297 664.97 419.891 664.742 417.744H673.349C673.349 417.592 673.368 417.44 673.368 417.288C673.368 414.685 671.563 412.291 668.675 412.291ZM668.675 413.203C670.537 413.203 672.171 414.495 672.38 416.813H664.742C664.932 414.704 666.509 413.203 668.675 413.203ZM679.939 422.209C681.801 422.209 683.397 421.259 684.157 419.796L683.359 419.321C682.732 420.499 681.478 421.297 679.939 421.297C677.64 421.297 675.911 419.511 675.911 417.25C675.911 414.989 677.64 413.203 679.939 413.203C681.459 413.203 682.751 413.982 683.302 415.179L684.081 414.723C683.397 413.241 681.801 412.291 679.939 412.291C677.07 412.291 674.942 414.438 674.942 417.25C674.942 420.062 677.07 422.209 679.939 422.209ZM691.102 413.431V412.5H688.271V409.84L687.302 410.125V412.5H685.212V413.431H687.302V419.606C687.302 421.772 688.613 422.38 691.102 422V421.145C689.164 421.316 688.271 421.278 688.271 419.606V413.431H691.102ZM693.496 423.9L701.096 406.8H700.336L692.736 423.9H693.496ZM712.331 408.7V420.138L704.465 408.7H703.591V422H704.598V410.562L712.445 422H713.338V408.7H712.331ZM720.796 422.209C723.551 422.209 725.774 420.062 725.774 417.25C725.774 414.438 723.551 412.291 720.796 412.291C718.022 412.291 715.799 414.438 715.799 417.25C715.799 420.062 718.022 422.209 720.796 422.209ZM720.796 421.297C718.535 421.297 716.768 419.511 716.768 417.25C716.768 414.989 718.535 413.203 720.796 413.203C723.057 413.203 724.805 414.989 724.805 417.25C724.805 419.511 723.057 421.297 720.796 421.297ZM737.477 422.209C739.339 422.209 740.935 421.259 741.695 419.796L740.897 419.321C740.27 420.499 739.016 421.297 737.477 421.297C735.178 421.297 733.449 419.511 733.449 417.25C733.449 414.989 735.178 413.203 737.477 413.203C738.997 413.203 740.289 413.982 740.84 415.179L741.619 414.723C740.935 413.241 739.339 412.291 737.477 412.291C734.608 412.291 732.48 414.438 732.48 417.25C732.48 420.062 734.608 422.209 737.477 422.209ZM748.035 422.209C750.79 422.209 753.013 420.062 753.013 417.25C753.013 414.438 750.79 412.291 748.035 412.291C745.261 412.291 743.038 414.438 743.038 417.25C743.038 420.062 745.261 422.209 748.035 422.209ZM748.035 421.297C745.774 421.297 744.007 419.511 744.007 417.25C744.007 414.989 745.774 413.203 748.035 413.203C750.296 413.203 752.044 414.989 752.044 417.25C752.044 419.511 750.296 421.297 748.035 421.297ZM765.445 412.291C764.172 412.291 762.956 412.899 762.272 414.229C761.778 412.975 760.695 412.291 759.308 412.291C758.092 412.291 756.952 412.823 756.249 414.134V412.5H755.299V422H756.249V416.699C756.249 414.267 757.636 413.203 759.194 413.203C760.657 413.203 761.626 414.172 761.626 415.977V422H762.576V416.699C762.576 414.267 763.83 413.203 765.426 413.203C766.908 413.203 767.953 414.172 767.953 415.977V422H768.903V415.977C768.903 413.602 767.459 412.291 765.445 412.291ZM781.736 412.291C780.463 412.291 779.247 412.899 778.563 414.229C778.069 412.975 776.986 412.291 775.599 412.291C774.383 412.291 773.243 412.823 772.54 414.134V412.5H771.59V422H772.54V416.699C772.54 414.267 773.927 413.203 775.485 413.203C776.948 413.203 777.917 414.172 777.917 415.977V422H778.867V416.699C778.867 414.267 780.121 413.203 781.717 413.203C783.199 413.203 784.244 414.172 784.244 415.977V422H785.194V415.977C785.194 413.602 783.75 412.291 781.736 412.291ZM792.156 412.291C789.249 412.291 787.235 414.457 787.235 417.25C787.235 420.119 789.306 422.209 792.232 422.209C794.113 422.209 795.595 421.354 796.374 420.062L795.538 419.568C794.987 420.575 793.809 421.297 792.251 421.297C790.085 421.297 788.451 419.891 788.223 417.744H796.83C796.83 417.592 796.849 417.44 796.849 417.288C796.849 414.685 795.044 412.291 792.156 412.291ZM792.156 413.203C794.018 413.203 795.652 414.495 795.861 416.813H788.223C788.413 414.704 789.99 413.203 792.156 413.203ZM800.019 414.362V412.5H799.069V422H800.019V416.718C800.019 414.286 801.558 413.279 803.192 413.279V412.367C801.9 412.367 800.665 412.861 800.019 414.362ZM808.894 422.209C810.756 422.209 812.352 421.259 813.112 419.796L812.314 419.321C811.687 420.499 810.433 421.297 808.894 421.297C806.595 421.297 804.866 419.511 804.866 417.25C804.866 414.989 806.595 413.203 808.894 413.203C810.414 413.203 811.706 413.982 812.257 415.179L813.036 414.723C812.352 413.241 810.756 412.291 808.894 412.291C806.025 412.291 803.897 414.438 803.897 417.25C803.897 420.062 806.025 422.209 808.894 422.209ZM815.668 410.201C816.086 410.201 816.428 409.859 816.428 409.441C816.428 409.042 816.086 408.7 815.668 408.7C815.25 408.7 814.908 409.042 814.908 409.441C814.908 409.859 815.25 410.201 815.668 410.201ZM815.193 422H816.143V412.5H815.193V422ZM827.431 412.5V414.647C826.633 413.222 825.17 412.291 823.346 412.291C820.648 412.291 818.425 414.438 818.425 417.25C818.425 420.062 820.648 422.209 823.346 422.209C825.17 422.209 826.633 421.278 827.431 419.853V422H828.4V412.5H827.431ZM823.422 421.297C821.161 421.297 819.394 419.511 819.394 417.25C819.394 414.989 821.161 413.203 823.422 413.203C825.683 413.203 827.431 414.989 827.431 417.25C827.431 419.511 825.683 421.297 823.422 421.297ZM831.317 422H832.267V408.13H831.317V422ZM847.101 412.5V417.516C847.101 420.081 845.638 421.297 843.776 421.297C841.99 421.297 840.983 420.157 840.983 418.409V412.5H840.014V418.409C840.014 420.708 841.439 422.209 843.7 422.209C845.163 422.209 846.379 421.601 847.101 420.195V422H848.051V412.5H847.101ZM851.631 414.989C851.631 413.849 852.676 413.203 853.911 413.203C854.956 413.203 855.944 413.659 856.343 414.647L857.141 414.191C856.628 413.032 855.45 412.291 853.911 412.291C851.973 412.291 850.681 413.488 850.681 414.989C850.681 418.409 856.438 416.927 856.438 419.511C856.438 420.708 855.317 421.297 853.987 421.297C852.562 421.297 851.536 420.651 851.194 419.625L850.377 420.1C850.833 421.316 852.087 422.209 853.987 422.209C856.02 422.209 857.388 421.069 857.388 419.511C857.388 416.034 851.631 417.535 851.631 414.989ZM863.684 412.291C860.777 412.291 858.763 414.457 858.763 417.25C858.763 420.119 860.834 422.209 863.76 422.209C865.641 422.209 867.123 421.354 867.902 420.062L867.066 419.568C866.515 420.575 865.337 421.297 863.779 421.297C861.613 421.297 859.979 419.891 859.751 417.744H868.358C868.358 417.592 868.377 417.44 868.377 417.288C868.377 414.685 866.572 412.291 863.684 412.291ZM863.684 413.203C865.546 413.203 867.18 414.495 867.389 416.813H859.751C859.941 414.704 861.518 413.203 863.684 413.203ZM490.374 430.7H489.101L484.351 438.566L479.601 430.7H478.347V444H479.354V432.182L484.275 440.352H484.446L489.367 432.182V444H490.374V430.7ZM501.843 434.5V436.647C501.045 435.222 499.582 434.291 497.758 434.291C495.06 434.291 492.837 436.438 492.837 439.25C492.837 442.062 495.06 444.209 497.758 444.209C499.582 444.209 501.045 443.278 501.843 441.853V444H502.812V434.5H501.843ZM497.834 443.297C495.573 443.297 493.806 441.511 493.806 439.25C493.806 436.989 495.573 435.203 497.834 435.203C500.095 435.203 501.843 436.989 501.843 439.25C501.843 441.511 500.095 443.297 497.834 443.297ZM506.679 436.362V434.5H505.729V444H506.679V438.718C506.679 436.286 508.218 435.279 509.852 435.279V434.367C508.56 434.367 507.325 434.861 506.679 436.362ZM512.253 432.201C512.671 432.201 513.013 431.859 513.013 431.441C513.013 431.042 512.671 430.7 512.253 430.7C511.835 430.7 511.493 431.042 511.493 431.441C511.493 431.859 511.835 432.201 512.253 432.201ZM511.778 444H512.728V434.5H511.778V444ZM525.802 434.291C524.529 434.291 523.313 434.899 522.629 436.229C522.135 434.975 521.052 434.291 519.665 434.291C518.449 434.291 517.309 434.823 516.606 436.134V434.5H515.656V444H516.606V438.699C516.606 436.267 517.993 435.203 519.551 435.203C521.014 435.203 521.983 436.172 521.983 437.977V444H522.933V438.699C522.933 436.267 524.187 435.203 525.783 435.203C527.265 435.203 528.31 436.172 528.31 437.977V444H529.26V437.977C529.26 435.602 527.816 434.291 525.802 434.291ZM536.222 434.291C533.315 434.291 531.301 436.457 531.301 439.25C531.301 442.119 533.372 444.209 536.298 444.209C538.179 444.209 539.661 443.354 540.44 442.062L539.604 441.568C539.053 442.575 537.875 443.297 536.317 443.297C534.151 443.297 532.517 441.891 532.289 439.744H540.896C540.896 439.592 540.915 439.44 540.915 439.288C540.915 436.685 539.11 434.291 536.222 434.291ZM536.222 435.203C538.084 435.203 539.718 436.495 539.927 438.813H532.289C532.479 436.704 534.056 435.203 536.222 435.203ZM550.412 444L545.111 439.06L550.222 434.5H548.892L544.085 438.813V430.7H543.135V444H544.085V439.326L549.12 444H550.412ZM559.597 444L554.296 439.06L559.407 434.5H558.077L553.27 438.813V430.7H552.32V444H553.27V439.326L558.305 444H559.597ZM564.909 444.209C567.664 444.209 569.887 442.062 569.887 439.25C569.887 436.438 567.664 434.291 564.909 434.291C562.135 434.291 559.912 436.438 559.912 439.25C559.912 442.062 562.135 444.209 564.909 444.209ZM564.909 443.297C562.648 443.297 560.881 441.511 560.881 439.25C560.881 436.989 562.648 435.203 564.909 435.203C567.17 435.203 568.918 436.989 568.918 439.25C568.918 441.511 567.17 443.297 564.909 443.297ZM572.453 430.7H571.275L570.553 434.652H571.427L572.453 430.7ZM574.192 436.989C574.192 435.849 575.237 435.203 576.472 435.203C577.517 435.203 578.505 435.659 578.904 436.647L579.702 436.191C579.189 435.032 578.011 434.291 576.472 434.291C574.534 434.291 573.242 435.488 573.242 436.989C573.242 440.409 578.999 438.927 578.999 441.511C578.999 442.708 577.878 443.297 576.548 443.297C575.123 443.297 574.097 442.651 573.755 441.625L572.938 442.1C573.394 443.316 574.648 444.209 576.548 444.209C578.581 444.209 579.949 443.069 579.949 441.511C579.949 438.034 574.192 439.535 574.192 436.989ZM587.314 444H588.264V430.13H587.314V444ZM595.543 444.209C598.298 444.209 600.521 442.062 600.521 439.25C600.521 436.438 598.298 434.291 595.543 434.291C592.769 434.291 590.546 436.438 590.546 439.25C590.546 442.062 592.769 444.209 595.543 444.209ZM595.543 443.297C593.282 443.297 591.515 441.511 591.515 439.25C591.515 436.989 593.282 435.203 595.543 435.203C597.804 435.203 599.552 436.989 599.552 439.25C599.552 441.511 597.804 443.297 595.543 443.297ZM611.243 434.5V436.704C610.464 435.241 609.001 434.291 607.158 434.291C604.441 434.291 602.237 436.438 602.237 439.25C602.237 442.062 604.441 444.209 607.158 444.209C609.001 444.209 610.464 443.259 611.243 441.796V443.544C611.243 445.71 609.837 447.097 607.462 447.097C605.372 447.097 604.308 446.261 603.814 445.254L602.978 445.729C603.662 447.116 605.239 448.009 607.462 448.009C610.084 448.009 612.193 446.394 612.193 443.544V434.5H611.243ZM607.215 443.297C604.954 443.297 603.187 441.511 603.187 439.25C603.187 436.989 604.954 435.203 607.215 435.203C609.476 435.203 611.243 436.989 611.243 439.25C611.243 441.511 609.476 443.297 607.215 443.297ZM619.479 444.209C622.234 444.209 624.457 442.062 624.457 439.25C624.457 436.438 622.234 434.291 619.479 434.291C616.705 434.291 614.482 436.438 614.482 439.25C614.482 442.062 616.705 444.209 619.479 444.209ZM619.479 443.297C617.218 443.297 615.451 441.511 615.451 439.25C615.451 436.989 617.218 435.203 619.479 435.203C621.74 435.203 623.488 436.989 623.488 439.25C623.488 441.511 621.74 443.297 619.479 443.297ZM643.341 434.5L640.814 442.765L638.154 434.5H637.166L634.506 442.765L631.979 434.5H630.972L633.974 444H635.019L637.66 435.906L640.301 444H641.346L644.348 434.5H643.341ZM654.418 434.5V436.647C653.62 435.222 652.157 434.291 650.333 434.291C647.635 434.291 645.412 436.438 645.412 439.25C645.412 442.062 647.635 444.209 650.333 444.209C652.157 444.209 653.62 443.278 654.418 441.853V444H655.387V434.5H654.418ZM650.409 443.297C648.148 443.297 646.381 441.511 646.381 439.25C646.381 436.989 648.148 435.203 650.409 435.203C652.67 435.203 654.418 436.989 654.418 439.25C654.418 441.511 652.67 443.297 650.409 443.297ZM658.95 436.989C658.95 435.849 659.995 435.203 661.23 435.203C662.275 435.203 663.263 435.659 663.662 436.647L664.46 436.191C663.947 435.032 662.769 434.291 661.23 434.291C659.292 434.291 658 435.488 658 436.989C658 440.409 663.757 438.927 663.757 441.511C663.757 442.708 662.636 443.297 661.306 443.297C659.881 443.297 658.855 442.651 658.513 441.625L657.696 442.1C658.152 443.316 659.406 444.209 661.306 444.209C663.339 444.209 664.707 443.069 664.707 441.511C664.707 438.034 658.95 439.535 658.95 436.989ZM678.912 434.5V439.516C678.912 442.081 677.449 443.297 675.587 443.297C673.801 443.297 672.794 442.157 672.794 440.409V434.5H671.825V440.409C671.825 442.708 673.25 444.209 675.511 444.209C676.974 444.209 678.19 443.601 678.912 442.195V444H679.862V434.5H678.912ZM683.442 436.989C683.442 435.849 684.487 435.203 685.722 435.203C686.767 435.203 687.755 435.659 688.154 436.647L688.952 436.191C688.439 435.032 687.261 434.291 685.722 434.291C683.784 434.291 682.492 435.488 682.492 436.989C682.492 440.409 688.249 438.927 688.249 441.511C688.249 442.708 687.128 443.297 685.798 443.297C684.373 443.297 683.347 442.651 683.005 441.625L682.188 442.1C682.644 443.316 683.898 444.209 685.798 444.209C687.831 444.209 689.199 443.069 689.199 441.511C689.199 438.034 683.442 439.535 683.442 436.989ZM695.495 434.291C692.588 434.291 690.574 436.457 690.574 439.25C690.574 442.119 692.645 444.209 695.571 444.209C697.452 444.209 698.934 443.354 699.713 442.062L698.877 441.568C698.326 442.575 697.148 443.297 695.59 443.297C693.424 443.297 691.79 441.891 691.562 439.744H700.169C700.169 439.592 700.188 439.44 700.188 439.288C700.188 436.685 698.383 434.291 695.495 434.291ZM695.495 435.203C697.357 435.203 698.991 436.495 699.2 438.813H691.562C691.752 436.704 693.329 435.203 695.495 435.203ZM710.788 430.7V436.704C710.009 435.241 708.546 434.291 706.703 434.291C703.986 434.291 701.782 436.438 701.782 439.25C701.782 442.062 703.986 444.209 706.703 444.209C708.546 444.209 710.009 443.259 710.788 441.796V444H711.738V430.7H710.788ZM706.76 443.297C704.499 443.297 702.732 441.511 702.732 439.25C702.732 436.989 704.499 435.203 706.76 435.203C709.021 435.203 710.788 436.989 710.788 439.25C710.788 441.511 709.021 443.297 706.76 443.297ZM724.204 431.403V430.491C721.715 430.301 720.404 431.65 720.404 433.987V434.5H718.77V435.431H720.404V444H721.373V435.431H724.204V434.5H721.373V433.987C721.373 432.144 722.266 431.251 724.204 431.403ZM729.397 444.209C732.152 444.209 734.375 442.062 734.375 439.25C734.375 436.438 732.152 434.291 729.397 434.291C726.623 434.291 724.4 436.438 724.4 439.25C724.4 442.062 726.623 444.209 729.397 444.209ZM729.397 443.297C727.136 443.297 725.369 441.511 725.369 439.25C725.369 436.989 727.136 435.203 729.397 435.203C731.658 435.203 733.406 436.989 733.406 439.25C733.406 441.511 731.658 443.297 729.397 443.297ZM737.611 436.362V434.5H736.661V444H737.611V438.718C737.611 436.286 739.15 435.279 740.784 435.279V434.367C739.492 434.367 738.257 434.861 737.611 436.362ZM756.154 430.7V436.704C755.375 435.241 753.912 434.291 752.069 434.291C749.352 434.291 747.148 436.438 747.148 439.25C747.148 442.062 749.352 444.209 752.069 444.209C753.912 444.209 755.375 443.259 756.154 441.796V444H757.104V430.7H756.154ZM752.126 443.297C749.865 443.297 748.098 441.511 748.098 439.25C748.098 436.989 749.865 435.203 752.126 435.203C754.387 435.203 756.154 436.989 756.154 439.25C756.154 441.511 754.387 443.297 752.126 443.297ZM764.296 434.291C761.389 434.291 759.375 436.457 759.375 439.25C759.375 442.119 761.446 444.209 764.372 444.209C766.253 444.209 767.735 443.354 768.514 442.062L767.678 441.568C767.127 442.575 765.949 443.297 764.391 443.297C762.225 443.297 760.591 441.891 760.363 439.744H768.97C768.97 439.592 768.989 439.44 768.989 439.288C768.989 436.685 767.184 434.291 764.296 434.291ZM764.296 435.203C766.158 435.203 767.792 436.495 768.001 438.813H760.363C760.553 436.704 762.13 435.203 764.296 435.203ZM781.356 434.291C780.083 434.291 778.867 434.899 778.183 436.229C777.689 434.975 776.606 434.291 775.219 434.291C774.003 434.291 772.863 434.823 772.16 436.134V434.5H771.21V444H772.16V438.699C772.16 436.267 773.547 435.203 775.105 435.203C776.568 435.203 777.537 436.172 777.537 437.977V444H778.487V438.699C778.487 436.267 779.741 435.203 781.337 435.203C782.819 435.203 783.864 436.172 783.864 437.977V444H784.814V437.977C784.814 435.602 783.37 434.291 781.356 434.291ZM791.852 444.209C794.607 444.209 796.83 442.062 796.83 439.25C796.83 436.438 794.607 434.291 791.852 434.291C789.078 434.291 786.855 436.438 786.855 439.25C786.855 442.062 789.078 444.209 791.852 444.209ZM791.852 443.297C789.591 443.297 787.824 441.511 787.824 439.25C787.824 436.989 789.591 435.203 791.852 435.203C794.113 435.203 795.861 436.989 795.861 439.25C795.861 441.511 794.113 443.297 791.852 443.297ZM803.467 434.291C802.004 434.291 800.788 434.899 800.066 436.305V434.5H799.116V444H800.066V438.984C800.066 436.419 801.529 435.203 803.391 435.203C805.177 435.203 806.184 436.343 806.184 438.091V444H807.153V438.091C807.153 435.792 805.728 434.291 803.467 434.291ZM810.486 436.989C810.486 435.849 811.531 435.203 812.766 435.203C813.811 435.203 814.799 435.659 815.198 436.647L815.996 436.191C815.483 435.032 814.305 434.291 812.766 434.291C810.828 434.291 809.536 435.488 809.536 436.989C809.536 440.409 815.293 438.927 815.293 441.511C815.293 442.708 814.172 443.297 812.842 443.297C811.417 443.297 810.391 442.651 810.049 441.625L809.232 442.1C809.688 443.316 810.942 444.209 812.842 444.209C814.875 444.209 816.243 443.069 816.243 441.511C816.243 438.034 810.486 439.535 810.486 436.989ZM823.035 435.431V434.5H820.204V431.84L819.235 432.125V434.5H817.145V435.431H819.235V441.606C819.235 443.772 820.546 444.38 823.035 444V443.145C821.097 443.316 820.204 443.278 820.204 441.606V435.431H823.035ZM826.265 436.362V434.5H825.315V444H826.265V438.718C826.265 436.286 827.804 435.279 829.438 435.279V434.367C828.146 434.367 826.911 434.861 826.265 436.362ZM839.149 434.5V436.647C838.351 435.222 836.888 434.291 835.064 434.291C832.366 434.291 830.143 436.438 830.143 439.25C830.143 442.062 832.366 444.209 835.064 444.209C836.888 444.209 838.351 443.278 839.149 441.853V444H840.118V434.5H839.149ZM835.14 443.297C832.879 443.297 831.112 441.511 831.112 439.25C831.112 436.989 832.879 435.203 835.14 435.203C837.401 435.203 839.149 436.989 839.149 439.25C839.149 441.511 837.401 443.297 835.14 443.297ZM847.899 435.431V434.5H845.068V431.84L844.099 432.125V434.5H842.009V435.431H844.099V441.606C844.099 443.772 845.41 444.38 847.899 444V443.145C845.961 443.316 845.068 443.278 845.068 441.606V435.431H847.899ZM850.653 432.201C851.071 432.201 851.413 431.859 851.413 431.441C851.413 431.042 851.071 430.7 850.653 430.7C850.235 430.7 849.893 431.042 849.893 431.441C849.893 431.859 850.235 432.201 850.653 432.201ZM850.178 444H851.128V434.5H850.178V444ZM858.407 444.209C861.162 444.209 863.385 442.062 863.385 439.25C863.385 436.438 861.162 434.291 858.407 434.291C855.633 434.291 853.41 436.438 853.41 439.25C853.41 442.062 855.633 444.209 858.407 444.209ZM858.407 443.297C856.146 443.297 854.379 441.511 854.379 439.25C854.379 436.989 856.146 435.203 858.407 435.203C860.668 435.203 862.416 436.989 862.416 439.25C862.416 441.511 860.668 443.297 858.407 443.297ZM870.022 434.291C868.559 434.291 867.343 434.899 866.621 436.305V434.5H865.671V444H866.621V438.984C866.621 436.419 868.084 435.203 869.946 435.203C871.732 435.203 872.739 436.343 872.739 438.091V444H873.708V438.091C873.708 435.792 872.283 434.291 870.022 434.291ZM886.497 434.291C884.654 434.291 883.191 435.241 882.412 436.704V434.5H881.462V447.8H882.412V441.796C883.191 443.259 884.654 444.209 886.497 444.209C889.214 444.209 891.418 442.062 891.418 439.25C891.418 436.438 889.214 434.291 886.497 434.291ZM886.44 443.297C884.179 443.297 882.412 441.511 882.412 439.25C882.412 436.989 884.179 435.203 886.44 435.203C888.701 435.203 890.468 436.989 890.468 439.25C890.468 441.511 888.701 443.297 886.44 443.297ZM900.548 434.5V439.516C900.548 442.081 899.085 443.297 897.223 443.297C895.437 443.297 894.43 442.157 894.43 440.409V434.5H893.461V440.409C893.461 442.708 894.886 444.209 897.147 444.209C898.61 444.209 899.826 443.601 900.548 442.195V444H901.498V434.5H900.548ZM905.382 436.362V434.5H904.432V444H905.382V438.718C905.382 436.286 906.921 435.279 908.555 435.279V434.367C907.263 434.367 906.028 434.861 905.382 436.362ZM915.516 434.291C913.673 434.291 912.21 435.241 911.431 436.704V434.5H910.481V447.8H911.431V441.796C912.21 443.259 913.673 444.209 915.516 444.209C918.233 444.209 920.437 442.062 920.437 439.25C920.437 436.438 918.233 434.291 915.516 434.291ZM915.459 443.297C913.198 443.297 911.431 441.511 911.431 439.25C911.431 436.989 913.198 435.203 915.459 435.203C917.72 435.203 919.487 436.989 919.487 439.25C919.487 441.511 917.72 443.297 915.459 443.297ZM927.078 444.209C929.833 444.209 932.056 442.062 932.056 439.25C932.056 436.438 929.833 434.291 927.078 434.291C924.304 434.291 922.081 436.438 922.081 439.25C922.081 442.062 924.304 444.209 927.078 444.209ZM927.078 443.297C924.817 443.297 923.05 441.511 923.05 439.25C923.05 436.989 924.817 435.203 927.078 435.203C929.339 435.203 931.087 436.989 931.087 439.25C931.087 441.511 929.339 443.297 927.078 443.297ZM934.803 436.989C934.803 435.849 935.848 435.203 937.083 435.203C938.128 435.203 939.116 435.659 939.515 436.647L940.313 436.191C939.8 435.032 938.622 434.291 937.083 434.291C935.145 434.291 933.853 435.488 933.853 436.989C933.853 440.409 939.61 438.927 939.61 441.511C939.61 442.708 938.489 443.297 937.159 443.297C935.734 443.297 934.708 442.651 934.366 441.625L933.549 442.1C934.005 443.316 935.259 444.209 937.159 444.209C939.192 444.209 940.56 443.069 940.56 441.511C940.56 438.034 934.803 439.535 934.803 436.989ZM946.856 434.291C943.949 434.291 941.935 436.457 941.935 439.25C941.935 442.119 944.006 444.209 946.932 444.209C948.813 444.209 950.295 443.354 951.074 442.062L950.238 441.568C949.687 442.575 948.509 443.297 946.951 443.297C944.785 443.297 943.151 441.891 942.923 439.744H951.53C951.53 439.592 951.549 439.44 951.549 439.288C951.549 436.685 949.744 434.291 946.856 434.291ZM946.856 435.203C948.718 435.203 950.352 436.495 950.561 438.813H942.923C943.113 436.704 944.69 435.203 946.856 435.203Z" fill="black"/>
</svg>
