<svg width="144" height="66" viewBox="0 0 144 66" fill="none" xmlns="http://www.w3.org/2000/svg">
<g filter="url(#filter0_d_1936_5667)">
<rect x="7" y="7" width="130" height="52" rx="5" fill="white"/>
<path d="M35.874 40.808C39.042 40.808 41.418 38.938 41.418 35.55V25.1H37.898V35.55C37.898 36.496 37.436 37.376 35.896 37.376C34.708 37.376 34.202 36.914 33.718 36.056L30.66 37.816C31.672 39.774 33.432 40.808 35.874 40.808ZM51.3008 40.808C55.7228 40.808 59.3088 37.332 59.3088 32.8C59.3088 28.268 55.7228 24.792 51.3008 24.792C46.8788 24.792 43.2928 28.268 43.2928 32.8C43.2928 37.332 46.8788 40.808 51.3008 40.808ZM51.3008 37.376C48.7928 37.376 46.8128 35.55 46.8128 32.8C46.8128 30.05 48.7928 28.224 51.3008 28.224C53.8088 28.224 55.7888 30.05 55.7888 32.8C55.7888 35.55 53.8088 37.376 51.3008 37.376ZM61.2907 25.1V40.5H64.8107V25.1H61.2907ZM76.0367 25.1V33.46L70.0967 25.1H67.4567V40.5H70.9767V32.14L76.9167 40.5H79.5567V25.1H76.0367ZM93.525 40.808C96.913 40.808 99.465 38.828 99.465 35.528V25.1H95.945V35.22C95.945 36.386 95.395 37.376 93.525 37.376C91.655 37.376 91.105 36.386 91.105 35.22V25.1H87.585V35.528C87.585 38.828 90.137 40.808 93.525 40.808ZM107.394 40.808C110.738 40.808 113.114 39.048 113.114 36.078C113.114 32.822 110.496 32.008 108.164 31.304C105.766 30.578 105.392 30.094 105.392 29.39C105.392 28.774 105.942 28.224 107.042 28.224C108.45 28.224 109.176 28.906 109.704 30.006L112.674 28.268C111.552 26.002 109.572 24.792 107.042 24.792C104.38 24.792 101.872 26.508 101.872 29.478C101.872 32.426 104.116 33.526 106.404 34.164C108.714 34.802 109.594 35.176 109.594 36.122C109.594 36.716 109.176 37.376 107.504 37.376C105.766 37.376 104.82 36.518 104.27 35.242L101.234 37.002C102.092 39.268 104.16 40.808 107.394 40.808Z" fill="#749723"/>
<rect x="5.5" y="5.5" width="133" height="55" rx="6.5" stroke="#749723" stroke-width="3"/>
</g>
<defs>
<filter id="filter0_d_1936_5667" x="0" y="0" width="144" height="66" filterUnits="userSpaceOnUse" color-interpolation-filters="sRGB">
<feFlood flood-opacity="0" result="BackgroundImageFix"/>
<feColorMatrix in="SourceAlpha" type="matrix" values="0 0 0 0 0 0 0 0 0 0 0 0 0 0 0 0 0 0 127 0" result="hardAlpha"/>
<feOffset/>
<feGaussianBlur stdDeviation="2"/>
<feComposite in2="hardAlpha" operator="out"/>
<feColorMatrix type="matrix" values="0 0 0 0 0 0 0 0 0 0 0 0 0 0 0 0 0 0 0.25 0"/>
<feBlend mode="normal" in2="BackgroundImageFix" result="effect1_dropShadow_1936_5667"/>
<feBlend mode="normal" in="SourceGraphic" in2="effect1_dropShadow_1936_5667" result="shape"/>
</filter>
</defs>
</svg>
