<svg width="140" height="62" viewBox="0 0 140 62" fill="none" xmlns="http://www.w3.org/2000/svg">
<g filter="url(#filter0_d_137_1171)">
<rect x="4" y="4" width="130" height="52" rx="5" fill="white"/>
<path d="M32.874 37.808C36.042 37.808 38.418 35.938 38.418 32.55V22.1H34.898V32.55C34.898 33.496 34.436 34.376 32.896 34.376C31.708 34.376 31.202 33.914 30.718 33.056L27.66 34.816C28.672 36.774 30.432 37.808 32.874 37.808ZM48.3008 37.808C52.7228 37.808 56.3088 34.332 56.3088 29.8C56.3088 25.268 52.7228 21.792 48.3008 21.792C43.8788 21.792 40.2928 25.268 40.2928 29.8C40.2928 34.332 43.8788 37.808 48.3008 37.808ZM48.3008 34.376C45.7928 34.376 43.8128 32.55 43.8128 29.8C43.8128 27.05 45.7928 25.224 48.3008 25.224C50.8088 25.224 52.7888 27.05 52.7888 29.8C52.7888 32.55 50.8088 34.376 48.3008 34.376ZM58.2907 22.1V37.5H61.8107V22.1H58.2907ZM73.0367 22.1V30.46L67.0967 22.1H64.4567V37.5H67.9767V29.14L73.9167 37.5H76.5567V22.1H73.0367ZM90.525 37.808C93.913 37.808 96.465 35.828 96.465 32.528V22.1H92.945V32.22C92.945 33.386 92.395 34.376 90.525 34.376C88.655 34.376 88.105 33.386 88.105 32.22V22.1H84.585V32.528C84.585 35.828 87.137 37.808 90.525 37.808ZM104.394 37.808C107.738 37.808 110.114 36.048 110.114 33.078C110.114 29.822 107.496 29.008 105.164 28.304C102.766 27.578 102.392 27.094 102.392 26.39C102.392 25.774 102.942 25.224 104.042 25.224C105.45 25.224 106.176 25.906 106.704 27.006L109.674 25.268C108.552 23.002 106.572 21.792 104.042 21.792C101.38 21.792 98.8716 23.508 98.8716 26.478C98.8716 29.426 101.116 30.526 103.404 31.164C105.714 31.802 106.594 32.176 106.594 33.122C106.594 33.716 106.176 34.376 104.504 34.376C102.766 34.376 101.82 33.518 101.27 32.242L98.2336 34.002C99.0916 36.268 101.16 37.808 104.394 37.808Z" fill="#749723"/>
<rect x="2.5" y="2.5" width="133" height="55" rx="6.5" stroke="#749723" stroke-width="3"/>
</g>
<defs>
<filter id="filter0_d_137_1171" x="0" y="0" width="140" height="62" filterUnits="userSpaceOnUse" color-interpolation-filters="sRGB">
<feFlood flood-opacity="0" result="BackgroundImageFix"/>
<feColorMatrix in="SourceAlpha" type="matrix" values="0 0 0 0 0 0 0 0 0 0 0 0 0 0 0 0 0 0 127 0" result="hardAlpha"/>
<feOffset dx="1" dy="1"/>
<feGaussianBlur stdDeviation="1"/>
<feComposite in2="hardAlpha" operator="out"/>
<feColorMatrix type="matrix" values="0 0 0 0 0 0 0 0 0 0 0 0 0 0 0 0 0 0 0.25 0"/>
<feBlend mode="normal" in2="BackgroundImageFix" result="effect1_dropShadow_137_1171"/>
<feBlend mode="normal" in="SourceGraphic" in2="effect1_dropShadow_137_1171" result="shape"/>
</filter>
</defs>
</svg>
