<svg width="234" height="59" viewBox="0 0 234 59" fill="none" xmlns="http://www.w3.org/2000/svg">
<g filter="url(#filter0_d_1936_5661)">
<rect x="7" y="7" width="220" height="45" rx="5" fill="white"/>
<path d="M43.34 33.612V30.884H48.84V27.54H43.34V24.988H49.39V21.6H39.82V37H49.5V33.612H43.34ZM63.586 37L58.988 29.102L63.366 21.6H59.362L56.986 25.67L54.61 21.6H50.606L54.984 29.102L50.386 37H54.39L56.986 32.556L59.582 37H63.586ZM70.9586 21.6H65.1286V37H68.6486V32.16H70.9586C73.9946 32.16 76.3486 29.806 76.3486 26.88C76.3486 23.954 73.9946 21.6 70.9586 21.6ZM70.9586 28.86H68.6486V24.9H70.9586C72.0366 24.9 72.8286 25.758 72.8286 26.88C72.8286 28.002 72.0366 28.86 70.9586 28.86ZM81.6252 33.612V21.6H78.1052V37H87.1252V33.612H81.6252ZM95.1426 37.308C99.5646 37.308 103.151 33.832 103.151 29.3C103.151 24.768 99.5646 21.292 95.1426 21.292C90.7206 21.292 87.1346 24.768 87.1346 29.3C87.1346 33.832 90.7206 37.308 95.1426 37.308ZM95.1426 33.876C92.6346 33.876 90.6546 32.05 90.6546 29.3C90.6546 26.55 92.6346 24.724 95.1426 24.724C97.6506 24.724 99.6306 26.55 99.6306 29.3C99.6306 32.05 97.6506 33.876 95.1426 33.876ZM113.229 37H117.013L113.735 31.346C115.428 30.488 116.573 28.772 116.573 26.88C116.573 23.954 114.219 21.6 111.293 21.6H105.133V37H108.653V31.94H110.325L113.229 37ZM108.653 24.9H111.293C112.261 24.9 113.053 25.758 113.053 26.88C113.053 28.002 112.261 28.86 111.293 28.86H108.653V24.9ZM122.188 33.612V30.884H127.688V27.54H122.188V24.988H128.238V21.6H118.668V37H128.348V33.612H122.188ZM151.234 21.6H147.714L143.534 28.442L139.354 21.6H135.834V37H139.354V28.046L143.336 34.58H143.732L147.714 28.046V37H151.234V21.6ZM161.229 37.308C165.651 37.308 169.237 33.832 169.237 29.3C169.237 24.768 165.651 21.292 161.229 21.292C156.807 21.292 153.221 24.768 153.221 29.3C153.221 33.832 156.807 37.308 161.229 37.308ZM161.229 33.876C158.721 33.876 156.741 32.05 156.741 29.3C156.741 26.55 158.721 24.724 161.229 24.724C163.737 24.724 165.717 26.55 165.717 29.3C165.717 32.05 163.737 33.876 161.229 33.876ZM179.314 37H183.098L179.82 31.346C181.514 30.488 182.658 28.772 182.658 26.88C182.658 23.954 180.304 21.6 177.378 21.6H171.218V37H174.738V31.94H176.41L179.314 37ZM174.738 24.9H177.378C178.346 24.9 179.138 25.758 179.138 26.88C179.138 28.002 178.346 28.86 177.378 28.86H174.738V24.9ZM188.274 33.612V30.884H193.774V27.54H188.274V24.988H194.324V21.6H184.754V37H194.434V33.612H188.274Z" fill="#749723"/>
<rect x="5.5" y="5.5" width="223" height="48" rx="6.5" stroke="#749723" stroke-width="3"/>
</g>
<defs>
<filter id="filter0_d_1936_5661" x="0" y="0" width="234" height="59" filterUnits="userSpaceOnUse" color-interpolation-filters="sRGB">
<feFlood flood-opacity="0" result="BackgroundImageFix"/>
<feColorMatrix in="SourceAlpha" type="matrix" values="0 0 0 0 0 0 0 0 0 0 0 0 0 0 0 0 0 0 127 0" result="hardAlpha"/>
<feOffset/>
<feGaussianBlur stdDeviation="2"/>
<feComposite in2="hardAlpha" operator="out"/>
<feColorMatrix type="matrix" values="0 0 0 0 0 0 0 0 0 0 0 0 0 0 0 0 0 0 0.25 0"/>
<feBlend mode="normal" in2="BackgroundImageFix" result="effect1_dropShadow_1936_5661"/>
<feBlend mode="normal" in="SourceGraphic" in2="effect1_dropShadow_1936_5661" result="shape"/>
</filter>
</defs>
</svg>
