<svg width="272" height="190" viewBox="0 0 272 190" fill="none" xmlns="http://www.w3.org/2000/svg">
<g filter="url(#filter0_d_228_2229)">
<rect x="6" y="6" width="252" height="170" rx="5" fill="#9BBF7F"/>
</g>
<g filter="url(#filter1_d_228_2229)">
<rect x="6" y="6" width="252" height="170" rx="5" fill="white"/>
</g>
<path d="M80.8578 79.242C85.3018 79.242 88.7998 75.7 88.7998 71.3C88.7998 66.9 85.3018 63.358 80.8578 63.358C76.4138 63.358 72.9158 66.9 72.9158 71.3C72.9158 75.7 76.4138 79.242 80.8578 79.242ZM80.8578 78.12C77.0518 78.12 74.0818 75.084 74.0818 71.3C74.0818 67.516 77.0518 64.48 80.8578 64.48C84.6638 64.48 87.6338 67.516 87.6338 71.3C87.6338 75.084 84.6638 78.12 80.8578 78.12ZM99.5212 68V73.808C99.5212 76.778 97.8272 78.186 95.6712 78.186C93.6032 78.186 92.4372 76.866 92.4372 74.842V68H91.3152V74.842C91.3152 77.504 92.9652 79.242 95.5832 79.242C97.2772 79.242 98.6852 78.538 99.5212 76.91V79H100.621V68H99.5212ZM105.119 70.156V68H104.019V79H105.119V72.884C105.119 70.068 106.901 68.902 108.793 68.902V67.846C107.297 67.846 105.867 68.418 105.119 70.156ZM126.59 63.6V70.552C125.688 68.858 123.994 67.758 121.86 67.758C118.714 67.758 116.162 70.244 116.162 73.5C116.162 76.756 118.714 79.242 121.86 79.242C123.994 79.242 125.688 78.142 126.59 76.448V79H127.69V63.6H126.59ZM121.926 78.186C119.308 78.186 117.262 76.118 117.262 73.5C117.262 70.882 119.308 68.814 121.926 68.814C124.544 68.814 126.59 70.882 126.59 73.5C126.59 76.118 124.544 78.186 121.926 78.186ZM136.018 67.758C132.652 67.758 130.32 70.266 130.32 73.5C130.32 76.822 132.718 79.242 136.106 79.242C138.284 79.242 140 78.252 140.902 76.756L139.934 76.184C139.296 77.35 137.932 78.186 136.128 78.186C133.62 78.186 131.728 76.558 131.464 74.072H141.43C141.43 73.896 141.452 73.72 141.452 73.544C141.452 70.53 139.362 67.758 136.018 67.758ZM136.018 68.814C138.174 68.814 140.066 70.31 140.308 72.994H131.464C131.684 70.552 133.51 68.814 136.018 68.814ZM144.341 70.882C144.341 69.562 145.551 68.814 146.981 68.814C148.191 68.814 149.335 69.342 149.797 70.486L150.721 69.958C150.127 68.616 148.763 67.758 146.981 67.758C144.737 67.758 143.241 69.144 143.241 70.882C143.241 74.842 149.907 73.126 149.907 76.118C149.907 77.504 148.609 78.186 147.069 78.186C145.419 78.186 144.231 77.438 143.835 76.25L142.889 76.8C143.417 78.208 144.869 79.242 147.069 79.242C149.423 79.242 151.007 77.922 151.007 76.118C151.007 72.092 144.341 73.83 144.341 70.882ZM154.112 65.338C154.596 65.338 154.992 64.942 154.992 64.458C154.992 63.996 154.596 63.6 154.112 63.6C153.628 63.6 153.232 63.996 153.232 64.458C153.232 64.942 153.628 65.338 154.112 65.338ZM153.562 79H154.662V68H153.562V79ZM167.82 68V70.552C166.918 68.858 165.224 67.758 163.09 67.758C159.944 67.758 157.392 70.244 157.392 73.5C157.392 76.756 159.944 79.242 163.09 79.242C165.224 79.242 166.918 78.142 167.82 76.448V78.472C167.82 80.98 166.192 82.586 163.442 82.586C161.022 82.586 159.79 81.618 159.218 80.452L158.25 81.002C159.042 82.608 160.868 83.642 163.442 83.642C166.478 83.642 168.92 81.772 168.92 78.472V68H167.82ZM163.156 78.186C160.538 78.186 158.492 76.118 158.492 73.5C158.492 70.882 160.538 68.814 163.156 68.814C165.774 68.814 167.82 70.882 167.82 73.5C167.82 76.118 165.774 78.186 163.156 78.186ZM177.356 67.758C175.662 67.758 174.254 68.462 173.418 70.09V68H172.318V79H173.418V73.192C173.418 70.222 175.112 68.814 177.268 68.814C179.336 68.814 180.502 70.134 180.502 72.158V79H181.624V72.158C181.624 69.496 179.974 67.758 177.356 67.758ZM185.484 70.882C185.484 69.562 186.694 68.814 188.124 68.814C189.334 68.814 190.478 69.342 190.94 70.486L191.864 69.958C191.27 68.616 189.906 67.758 188.124 67.758C185.88 67.758 184.384 69.144 184.384 70.882C184.384 74.842 191.05 73.126 191.05 76.118C191.05 77.504 189.752 78.186 188.212 78.186C186.562 78.186 185.374 77.438 184.978 76.25L184.032 76.8C184.56 78.208 186.012 79.242 188.212 79.242C190.566 79.242 192.15 77.922 192.15 76.118C192.15 72.092 185.484 73.83 185.484 70.882ZM96.3506 93V95.486C95.4266 93.836 93.7326 92.758 91.6206 92.758C88.4966 92.758 85.9226 95.244 85.9226 98.5C85.9226 101.756 88.4966 104.242 91.6206 104.242C93.7326 104.242 95.4266 103.164 96.3506 101.514V104H97.4726V93H96.3506ZM91.7086 103.186C89.0906 103.186 87.0446 101.118 87.0446 98.5C87.0446 95.882 89.0906 93.814 91.7086 93.814C94.3266 93.814 96.3506 95.882 96.3506 98.5C96.3506 101.118 94.3266 103.186 91.7086 103.186ZM101.95 95.156V93H100.85V104H101.95V97.884C101.95 95.068 103.732 93.902 105.624 93.902V92.846C104.128 92.846 102.698 93.418 101.95 95.156ZM112.138 92.758C108.772 92.758 106.44 95.266 106.44 98.5C106.44 101.822 108.838 104.242 112.226 104.242C114.404 104.242 116.12 103.252 117.022 101.756L116.054 101.184C115.416 102.35 114.052 103.186 112.248 103.186C109.74 103.186 107.848 101.558 107.584 99.072H117.55C117.55 98.896 117.572 98.72 117.572 98.544C117.572 95.53 115.482 92.758 112.138 92.758ZM112.138 93.814C114.294 93.814 116.186 95.31 116.428 97.994H107.584C107.804 95.552 109.63 93.814 112.138 93.814ZM131.046 92.758C129.352 92.758 127.944 93.462 127.108 95.09V93H126.008V104H127.108V98.192C127.108 95.222 128.802 93.814 130.958 93.814C133.026 93.814 134.192 95.134 134.192 97.158V104H135.314V97.158C135.314 94.496 133.664 92.758 131.046 92.758ZM143.376 92.758C140.01 92.758 137.678 95.266 137.678 98.5C137.678 101.822 140.076 104.242 143.464 104.242C145.642 104.242 147.358 103.252 148.26 101.756L147.292 101.184C146.654 102.35 145.29 103.186 143.486 103.186C140.978 103.186 139.086 101.558 138.822 99.072H148.788C148.788 98.896 148.81 98.72 148.81 98.544C148.81 95.53 146.72 92.758 143.376 92.758ZM143.376 93.814C145.532 93.814 147.424 95.31 147.666 97.994H138.822C139.042 95.552 140.868 93.814 143.376 93.814ZM159.026 93L154.868 102.856L150.732 93H149.544L154.208 104H155.55L160.192 93H159.026ZM166.708 92.758C163.342 92.758 161.01 95.266 161.01 98.5C161.01 101.822 163.408 104.242 166.796 104.242C168.974 104.242 170.69 103.252 171.592 101.756L170.624 101.184C169.986 102.35 168.622 103.186 166.818 103.186C164.31 103.186 162.418 101.558 162.154 99.072H172.12C172.12 98.896 172.142 98.72 172.142 98.544C172.142 95.53 170.052 92.758 166.708 92.758ZM166.708 93.814C168.864 93.814 170.756 95.31 170.998 97.994H162.154C162.374 95.552 164.2 93.814 166.708 93.814ZM175.814 95.156V93H174.714V104H175.814V97.884C175.814 95.068 177.596 93.902 179.488 93.902V92.846C177.992 92.846 176.562 93.418 175.814 95.156ZM74.159 119.078V118H70.881V114.92L69.759 115.25V118H67.339V119.078H69.759V126.228C69.759 128.736 71.277 129.44 74.159 129V128.01C71.915 128.208 70.881 128.164 70.881 126.228V119.078H74.159ZM81.8365 117.758C80.1425 117.758 78.7345 118.462 77.8985 120.09V113.6H76.7985V129H77.8985V123.192C77.8985 120.222 79.5925 118.814 81.7485 118.814C83.8165 118.814 84.9825 120.134 84.9825 122.158V129H86.1045V122.158C86.1045 119.496 84.4545 117.758 81.8365 117.758ZM90.3165 120.156V118H89.2165V129H90.3165V122.884C90.3165 120.068 92.0985 118.902 93.9905 118.902V117.846C92.4945 117.846 91.0645 118.418 90.3165 120.156ZM100.592 129.242C103.782 129.242 106.356 126.756 106.356 123.5C106.356 120.244 103.782 117.758 100.592 117.758C97.3804 117.758 94.8064 120.244 94.8064 123.5C94.8064 126.756 97.3804 129.242 100.592 129.242ZM100.592 128.186C97.9744 128.186 95.9284 126.118 95.9284 123.5C95.9284 120.882 97.9744 118.814 100.592 118.814C103.21 118.814 105.234 120.882 105.234 123.5C105.234 126.118 103.21 128.186 100.592 128.186ZM121.928 118L119.002 127.57L115.922 118H114.778L111.698 127.57L108.772 118H107.606L111.082 129H112.292L115.35 119.628L118.408 129H119.618L123.094 118H121.928ZM130.542 117.758C128.848 117.758 127.44 118.462 126.604 120.09V118H125.504V129H126.604V123.192C126.604 120.222 128.298 118.814 130.454 118.814C132.522 118.814 133.688 120.134 133.688 122.158V129H134.81V122.158C134.81 119.496 133.16 117.758 130.542 117.758ZM153.467 118V120.486C152.543 118.836 150.849 117.758 148.737 117.758C145.613 117.758 143.039 120.244 143.039 123.5C143.039 126.756 145.613 129.242 148.737 129.242C150.849 129.242 152.543 128.164 153.467 126.514V129H154.589V118H153.467ZM148.825 128.186C146.207 128.186 144.161 126.118 144.161 123.5C144.161 120.882 146.207 118.814 148.825 118.814C151.443 118.814 153.467 120.882 153.467 123.5C153.467 126.118 151.443 128.186 148.825 128.186ZM171.32 118L168.394 127.57L165.314 118H164.17L161.09 127.57L158.164 118H156.998L160.474 129H161.684L164.742 119.628L167.8 129H169.01L172.486 118H171.32ZM184.146 118V120.486C183.222 118.836 181.528 117.758 179.416 117.758C176.292 117.758 173.718 120.244 173.718 123.5C173.718 126.756 176.292 129.242 179.416 129.242C181.528 129.242 183.222 128.164 184.146 126.514V129H185.268V118H184.146ZM179.504 128.186C176.886 128.186 174.84 126.118 174.84 123.5C174.84 120.882 176.886 118.814 179.504 118.814C182.122 118.814 184.146 120.882 184.146 123.5C184.146 126.118 182.122 128.186 179.504 128.186ZM196.698 118L192.87 127.79L188.426 118H187.238L192.298 129.198L192.056 129.792C191.374 131.398 190.252 132.498 188.778 132.366V133.4C190.67 133.554 192.298 132.124 193.134 130.012L197.886 118H196.698Z" fill="black"/>
<path d="M123.502 34.64H115.078V38H119.566C118.966 39.608 117.502 40.592 115.27 40.592C112.006 40.592 109.99 38.504 109.99 35.648C109.99 32.696 112.102 30.608 114.934 30.608C116.83 30.608 118.342 31.472 119.038 32.576L122.302 30.704C120.886 28.448 118.174 26.864 114.958 26.864C110.014 26.864 106.15 30.752 106.15 35.624C106.15 40.448 109.942 44.336 115.222 44.336C119.926 44.336 123.502 41.216 123.502 36.08V34.64ZM131.307 44.336C134.835 44.336 137.667 41.576 137.667 38C137.667 34.424 134.835 31.664 131.307 31.664C127.779 31.664 124.947 34.424 124.947 38C124.947 41.576 127.779 44.336 131.307 44.336ZM131.307 40.832C129.747 40.832 128.547 39.704 128.547 38C128.547 36.296 129.747 35.168 131.307 35.168C132.867 35.168 134.067 36.296 134.067 38C134.067 39.704 132.867 40.832 131.307 40.832ZM148.415 32V33.128C147.623 32.216 146.447 31.664 144.839 31.664C141.695 31.664 139.103 34.424 139.103 38C139.103 41.576 141.695 44.336 144.839 44.336C146.447 44.336 147.623 43.784 148.415 42.872V44H152.015V32H148.415ZM145.559 40.928C143.903 40.928 142.703 39.8 142.703 38C142.703 36.2 143.903 35.072 145.559 35.072C147.215 35.072 148.415 36.2 148.415 38C148.415 39.8 147.215 40.928 145.559 40.928ZM154.656 44H158.256V26.48H154.656V44Z" fill="black"/>
<defs>
<filter id="filter0_d_228_2229" x="2" y="6" width="260" height="178" filterUnits="userSpaceOnUse" color-interpolation-filters="sRGB">
<feFlood flood-opacity="0" result="BackgroundImageFix"/>
<feColorMatrix in="SourceAlpha" type="matrix" values="0 0 0 0 0 0 0 0 0 0 0 0 0 0 0 0 0 0 127 0" result="hardAlpha"/>
<feOffset dy="4"/>
<feGaussianBlur stdDeviation="2"/>
<feComposite in2="hardAlpha" operator="out"/>
<feColorMatrix type="matrix" values="0 0 0 0 0 0 0 0 0 0 0 0 0 0 0 0 0 0 0.25 0"/>
<feBlend mode="normal" in2="BackgroundImageFix" result="effect1_dropShadow_228_2229"/>
<feBlend mode="normal" in="SourceGraphic" in2="effect1_dropShadow_228_2229" result="shape"/>
</filter>
<filter id="filter1_d_228_2229" x="0" y="0" width="272" height="190" filterUnits="userSpaceOnUse" color-interpolation-filters="sRGB">
<feFlood flood-opacity="0" result="BackgroundImageFix"/>
<feColorMatrix in="SourceAlpha" type="matrix" values="0 0 0 0 0 0 0 0 0 0 0 0 0 0 0 0 0 0 127 0" result="hardAlpha"/>
<feOffset dx="4" dy="4"/>
<feGaussianBlur stdDeviation="5"/>
<feComposite in2="hardAlpha" operator="out"/>
<feColorMatrix type="matrix" values="0 0 0 0 0.607843 0 0 0 0 0.74902 0 0 0 0 0.498039 0 0 0 1 0"/>
<feBlend mode="normal" in2="BackgroundImageFix" result="effect1_dropShadow_228_2229"/>
<feBlend mode="normal" in="SourceGraphic" in2="effect1_dropShadow_228_2229" result="shape"/>
</filter>
</defs>
</svg>
