<svg width="272" height="190" viewBox="0 0 272 190" fill="none" xmlns="http://www.w3.org/2000/svg">
<g filter="url(#filter0_d_288_2190)">
<rect x="6" y="6" width="252" height="170" rx="5" fill="#9BBF7F"/>
</g>
<g filter="url(#filter1_d_288_2190)">
<rect x="6" y="6" width="252" height="170" rx="5" fill="white"/>
</g>
<path d="M67.6717 77.22C71.7117 77.22 74.8917 74 74.8917 70C74.8917 66 71.7117 62.78 67.6717 62.78C63.6317 62.78 60.4517 66 60.4517 70C60.4517 74 63.6317 77.22 67.6717 77.22ZM67.6717 76.2C64.2117 76.2 61.5117 73.44 61.5117 70C61.5117 66.56 64.2117 63.8 67.6717 63.8C71.1317 63.8 73.8317 66.56 73.8317 70C73.8317 73.44 71.1317 76.2 67.6717 76.2ZM84.6384 67V72.28C84.6384 74.98 83.0984 76.26 81.1384 76.26C79.2584 76.26 78.1984 75.06 78.1984 73.22V67H77.1784V73.22C77.1784 75.64 78.6784 77.22 81.0584 77.22C82.5984 77.22 83.8784 76.58 84.6384 75.1V77H85.6384V67H84.6384ZM89.7275 68.96V67H88.7275V77H89.7275V71.44C89.7275 68.88 91.3475 67.82 93.0675 67.82V66.86C91.7075 66.86 90.4075 67.38 89.7275 68.96ZM109.247 63V69.32C108.427 67.78 106.887 66.78 104.947 66.78C102.087 66.78 99.7667 69.04 99.7667 72C99.7667 74.96 102.087 77.22 104.947 77.22C106.887 77.22 108.427 76.22 109.247 74.68V77H110.247V63H109.247ZM105.007 76.26C102.627 76.26 100.767 74.38 100.767 72C100.767 69.62 102.627 67.74 105.007 67.74C107.387 67.74 109.247 69.62 109.247 72C109.247 74.38 107.387 76.26 105.007 76.26ZM117.817 66.78C114.757 66.78 112.637 69.06 112.637 72C112.637 75.02 114.817 77.22 117.897 77.22C119.877 77.22 121.437 76.32 122.257 74.96L121.377 74.44C120.797 75.5 119.557 76.26 117.917 76.26C115.637 76.26 113.917 74.78 113.677 72.52H122.737C122.737 72.36 122.757 72.2 122.757 72.04C122.757 69.3 120.857 66.78 117.817 66.78ZM117.817 67.74C119.777 67.74 121.497 69.1 121.717 71.54H113.677C113.877 69.32 115.537 67.74 117.817 67.74ZM125.384 69.62C125.384 68.42 126.484 67.74 127.784 67.74C128.884 67.74 129.924 68.22 130.344 69.26L131.184 68.78C130.644 67.56 129.404 66.78 127.784 66.78C125.744 66.78 124.384 68.04 124.384 69.62C124.384 73.22 130.444 71.66 130.444 74.38C130.444 75.64 129.264 76.26 127.864 76.26C126.364 76.26 125.284 75.58 124.924 74.5L124.064 75C124.544 76.28 125.864 77.22 127.864 77.22C130.004 77.22 131.444 76.02 131.444 74.38C131.444 70.72 125.384 72.3 125.384 69.62ZM134.267 64.58C134.707 64.58 135.067 64.22 135.067 63.78C135.067 63.36 134.707 63 134.267 63C133.827 63 133.467 63.36 133.467 63.78C133.467 64.22 133.827 64.58 134.267 64.58ZM133.767 77H134.767V67H133.767V77ZM146.729 67V69.32C145.909 67.78 144.369 66.78 142.429 66.78C139.569 66.78 137.249 69.04 137.249 72C137.249 74.96 139.569 77.22 142.429 77.22C144.369 77.22 145.909 76.22 146.729 74.68V76.52C146.729 78.8 145.249 80.26 142.749 80.26C140.549 80.26 139.429 79.38 138.909 78.32L138.029 78.82C138.749 80.28 140.409 81.22 142.749 81.22C145.509 81.22 147.729 79.52 147.729 76.52V67H146.729ZM142.489 76.26C140.109 76.26 138.249 74.38 138.249 72C138.249 69.62 140.109 67.74 142.489 67.74C144.869 67.74 146.729 69.62 146.729 72C146.729 74.38 144.869 76.26 142.489 76.26ZM155.397 66.78C153.857 66.78 152.577 67.42 151.817 68.9V67H150.817V77H151.817V71.72C151.817 69.02 153.357 67.74 155.317 67.74C157.197 67.74 158.257 68.94 158.257 70.78V77H159.277V70.78C159.277 68.36 157.777 66.78 155.397 66.78ZM162.786 69.62C162.786 68.42 163.886 67.74 165.186 67.74C166.286 67.74 167.326 68.22 167.746 69.26L168.586 68.78C168.046 67.56 166.806 66.78 165.186 66.78C163.146 66.78 161.786 68.04 161.786 69.62C161.786 73.22 167.846 71.66 167.846 74.38C167.846 75.64 166.666 76.26 165.266 76.26C163.766 76.26 162.686 75.58 162.326 74.5L161.466 75C161.946 76.28 163.266 77.22 165.266 77.22C167.406 77.22 168.846 76.02 168.846 74.38C168.846 70.72 162.786 72.3 162.786 69.62ZM185.399 67V69.26C184.559 67.76 183.019 66.78 181.099 66.78C178.259 66.78 175.919 69.04 175.919 72C175.919 74.96 178.259 77.22 181.099 77.22C183.019 77.22 184.559 76.24 185.399 74.74V77H186.419V67H185.399ZM181.179 76.26C178.799 76.26 176.939 74.38 176.939 72C176.939 69.62 178.799 67.74 181.179 67.74C183.559 67.74 185.399 69.62 185.399 72C185.399 74.38 183.559 76.26 181.179 76.26ZM190.489 68.96V67H189.489V77H190.489V71.44C190.489 68.88 192.109 67.82 193.829 67.82V66.86C192.469 66.86 191.169 67.38 190.489 68.96ZM199.751 66.78C196.691 66.78 194.571 69.06 194.571 72C194.571 75.02 196.751 77.22 199.831 77.22C201.811 77.22 203.371 76.32 204.191 74.96L203.311 74.44C202.731 75.5 201.491 76.26 199.851 76.26C197.571 76.26 195.851 74.78 195.611 72.52H204.671C204.671 72.36 204.691 72.2 204.691 72.04C204.691 69.3 202.791 66.78 199.751 66.78ZM199.751 67.74C201.711 67.74 203.431 69.1 203.651 71.54H195.611C195.811 69.32 197.471 67.74 199.751 67.74ZM79.0888 89.78C77.5488 89.78 76.2688 90.42 75.5088 91.9V90H74.5088V100H75.5088V94.72C75.5088 92.02 77.0488 90.74 79.0088 90.74C80.8888 90.74 81.9488 91.94 81.9488 93.78V100H82.9688V93.78C82.9688 91.36 81.4688 89.78 79.0888 89.78ZM90.2978 89.78C87.2378 89.78 85.1178 92.06 85.1178 95C85.1178 98.02 87.2978 100.22 90.3778 100.22C92.3578 100.22 93.9178 99.32 94.7378 97.96L93.8578 97.44C93.2778 98.5 92.0378 99.26 90.3978 99.26C88.1178 99.26 86.3978 97.78 86.1578 95.52H95.2178C95.2178 95.36 95.2378 95.2 95.2378 95.04C95.2378 92.3 93.3378 89.78 90.2978 89.78ZM90.2978 90.74C92.2578 90.74 93.9778 92.1 94.1978 94.54H86.1578C86.3578 92.32 88.0178 90.74 90.2978 90.74ZM104.525 90L100.745 98.96L96.9845 90H95.9045L100.145 100H101.365L105.585 90H104.525ZM111.509 89.78C108.449 89.78 106.329 92.06 106.329 95C106.329 98.02 108.509 100.22 111.589 100.22C113.569 100.22 115.129 99.32 115.949 97.96L115.069 97.44C114.489 98.5 113.249 99.26 111.609 99.26C109.329 99.26 107.609 97.78 107.369 95.52H116.429C116.429 95.36 116.449 95.2 116.449 95.04C116.449 92.3 114.549 89.78 111.509 89.78ZM111.509 90.74C113.469 90.74 115.189 92.1 115.409 94.54H107.369C107.569 92.32 109.229 90.74 111.509 90.74ZM119.786 91.96V90H118.786V100H119.786V94.44C119.786 91.88 121.406 90.82 123.126 90.82V89.86C121.766 89.86 120.466 90.38 119.786 91.96ZM135.605 90.98V90H132.625V87.2L131.605 87.5V90H129.405V90.98H131.605V97.48C131.605 99.76 132.985 100.4 135.605 100V99.1C133.565 99.28 132.625 99.24 132.625 97.48V90.98H135.605ZM142.585 89.78C141.045 89.78 139.765 90.42 139.005 91.9V86H138.005V100H139.005V94.72C139.005 92.02 140.545 90.74 142.505 90.74C144.385 90.74 145.445 91.94 145.445 93.78V100H146.465V93.78C146.465 91.36 144.965 89.78 142.585 89.78ZM150.294 91.96V90H149.294V100H150.294V94.44C150.294 91.88 151.914 90.82 153.634 90.82V89.86C152.274 89.86 150.974 90.38 150.294 91.96ZM159.636 100.22C162.536 100.22 164.876 97.96 164.876 95C164.876 92.04 162.536 89.78 159.636 89.78C156.716 89.78 154.376 92.04 154.376 95C154.376 97.96 156.716 100.22 159.636 100.22ZM159.636 99.26C157.256 99.26 155.396 97.38 155.396 95C155.396 92.62 157.256 90.74 159.636 90.74C162.016 90.74 163.856 92.62 163.856 95C163.856 97.38 162.016 99.26 159.636 99.26ZM179.032 90L176.372 98.7L173.572 90H172.532L169.732 98.7L167.072 90H166.012L169.172 100H170.272L173.052 91.48L175.832 100H176.932L180.092 90H179.032ZM186.862 89.78C185.322 89.78 184.042 90.42 183.282 91.9V90H182.282V100H183.282V94.72C183.282 92.02 184.822 90.74 186.782 90.74C188.662 90.74 189.722 91.94 189.722 93.78V100H190.742V93.78C190.742 91.36 189.242 89.78 186.862 89.78ZM117.352 113V115.26C116.512 113.76 114.972 112.78 113.052 112.78C110.212 112.78 107.872 115.04 107.872 118C107.872 120.96 110.212 123.22 113.052 123.22C114.972 123.22 116.512 122.24 117.352 120.74V123H118.372V113H117.352ZM113.132 122.26C110.752 122.26 108.892 120.38 108.892 118C108.892 115.62 110.752 113.74 113.132 113.74C115.512 113.74 117.352 115.62 117.352 118C117.352 120.38 115.512 122.26 113.132 122.26ZM133.582 113L130.922 121.7L128.122 113H127.082L124.282 121.7L121.622 113H120.562L123.722 123H124.822L127.602 114.48L130.382 123H131.482L134.642 113H133.582ZM145.242 113V115.26C144.402 113.76 142.862 112.78 140.942 112.78C138.102 112.78 135.762 115.04 135.762 118C135.762 120.96 138.102 123.22 140.942 123.22C142.862 123.22 144.402 122.24 145.242 120.74V123H146.262V113H145.242ZM141.022 122.26C138.642 122.26 136.782 120.38 136.782 118C136.782 115.62 138.642 113.74 141.022 113.74C143.402 113.74 145.242 115.62 145.242 118C145.242 120.38 143.402 122.26 141.022 122.26ZM156.653 113L153.173 121.9L149.133 113H148.053L152.653 123.18L152.433 123.72C151.813 125.18 150.793 126.18 149.453 126.06V127C151.173 127.14 152.653 125.84 153.413 123.92L157.733 113H156.653Z" fill="black"/>
<path d="M123.752 33.42H116.03V36.5H120.144C119.594 37.974 118.252 38.876 116.206 38.876C113.214 38.876 111.366 36.962 111.366 34.344C111.366 31.638 113.302 29.724 115.898 29.724C117.636 29.724 119.022 30.516 119.66 31.528L122.652 29.812C121.354 27.744 118.868 26.292 115.92 26.292C111.388 26.292 107.846 29.856 107.846 34.322C107.846 38.744 111.322 42.308 116.162 42.308C120.474 42.308 123.752 39.448 123.752 34.74V33.42ZM130.906 42.308C134.14 42.308 136.736 39.778 136.736 36.5C136.736 33.222 134.14 30.692 130.906 30.692C127.672 30.692 125.076 33.222 125.076 36.5C125.076 39.778 127.672 42.308 130.906 42.308ZM130.906 39.096C129.476 39.096 128.376 38.062 128.376 36.5C128.376 34.938 129.476 33.904 130.906 33.904C132.336 33.904 133.436 34.938 133.436 36.5C133.436 38.062 132.336 39.096 130.906 39.096ZM146.589 31V32.034C145.863 31.198 144.785 30.692 143.311 30.692C140.429 30.692 138.053 33.222 138.053 36.5C138.053 39.778 140.429 42.308 143.311 42.308C144.785 42.308 145.863 41.802 146.589 40.966V42H149.889V31H146.589ZM143.971 39.184C142.453 39.184 141.353 38.15 141.353 36.5C141.353 34.85 142.453 33.816 143.971 33.816C145.489 33.816 146.589 34.85 146.589 36.5C146.589 38.15 145.489 39.184 143.971 39.184ZM152.31 42H155.61V25.94H152.31V42Z" fill="black"/>
<defs>
<filter id="filter0_d_288_2190" x="2" y="6" width="260" height="178" filterUnits="userSpaceOnUse" color-interpolation-filters="sRGB">
<feFlood flood-opacity="0" result="BackgroundImageFix"/>
<feColorMatrix in="SourceAlpha" type="matrix" values="0 0 0 0 0 0 0 0 0 0 0 0 0 0 0 0 0 0 127 0" result="hardAlpha"/>
<feOffset dy="4"/>
<feGaussianBlur stdDeviation="2"/>
<feComposite in2="hardAlpha" operator="out"/>
<feColorMatrix type="matrix" values="0 0 0 0 0 0 0 0 0 0 0 0 0 0 0 0 0 0 0.25 0"/>
<feBlend mode="normal" in2="BackgroundImageFix" result="effect1_dropShadow_288_2190"/>
<feBlend mode="normal" in="SourceGraphic" in2="effect1_dropShadow_288_2190" result="shape"/>
</filter>
<filter id="filter1_d_288_2190" x="0" y="0" width="272" height="190" filterUnits="userSpaceOnUse" color-interpolation-filters="sRGB">
<feFlood flood-opacity="0" result="BackgroundImageFix"/>
<feColorMatrix in="SourceAlpha" type="matrix" values="0 0 0 0 0 0 0 0 0 0 0 0 0 0 0 0 0 0 127 0" result="hardAlpha"/>
<feOffset dx="4" dy="4"/>
<feGaussianBlur stdDeviation="5"/>
<feComposite in2="hardAlpha" operator="out"/>
<feColorMatrix type="matrix" values="0 0 0 0 0.607843 0 0 0 0 0.74902 0 0 0 0 0.498039 0 0 0 1 0"/>
<feBlend mode="normal" in2="BackgroundImageFix" result="effect1_dropShadow_288_2190"/>
<feBlend mode="normal" in="SourceGraphic" in2="effect1_dropShadow_288_2190" result="shape"/>
</filter>
</defs>
</svg>
