<svg width="459" height="182" viewBox="0 0 459 182" fill="none" xmlns="http://www.w3.org/2000/svg">
<path d="M8.729 67H16.555L21.457 49.241L26.359 67H34.185L42.484 36.9H35.26L30.057 57.97L24.252 36.9H18.662L12.857 57.97L7.654 36.9H0.43L8.729 67ZM48.4815 58.83H63.7465C63.9185 58.013 64.0045 57.153 64.0045 56.25C64.0045 49.757 59.3605 44.898 53.0825 44.898C46.2885 44.898 41.6445 49.843 41.6445 56.25C41.6445 62.657 46.2025 67.602 53.5555 67.602C57.6405 67.602 60.8225 66.097 62.9295 63.173L57.7695 60.206C56.9095 61.152 55.4045 61.84 53.6415 61.84C51.2765 61.84 49.2985 61.066 48.4815 58.83ZM48.3525 54.014C48.9545 51.821 50.5885 50.617 53.0395 50.617C54.9745 50.617 56.9095 51.52 57.5975 54.014H48.3525ZM88.7329 67.602C92.9469 67.602 96.6019 65.409 98.4509 62.055L92.8179 58.83C92.1299 60.335 90.5389 61.238 88.6469 61.238C85.8519 61.238 83.7879 59.217 83.7879 56.25C83.7879 53.283 85.8519 51.262 88.6469 51.262C90.5389 51.262 92.0869 52.165 92.8179 53.67L98.4509 50.402C96.6019 47.091 92.9039 44.898 88.7329 44.898C82.1969 44.898 77.3379 49.843 77.3379 56.25C77.3379 62.657 82.1969 67.602 88.7329 67.602ZM107.707 49.327V45.5H101.257V67H107.707V57.282C107.707 53.025 111.491 51.95 114.157 52.38V45.07C111.448 45.07 108.567 46.446 107.707 49.327ZM122.304 58.83H137.569C137.741 58.013 137.827 57.153 137.827 56.25C137.827 49.757 133.183 44.898 126.905 44.898C120.111 44.898 115.467 49.843 115.467 56.25C115.467 62.657 120.025 67.602 127.378 67.602C131.463 67.602 134.645 66.097 136.752 63.173L131.592 60.206C130.732 61.152 129.227 61.84 127.464 61.84C125.099 61.84 123.121 61.066 122.304 58.83ZM122.175 54.014C122.777 51.821 124.411 50.617 126.862 50.617C128.797 50.617 130.732 51.52 131.42 54.014H122.175ZM156.884 45.5V47.521C155.465 45.887 153.358 44.898 150.477 44.898C144.844 44.898 140.2 49.843 140.2 56.25C140.2 62.657 144.844 67.602 150.477 67.602C153.358 67.602 155.465 66.613 156.884 64.979V67H163.334V45.5H156.884ZM151.767 61.496C148.8 61.496 146.65 59.475 146.65 56.25C146.65 53.025 148.8 51.004 151.767 51.004C154.734 51.004 156.884 53.025 156.884 56.25C156.884 59.475 154.734 61.496 151.767 61.496ZM180.665 51.692V45.5H176.236V39.48L169.786 41.415V45.5H166.346V51.692H169.786V59.303C169.786 65.323 172.237 67.86 180.665 67V61.152C177.827 61.324 176.236 61.152 176.236 59.303V51.692H180.665ZM189.659 58.83H204.924C205.096 58.013 205.182 57.153 205.182 56.25C205.182 49.757 200.538 44.898 194.26 44.898C187.466 44.898 182.822 49.843 182.822 56.25C182.822 62.657 187.38 67.602 194.733 67.602C198.818 67.602 202 66.097 204.107 63.173L198.947 60.206C198.087 61.152 196.582 61.84 194.819 61.84C192.454 61.84 190.476 61.066 189.659 58.83ZM189.53 54.014C190.132 51.821 191.766 50.617 194.217 50.617C196.152 50.617 198.087 51.52 198.775 54.014H189.53ZM235.2 45.5V47.521C233.781 45.887 231.674 44.898 228.793 44.898C223.16 44.898 218.516 49.843 218.516 56.25C218.516 62.657 223.16 67.602 228.793 67.602C231.674 67.602 233.781 66.613 235.2 64.979V67H241.65V45.5H235.2ZM230.083 61.496C227.116 61.496 224.966 59.475 224.966 56.25C224.966 53.025 227.116 51.004 230.083 51.004C233.05 51.004 235.2 53.025 235.2 56.25C235.2 59.475 233.05 61.496 230.083 61.496ZM8.471 104.778C8.471 104.004 9.159 103.574 10.277 103.574C11.696 103.574 12.556 104.348 13.158 105.466L18.662 102.499C16.856 99.446 13.76 97.898 10.277 97.898C5.805 97.898 1.849 100.263 1.849 104.95C1.849 112.389 12.427 111.142 12.427 113.507C12.427 114.367 11.653 114.84 10.105 114.84C8.213 114.84 7.009 113.937 6.45 112.303L0.86 115.485C2.537 118.968 5.805 120.602 10.105 120.602C14.749 120.602 19.049 118.495 19.049 113.55C19.049 105.595 8.471 107.229 8.471 104.778ZM36.1583 98.5V110.239C36.1583 113.292 34.5243 114.668 32.1593 114.668C30.0953 114.668 28.4183 113.421 28.4183 110.755V98.5H21.9683V111.701C21.9683 117.506 25.6663 120.602 30.0093 120.602C32.8473 120.602 34.9973 119.57 36.1583 117.979V120H42.6083V98.5H36.1583ZM53.2347 104.778C53.2347 104.004 53.9227 103.574 55.0407 103.574C56.4597 103.574 57.3197 104.348 57.9217 105.466L63.4257 102.499C61.6197 99.446 58.5237 97.898 55.0407 97.898C50.5687 97.898 46.6127 100.263 46.6127 104.95C46.6127 112.389 57.1907 111.142 57.1907 113.507C57.1907 114.367 56.4167 114.84 54.8687 114.84C52.9767 114.84 51.7727 113.937 51.2137 112.303L45.6237 115.485C47.3007 118.968 50.5687 120.602 54.8687 120.602C59.5127 120.602 63.8127 118.495 63.8127 113.55C63.8127 105.595 53.2347 107.229 53.2347 104.778ZM79.0021 104.692V98.5H74.5731V92.48L68.1231 94.415V98.5H64.6831V104.692H68.1231V112.303C68.1231 118.323 70.5741 120.86 79.0021 120V114.152C76.1641 114.324 74.5731 114.152 74.5731 112.303V104.692H79.0021ZM97.8431 98.5V100.521C96.4241 98.887 94.3171 97.898 91.4361 97.898C85.8031 97.898 81.1591 102.843 81.1591 109.25C81.1591 115.657 85.8031 120.602 91.4361 120.602C94.3171 120.602 96.4241 119.613 97.8431 117.979V120H104.293V98.5H97.8431ZM92.7261 114.496C89.7591 114.496 87.6091 112.475 87.6091 109.25C87.6091 106.025 89.7591 104.004 92.7261 104.004C95.6931 104.004 97.8431 106.025 97.8431 109.25C97.8431 112.475 95.6931 114.496 92.7261 114.496ZM112.25 96.608C114.357 96.608 116.12 94.845 116.12 92.738C116.12 90.631 114.357 88.868 112.25 88.868C110.143 88.868 108.38 90.631 108.38 92.738C108.38 94.845 110.143 96.608 112.25 96.608ZM109.025 120H115.475V98.5H109.025V120ZM132.794 97.898C129.956 97.898 127.806 98.93 126.645 100.521V98.5H120.195V120H126.645V108.261C126.645 105.208 128.279 103.832 130.644 103.832C132.708 103.832 134.385 105.079 134.385 107.745V120H140.835V106.799C140.835 100.994 137.137 97.898 132.794 97.898ZM160.873 98.5V100.521C159.454 98.887 157.347 97.898 154.466 97.898C148.833 97.898 144.189 102.843 144.189 109.25C144.189 115.657 148.833 120.602 154.466 120.602C157.347 120.602 159.454 119.613 160.873 117.979V120H167.323V98.5H160.873ZM155.756 114.496C152.789 114.496 150.639 112.475 150.639 109.25C150.639 106.025 152.789 104.004 155.756 104.004C158.723 104.004 160.873 106.025 160.873 109.25C160.873 112.475 158.723 114.496 155.756 114.496ZM184.912 97.898C182.031 97.898 179.924 98.887 178.505 100.521V89.9H172.055V120H178.505V117.979C179.924 119.613 182.031 120.602 184.912 120.602C190.545 120.602 195.189 115.657 195.189 109.25C195.189 102.843 190.545 97.898 184.912 97.898ZM183.622 114.496C180.655 114.496 178.505 112.475 178.505 109.25C178.505 106.025 180.655 104.004 183.622 104.004C186.589 104.004 188.739 106.025 188.739 109.25C188.739 112.475 186.589 114.496 183.622 114.496ZM198.846 120H205.296V88.61H198.846V120ZM215.778 111.83H231.043C231.215 111.013 231.301 110.153 231.301 109.25C231.301 102.757 226.657 97.898 220.379 97.898C213.585 97.898 208.941 102.843 208.941 109.25C208.941 115.657 213.499 120.602 220.852 120.602C224.937 120.602 228.119 119.097 230.226 116.173L225.066 113.206C224.206 114.152 222.701 114.84 220.938 114.84C218.573 114.84 216.595 114.066 215.778 111.83ZM215.649 107.014C216.251 104.821 217.885 103.617 220.336 103.617C222.271 103.617 224.206 104.52 224.894 107.014H215.649ZM8.471 157.778C8.471 157.004 9.159 156.574 10.277 156.574C11.696 156.574 12.556 157.348 13.158 158.466L18.662 155.499C16.856 152.446 13.76 150.898 10.277 150.898C5.805 150.898 1.849 153.263 1.849 157.95C1.849 165.389 12.427 164.142 12.427 166.507C12.427 167.367 11.653 167.84 10.105 167.84C8.213 167.84 7.009 166.937 6.45 165.303L0.86 168.485C2.537 171.968 5.805 173.602 10.105 173.602C14.749 173.602 19.049 171.495 19.049 166.55C19.049 158.595 8.471 160.229 8.471 157.778ZM32.3793 173.602C38.7003 173.602 43.7743 168.657 43.7743 162.25C43.7743 155.843 38.7003 150.898 32.3793 150.898C26.0583 150.898 20.9843 155.843 20.9843 162.25C20.9843 168.657 26.0583 173.602 32.3793 173.602ZM32.3793 167.324C29.5843 167.324 27.4343 165.303 27.4343 162.25C27.4343 159.197 29.5843 157.176 32.3793 157.176C35.1743 157.176 37.3243 159.197 37.3243 162.25C37.3243 165.303 35.1743 167.324 32.3793 167.324ZM57.7426 173.602C61.9566 173.602 65.6116 171.409 67.4606 168.055L61.8276 164.83C61.1396 166.335 59.5486 167.238 57.6566 167.238C54.8616 167.238 52.7976 165.217 52.7976 162.25C52.7976 159.283 54.8616 157.262 57.6566 157.262C59.5486 157.262 61.0966 158.165 61.8276 159.67L67.4606 156.402C65.6116 153.091 61.9136 150.898 57.7426 150.898C51.2066 150.898 46.3476 155.843 46.3476 162.25C46.3476 168.657 51.2066 173.602 57.7426 173.602ZM73.2814 149.608C75.3884 149.608 77.1514 147.845 77.1514 145.738C77.1514 143.631 75.3884 141.868 73.2814 141.868C71.1744 141.868 69.4114 143.631 69.4114 145.738C69.4114 147.845 71.1744 149.608 73.2814 149.608ZM70.0564 173H76.5064V151.5H70.0564V173ZM86.9883 164.83H102.253C102.425 164.013 102.511 163.153 102.511 162.25C102.511 155.757 97.8673 150.898 91.5893 150.898C84.7953 150.898 80.1513 155.843 80.1513 162.25C80.1513 168.657 84.7093 173.602 92.0623 173.602C96.1473 173.602 99.3293 172.097 101.436 169.173L96.2763 166.206C95.4163 167.152 93.9113 167.84 92.1483 167.84C89.7833 167.84 87.8053 167.066 86.9883 164.83ZM86.8593 160.014C87.4613 157.821 89.0953 156.617 91.5463 156.617C93.4813 156.617 95.4163 157.52 96.1043 160.014H86.8593ZM118.139 157.692V151.5H113.71V145.48L107.26 147.415V151.5H103.82V157.692H107.26V165.303C107.26 171.323 109.711 173.86 118.139 173V167.152C115.301 167.324 113.71 167.152 113.71 165.303V157.692H118.139ZM135.756 151.5L131.714 164.658L126.941 151.5H119.846L128.403 172.011C127.457 174.634 126.038 175.58 123.028 175.58V181.6C129.048 181.901 132.875 179.192 135.283 172.355L142.636 151.5H135.756Z" fill="black"/>
<path d="M15.2 5H12L8.2 11.22L4.4 5H1.2V19H4.4V10.86L8.02 16.8H8.38L12 10.86V19H15.2V5ZM30.9062 19H34.4062L29.6463 5H25.5662L20.8062 19H24.3062L25.0062 16.8H30.2063L30.9062 19ZM25.9662 13.8L27.6062 8.66L29.2463 13.8H25.9662ZM47.36 19H50.8L47.82 13.86C49.36 13.08 50.4 11.52 50.4 9.8C50.4 7.14 48.26 5 45.6 5H40V19H43.2V14.4H44.72L47.36 19ZM43.2 8H45.6C46.48 8 47.2 8.78 47.2 9.8C47.2 10.82 46.48 11.6 45.6 11.6H43.2V8ZM56.7047 5V19H59.9047V5H56.7047ZM80.7102 5H77.5102L73.7102 11.22L69.9102 5H66.7102V19H69.9102V10.86L73.5302 16.8H73.8902L77.5102 10.86V19H80.7102V5ZM90.7164 15.92V13.44H95.7164V10.4H90.7164V8.08H96.2164V5H87.5164V19H96.3164V15.92H90.7164ZM113.842 19L108.922 11.82L113.642 5H110.002L105.722 11.08V5H102.522V19H105.722V12.52L110.202 19H113.842ZM130.761 19L125.841 11.82L130.561 5H126.921L122.641 11.08V5H119.441V19H122.641V12.52L127.121 19H130.761ZM141.85 19.28C145.87 19.28 149.13 16.12 149.13 12C149.13 7.88 145.87 4.72 141.85 4.72C137.83 4.72 134.57 7.88 134.57 12C134.57 16.12 137.83 19.28 141.85 19.28ZM141.85 16.16C139.57 16.16 137.77 14.5 137.77 12C137.77 9.5 139.57 7.84 141.85 7.84C144.13 7.84 145.93 9.5 145.93 12C145.93 14.5 144.13 16.16 141.85 16.16ZM171.411 19.28C173.971 19.28 176.211 18.02 177.411 16.04L174.651 14.44C174.051 15.52 172.831 16.16 171.411 16.16C168.931 16.16 167.331 14.5 167.331 12C167.331 9.5 168.931 7.84 171.411 7.84C172.831 7.84 174.031 8.48 174.651 9.56L177.411 7.96C176.191 5.98 173.951 4.72 171.411 4.72C167.191 4.72 164.131 7.88 164.131 12C164.131 16.12 167.191 19.28 171.411 19.28ZM189.796 19.28C193.816 19.28 197.076 16.12 197.076 12C197.076 7.88 193.816 4.72 189.796 4.72C185.776 4.72 182.516 7.88 182.516 12C182.516 16.12 185.776 19.28 189.796 19.28ZM189.796 16.16C187.516 16.16 185.716 14.5 185.716 12C185.716 9.5 187.516 7.84 189.796 7.84C192.076 7.84 193.876 9.5 193.876 12C193.876 14.5 192.076 16.16 189.796 16.16ZM217.277 5H214.077L210.277 11.22L206.477 5H203.277V19H206.477V10.86L210.097 16.8H210.457L214.077 10.86V19H217.277V5ZM238.084 5H234.884L231.084 11.22L227.284 5H224.084V19H227.284V10.86L230.904 16.8H231.264L234.884 10.86V19H238.084V5ZM250.19 19.28C253.27 19.28 255.59 17.48 255.59 14.48V5H252.39V14.2C252.39 15.26 251.89 16.16 250.19 16.16C248.49 16.16 247.99 15.26 247.99 14.2V5H244.79V14.48C244.79 17.48 247.11 19.28 250.19 19.28ZM270.098 5V12.6L264.698 5H262.298V19H265.498V11.4L270.898 19H273.298V5H270.098ZM280.096 5V19H283.296V5H280.096ZM299.502 5H289.102V8.08H292.702V19H295.902V8.08H299.502V5ZM316.702 5H313.062L310.402 10.4L307.742 5H304.102L308.802 13.62V19H312.002V13.62L316.702 5ZM340.38 11.74C341.14 11.08 341.6 10.16 341.6 9C341.6 6.58 339.62 5 337.18 5H331.7V19H337.58C340.08 19 342.1 17.38 342.1 14.9C342.1 13.48 341.42 12.4 340.38 11.74ZM337.18 8C337.92 8 338.4 8.52 338.4 9.24C338.4 9.96 337.9 10.48 337.18 10.48H334.9V8H337.18ZM337.58 16H334.9V13.32H337.58C338.38 13.32 338.9 13.88 338.9 14.66C338.9 15.44 338.38 16 337.58 16ZM354.772 19.28C358.792 19.28 362.052 16.12 362.052 12C362.052 7.88 358.792 4.72 354.772 4.72C350.752 4.72 347.492 7.88 347.492 12C347.492 16.12 350.752 19.28 354.772 19.28ZM354.772 16.16C352.492 16.16 350.692 14.5 350.692 12C350.692 9.5 352.492 7.84 354.772 7.84C357.052 7.84 358.852 9.5 358.852 12C358.852 14.5 357.052 16.16 354.772 16.16ZM374.934 19.28C378.954 19.28 382.214 16.12 382.214 12C382.214 7.88 378.954 4.72 374.934 4.72C370.914 4.72 367.654 7.88 367.654 12C367.654 16.12 370.914 19.28 374.934 19.28ZM374.934 16.16C372.654 16.16 370.854 14.5 370.854 12C370.854 9.5 372.654 7.84 374.934 7.84C377.214 7.84 379.014 9.5 379.014 12C379.014 14.5 377.214 16.16 374.934 16.16ZM392.808 19.28C395.848 19.28 398.008 17.68 398.008 14.98C398.008 12.02 395.628 11.28 393.508 10.64C391.328 9.98 390.988 9.54 390.988 8.9C390.988 8.34 391.488 7.84 392.488 7.84C393.768 7.84 394.428 8.46 394.908 9.46L397.608 7.88C396.588 5.82 394.788 4.72 392.488 4.72C390.068 4.72 387.788 6.28 387.788 8.98C387.788 11.66 389.828 12.66 391.908 13.24C394.008 13.82 394.808 14.16 394.808 15.02C394.808 15.56 394.428 16.16 392.908 16.16C391.328 16.16 390.468 15.38 389.968 14.22L387.208 15.82C387.988 17.88 389.868 19.28 392.808 19.28ZM412.899 5H402.499V8.08H406.099V19H409.299V8.08H412.899V5ZM421.9 15.92V13.44H426.9V10.4H421.9V8.08H427.4V5H418.7V19H427.5V15.92H421.9ZM441.065 19H444.505L441.525 13.86C443.065 13.08 444.105 11.52 444.105 9.8C444.105 7.14 441.965 5 439.305 5H433.705V19H436.905V14.4H438.425L441.065 19ZM436.905 8H439.305C440.185 8 440.905 8.78 440.905 9.8C440.905 10.82 440.185 11.6 439.305 11.6H436.905V8Z" fill="#666666"/>
</svg>
