<svg width="272" height="190" viewBox="0 0 272 190" fill="none" xmlns="http://www.w3.org/2000/svg">
<g filter="url(#filter0_d_228_2230)">
<rect x="6" y="6" width="252" height="170" rx="5" fill="#9BBF7F"/>
</g>
<g filter="url(#filter1_d_228_2230)">
<rect x="6" y="6" width="252" height="170" rx="5" fill="white"/>
</g>
<path d="M72.4833 63.6V79H73.6493V63.6H72.4833ZM82.2857 67.758C80.5917 67.758 79.1837 68.462 78.3477 70.09V68H77.2477V79H78.3477V73.192C78.3477 70.222 80.0417 68.814 82.1977 68.814C84.2657 68.814 85.4317 70.134 85.4317 72.158V79H86.5537V72.158C86.5537 69.496 84.9037 67.758 82.2857 67.758ZM95.2977 69.078V68H92.0197V64.92L90.8977 65.25V68H88.4777V69.078H90.8977V76.228C90.8977 78.736 92.4157 79.44 95.2977 79V78.01C93.0537 78.208 92.0197 78.164 92.0197 76.228V69.078H95.2977ZM102.221 67.758C98.8551 67.758 96.5231 70.266 96.5231 73.5C96.5231 76.822 98.9211 79.242 102.309 79.242C104.487 79.242 106.203 78.252 107.105 76.756L106.137 76.184C105.499 77.35 104.135 78.186 102.331 78.186C99.8231 78.186 97.9311 76.558 97.6671 74.072H107.633C107.633 73.896 107.655 73.72 107.655 73.544C107.655 70.53 105.565 67.758 102.221 67.758ZM102.221 68.814C104.377 68.814 106.269 70.31 106.511 72.994H97.6671C97.8871 70.552 99.7131 68.814 102.221 68.814ZM111.326 70.156V68H110.226V79H111.326V72.884C111.326 70.068 113.108 68.902 115 68.902V67.846C113.504 67.846 112.074 68.418 111.326 70.156ZM126.244 68V70.486C125.32 68.836 123.626 67.758 121.514 67.758C118.39 67.758 115.816 70.244 115.816 73.5C115.816 76.756 118.39 79.242 121.514 79.242C123.626 79.242 125.32 78.164 126.244 76.514V79H127.366V68H126.244ZM121.602 78.186C118.984 78.186 116.938 76.118 116.938 73.5C116.938 70.882 118.984 68.814 121.602 68.814C124.22 68.814 126.244 70.882 126.244 73.5C126.244 76.118 124.22 78.186 121.602 78.186ZM135.782 79.242C137.938 79.242 139.786 78.142 140.666 76.448L139.742 75.898C139.016 77.262 137.564 78.186 135.782 78.186C133.12 78.186 131.118 76.118 131.118 73.5C131.118 70.882 133.12 68.814 135.782 68.814C137.542 68.814 139.038 69.716 139.676 71.102L140.578 70.574C139.786 68.858 137.938 67.758 135.782 67.758C132.46 67.758 129.996 70.244 129.996 73.5C129.996 76.756 132.46 79.242 135.782 79.242ZM148.708 69.078V68H145.43V64.92L144.308 65.25V68H141.888V69.078H144.308V76.228C144.308 78.736 145.826 79.44 148.708 79V78.01C146.464 78.208 145.43 78.164 145.43 76.228V69.078H148.708ZM166.893 68V70.486C165.969 68.836 164.275 67.758 162.163 67.758C159.039 67.758 156.465 70.244 156.465 73.5C156.465 76.756 159.039 79.242 162.163 79.242C164.275 79.242 165.969 78.164 166.893 76.514V79H168.015V68H166.893ZM162.251 78.186C159.633 78.186 157.587 76.118 157.587 73.5C157.587 70.882 159.633 68.814 162.251 68.814C164.869 68.814 166.893 70.882 166.893 73.5C166.893 76.118 164.869 78.186 162.251 78.186ZM176.43 67.758C174.736 67.758 173.328 68.462 172.492 70.09V68H171.392V79H172.492V73.192C172.492 70.222 174.186 68.814 176.342 68.814C178.41 68.814 179.576 70.134 179.576 72.158V79H180.698V72.158C180.698 69.496 179.048 67.758 176.43 67.758ZM193.512 63.6V70.552C192.61 68.858 190.916 67.758 188.782 67.758C185.636 67.758 183.084 70.244 183.084 73.5C183.084 76.756 185.636 79.242 188.782 79.242C190.916 79.242 192.61 78.142 193.512 76.448V79H194.612V63.6H193.512ZM188.848 78.186C186.23 78.186 184.184 76.118 184.184 73.5C184.184 70.882 186.23 68.814 188.848 68.814C191.466 68.814 193.512 70.882 193.512 73.5C193.512 76.118 191.466 78.186 188.848 78.186ZM86.3657 92.758C82.9997 92.758 80.6677 95.266 80.6677 98.5C80.6677 101.822 83.0657 104.242 86.4537 104.242C88.6317 104.242 90.3477 103.252 91.2497 101.756L90.2817 101.184C89.6437 102.35 88.2797 103.186 86.4757 103.186C83.9677 103.186 82.0757 101.558 81.8117 99.072H91.7777C91.7777 98.896 91.7997 98.72 91.7997 98.544C91.7997 95.53 89.7097 92.758 86.3657 92.758ZM86.3657 93.814C88.5217 93.814 90.4137 95.31 90.6557 97.994H81.8117C82.0317 95.552 83.8577 93.814 86.3657 93.814ZM102.873 104L98.4951 98.324L102.609 93H101.289L97.8131 97.466L94.3591 93H93.0171L97.1531 98.346L92.7531 104H94.0951L97.8131 99.204L101.531 104H102.873ZM109.442 104.242C111.598 104.242 113.446 103.142 114.326 101.448L113.402 100.898C112.676 102.262 111.224 103.186 109.442 103.186C106.78 103.186 104.778 101.118 104.778 98.5C104.778 95.882 106.78 93.814 109.442 93.814C111.202 93.814 112.698 94.716 113.336 96.102L114.238 95.574C113.446 93.858 111.598 92.758 109.442 92.758C106.12 92.758 103.656 95.244 103.656 98.5C103.656 101.756 106.12 104.242 109.442 104.242ZM121.774 92.758C120.08 92.758 118.672 93.462 117.836 95.09V88.6H116.736V104H117.836V98.192C117.836 95.222 119.53 93.814 121.686 93.814C123.754 93.814 124.92 95.134 124.92 97.158V104H126.042V97.158C126.042 94.496 124.392 92.758 121.774 92.758ZM138.834 93V95.486C137.91 93.836 136.216 92.758 134.104 92.758C130.98 92.758 128.406 95.244 128.406 98.5C128.406 101.756 130.98 104.242 134.104 104.242C136.216 104.242 137.91 103.164 138.834 101.514V104H139.956V93H138.834ZM134.192 103.186C131.574 103.186 129.528 101.118 129.528 98.5C129.528 95.882 131.574 93.814 134.192 93.814C136.81 93.814 138.834 95.882 138.834 98.5C138.834 101.118 136.81 103.186 134.192 103.186ZM148.372 92.758C146.678 92.758 145.27 93.462 144.434 95.09V93H143.334V104H144.434V98.192C144.434 95.222 146.128 93.814 148.284 93.814C150.352 93.814 151.518 95.134 151.518 97.158V104H152.64V97.158C152.64 94.496 150.99 92.758 148.372 92.758ZM165.52 93V95.552C164.618 93.858 162.924 92.758 160.79 92.758C157.644 92.758 155.092 95.244 155.092 98.5C155.092 101.756 157.644 104.242 160.79 104.242C162.924 104.242 164.618 103.142 165.52 101.448V103.472C165.52 105.98 163.892 107.586 161.142 107.586C158.722 107.586 157.49 106.618 156.918 105.452L155.95 106.002C156.742 107.608 158.568 108.642 161.142 108.642C164.178 108.642 166.62 106.772 166.62 103.472V93H165.52ZM160.856 103.186C158.238 103.186 156.192 101.118 156.192 98.5C156.192 95.882 158.238 93.814 160.856 93.814C163.474 93.814 165.52 95.882 165.52 98.5C165.52 101.118 163.474 103.186 160.856 103.186ZM174.967 92.758C171.601 92.758 169.269 95.266 169.269 98.5C169.269 101.822 171.667 104.242 175.055 104.242C177.233 104.242 178.949 103.252 179.851 101.756L178.883 101.184C178.245 102.35 176.881 103.186 175.077 103.186C172.569 103.186 170.677 101.558 170.413 99.072H180.379C180.379 98.896 180.401 98.72 180.401 98.544C180.401 95.53 178.311 92.758 174.967 92.758ZM174.967 93.814C177.123 93.814 179.015 95.31 179.257 97.994H170.413C170.633 95.552 172.459 93.814 174.967 93.814ZM61.9816 113.6H60.5076L55.0076 122.708L49.5076 113.6H48.0556V129H49.2216V115.316L54.9196 124.776H55.1176L60.8156 115.316V129H61.9816V113.6ZM75.2617 118V120.486C74.3377 118.836 72.6437 117.758 70.5317 117.758C67.4077 117.758 64.8337 120.244 64.8337 123.5C64.8337 126.756 67.4077 129.242 70.5317 129.242C72.6437 129.242 74.3377 128.164 75.2617 126.514V129H76.3837V118H75.2617ZM70.6197 128.186C68.0017 128.186 65.9557 126.118 65.9557 123.5C65.9557 120.882 68.0017 118.814 70.6197 118.814C73.2377 118.814 75.2617 120.882 75.2617 123.5C75.2617 126.118 73.2377 128.186 70.6197 128.186ZM80.8614 120.156V118H79.7614V129H80.8614V122.884C80.8614 120.068 82.6434 118.902 84.5354 118.902V117.846C83.0394 117.846 81.6094 118.418 80.8614 120.156ZM87.3153 115.338C87.7993 115.338 88.1953 114.942 88.1953 114.458C88.1953 113.996 87.7993 113.6 87.3153 113.6C86.8313 113.6 86.4353 113.996 86.4353 114.458C86.4353 114.942 86.8313 115.338 87.3153 115.338ZM86.7653 129H87.8653V118H86.7653V129ZM103.004 117.758C101.53 117.758 100.122 118.462 99.3295 120.002C98.7575 118.55 97.5035 117.758 95.8975 117.758C94.4895 117.758 93.1695 118.374 92.3555 119.892V118H91.2555V129H92.3555V122.862C92.3555 120.046 93.9615 118.814 95.7655 118.814C97.4595 118.814 98.5815 119.936 98.5815 122.026V129H99.6815V122.862C99.6815 120.046 101.134 118.814 102.982 118.814C104.698 118.814 105.908 119.936 105.908 122.026V129H107.008V122.026C107.008 119.276 105.336 117.758 103.004 117.758ZM115.069 117.758C111.703 117.758 109.371 120.266 109.371 123.5C109.371 126.822 111.769 129.242 115.157 129.242C117.335 129.242 119.051 128.252 119.953 126.756L118.985 126.184C118.347 127.35 116.983 128.186 115.179 128.186C112.671 128.186 110.779 126.558 110.515 124.072H120.481C120.481 123.896 120.503 123.72 120.503 123.544C120.503 120.53 118.413 117.758 115.069 117.758ZM115.069 118.814C117.225 118.814 119.117 120.31 119.359 122.994H110.515C110.735 120.552 112.561 118.814 115.069 118.814ZM131.5 129L125.362 123.28L131.28 118H129.74L124.174 122.994V113.6H123.074V129H124.174V123.588L130.004 129H131.5ZM142.135 129L135.997 123.28L141.915 118H140.375L134.809 122.994V113.6H133.709V129H134.809V123.588L140.639 129H142.135ZM148.286 129.242C151.476 129.242 154.05 126.756 154.05 123.5C154.05 120.244 151.476 117.758 148.286 117.758C145.074 117.758 142.5 120.244 142.5 123.5C142.5 126.756 145.074 129.242 148.286 129.242ZM148.286 128.186C145.668 128.186 143.622 126.118 143.622 123.5C143.622 120.882 145.668 118.814 148.286 118.814C150.904 118.814 152.928 120.882 152.928 123.5C152.928 126.118 150.904 128.186 148.286 128.186ZM163.112 115.338C163.596 115.338 163.992 114.942 163.992 114.458C163.992 113.996 163.596 113.6 163.112 113.6C162.628 113.6 162.232 113.996 162.232 114.458C162.232 114.942 162.628 115.338 163.112 115.338ZM162.562 129H163.662V118H162.562V129ZM172.684 119.078V118H169.406V114.92L168.284 115.25V118H165.864V119.078H168.284V126.228C168.284 128.736 169.802 129.44 172.684 129V128.01C170.44 128.208 169.406 128.164 169.406 126.228V119.078H172.684ZM179.608 117.758C176.242 117.758 173.91 120.266 173.91 123.5C173.91 126.822 176.308 129.242 179.696 129.242C181.874 129.242 183.59 128.252 184.492 126.756L183.524 126.184C182.886 127.35 181.522 128.186 179.718 128.186C177.21 128.186 175.318 126.558 175.054 124.072H185.02C185.02 123.896 185.042 123.72 185.042 123.544C185.042 120.53 182.952 117.758 179.608 117.758ZM179.608 118.814C181.764 118.814 183.656 120.31 183.898 122.994H175.054C175.274 120.552 177.1 118.814 179.608 118.814ZM199.361 117.758C197.887 117.758 196.479 118.462 195.687 120.002C195.115 118.55 193.861 117.758 192.255 117.758C190.847 117.758 189.527 118.374 188.713 119.892V118H187.613V129H188.713V122.862C188.713 120.046 190.319 118.814 192.123 118.814C193.817 118.814 194.939 119.936 194.939 122.026V129H196.039V122.862C196.039 120.046 197.491 118.814 199.339 118.814C201.055 118.814 202.265 119.936 202.265 122.026V129H203.365V122.026C203.365 119.276 201.693 117.758 199.361 117.758ZM207.224 120.882C207.224 119.562 208.434 118.814 209.864 118.814C211.074 118.814 212.218 119.342 212.68 120.486L213.604 119.958C213.01 118.616 211.646 117.758 209.864 117.758C207.62 117.758 206.124 119.144 206.124 120.882C206.124 124.842 212.79 123.126 212.79 126.118C212.79 127.504 211.492 128.186 209.952 128.186C208.302 128.186 207.114 127.438 206.718 126.25L205.772 126.8C206.3 128.208 207.752 129.242 209.952 129.242C212.306 129.242 213.89 127.922 213.89 126.118C213.89 122.092 207.224 123.83 207.224 120.882Z" fill="black"/>
<path d="M117.56 27.2V33.632H112.28V27.2H108.44V44H112.28V37.328H117.56V44H121.4V27.2H117.56ZM129.924 44.336C133.452 44.336 136.284 41.576 136.284 38C136.284 34.424 133.452 31.664 129.924 31.664C126.396 31.664 123.564 34.424 123.564 38C123.564 41.576 126.396 44.336 129.924 44.336ZM129.924 40.832C128.364 40.832 127.164 39.704 127.164 38C127.164 36.296 128.364 35.168 129.924 35.168C131.484 35.168 132.684 36.296 132.684 38C132.684 39.704 131.484 40.832 129.924 40.832ZM151.051 32L149.323 38.432L147.451 32H144.091L142.219 38.432L140.491 32H136.651L140.491 44H143.851L145.771 37.592L147.691 44H151.051L154.891 32H151.051Z" fill="black"/>
<defs>
<filter id="filter0_d_228_2230" x="2" y="6" width="260" height="178" filterUnits="userSpaceOnUse" color-interpolation-filters="sRGB">
<feFlood flood-opacity="0" result="BackgroundImageFix"/>
<feColorMatrix in="SourceAlpha" type="matrix" values="0 0 0 0 0 0 0 0 0 0 0 0 0 0 0 0 0 0 127 0" result="hardAlpha"/>
<feOffset dy="4"/>
<feGaussianBlur stdDeviation="2"/>
<feComposite in2="hardAlpha" operator="out"/>
<feColorMatrix type="matrix" values="0 0 0 0 0 0 0 0 0 0 0 0 0 0 0 0 0 0 0.25 0"/>
<feBlend mode="normal" in2="BackgroundImageFix" result="effect1_dropShadow_228_2230"/>
<feBlend mode="normal" in="SourceGraphic" in2="effect1_dropShadow_228_2230" result="shape"/>
</filter>
<filter id="filter1_d_228_2230" x="0" y="0" width="272" height="190" filterUnits="userSpaceOnUse" color-interpolation-filters="sRGB">
<feFlood flood-opacity="0" result="BackgroundImageFix"/>
<feColorMatrix in="SourceAlpha" type="matrix" values="0 0 0 0 0 0 0 0 0 0 0 0 0 0 0 0 0 0 127 0" result="hardAlpha"/>
<feOffset dx="4" dy="4"/>
<feGaussianBlur stdDeviation="5"/>
<feComposite in2="hardAlpha" operator="out"/>
<feColorMatrix type="matrix" values="0 0 0 0 0.607843 0 0 0 0 0.74902 0 0 0 0 0.498039 0 0 0 1 0"/>
<feBlend mode="normal" in2="BackgroundImageFix" result="effect1_dropShadow_228_2230"/>
<feBlend mode="normal" in="SourceGraphic" in2="effect1_dropShadow_228_2230" result="shape"/>
</filter>
</defs>
</svg>
