<svg width="272" height="190" viewBox="0 0 272 190" fill="none" xmlns="http://www.w3.org/2000/svg">
<g filter="url(#filter0_d_288_2191)">
<rect x="6" y="6" width="252" height="170" rx="5" fill="#9BBF7F"/>
</g>
<g filter="url(#filter1_d_288_2191)">
<rect x="6" y="6" width="252" height="170" rx="5" fill="white"/>
</g>
<path d="M77.7576 63V77H78.8176V63H77.7576ZM86.6688 66.78C85.1288 66.78 83.8488 67.42 83.0888 68.9V67H82.0888V77H83.0888V71.72C83.0888 69.02 84.6288 67.74 86.5888 67.74C88.4688 67.74 89.5288 68.94 89.5288 70.78V77H90.5488V70.78C90.5488 68.36 89.0488 66.78 86.6688 66.78ZM98.4979 67.98V67H95.5179V64.2L94.4979 64.5V67H92.2979V67.98H94.4979V74.48C94.4979 76.76 95.8779 77.4 98.4979 77V76.1C96.4579 76.28 95.5179 76.24 95.5179 74.48V67.98H98.4979ZM104.792 66.78C101.732 66.78 99.612 69.06 99.612 72C99.612 75.02 101.792 77.22 104.872 77.22C106.852 77.22 108.412 76.32 109.232 74.96L108.352 74.44C107.772 75.5 106.532 76.26 104.892 76.26C102.612 76.26 100.892 74.78 100.652 72.52H109.712C109.712 72.36 109.732 72.2 109.732 72.04C109.732 69.3 107.832 66.78 104.792 66.78ZM104.792 67.74C106.752 67.74 108.472 69.1 108.692 71.54H100.652C100.852 69.32 102.512 67.74 104.792 67.74ZM113.069 68.96V67H112.069V77H113.069V71.44C113.069 68.88 114.689 67.82 116.409 67.82V66.86C115.049 66.86 113.749 67.38 113.069 68.96ZM126.631 67V69.26C125.791 67.76 124.251 66.78 122.331 66.78C119.491 66.78 117.151 69.04 117.151 72C117.151 74.96 119.491 77.22 122.331 77.22C124.251 77.22 125.791 76.24 126.631 74.74V77H127.651V67H126.631ZM122.411 76.26C120.031 76.26 118.171 74.38 118.171 72C118.171 69.62 120.031 67.74 122.411 67.74C124.791 67.74 126.631 69.62 126.631 72C126.631 74.38 124.791 76.26 122.411 76.26ZM135.302 77.22C137.262 77.22 138.942 76.22 139.742 74.68L138.902 74.18C138.242 75.42 136.922 76.26 135.302 76.26C132.882 76.26 131.062 74.38 131.062 72C131.062 69.62 132.882 67.74 135.302 67.74C136.902 67.74 138.262 68.56 138.842 69.82L139.662 69.34C138.942 67.78 137.262 66.78 135.302 66.78C132.282 66.78 130.042 69.04 130.042 72C130.042 74.96 132.282 77.22 135.302 77.22ZM147.053 67.98V67H144.073V64.2L143.053 64.5V67H140.853V67.98H143.053V74.48C143.053 76.76 144.433 77.4 147.053 77V76.1C145.013 76.28 144.073 76.24 144.073 74.48V67.98H147.053ZM163.584 67V69.26C162.744 67.76 161.204 66.78 159.284 66.78C156.444 66.78 154.104 69.04 154.104 72C154.104 74.96 156.444 77.22 159.284 77.22C161.204 77.22 162.744 76.24 163.584 74.74V77H164.604V67H163.584ZM159.364 76.26C156.984 76.26 155.124 74.38 155.124 72C155.124 69.62 156.984 67.74 159.364 67.74C161.744 67.74 163.584 69.62 163.584 72C163.584 74.38 161.744 76.26 159.364 76.26ZM172.255 66.78C170.715 66.78 169.435 67.42 168.675 68.9V67H167.675V77H168.675V71.72C168.675 69.02 170.215 67.74 172.175 67.74C174.055 67.74 175.115 68.94 175.115 70.78V77H176.135V70.78C176.135 68.36 174.635 66.78 172.255 66.78ZM187.784 63V69.32C186.964 67.78 185.424 66.78 183.484 66.78C180.624 66.78 178.304 69.04 178.304 72C178.304 74.96 180.624 77.22 183.484 77.22C185.424 77.22 186.964 76.22 187.784 74.68V77H188.784V63H187.784ZM183.544 76.26C181.164 76.26 179.304 74.38 179.304 72C179.304 69.62 181.164 67.74 183.544 67.74C185.924 67.74 187.784 69.62 187.784 72C187.784 74.38 185.924 76.26 183.544 76.26ZM90.3779 89.78C87.3179 89.78 85.1979 92.06 85.1979 95C85.1979 98.02 87.3779 100.22 90.4579 100.22C92.4379 100.22 93.9979 99.32 94.8179 97.96L93.9379 97.44C93.3579 98.5 92.1179 99.26 90.4779 99.26C88.1979 99.26 86.4779 97.78 86.2379 95.52H95.2979C95.2979 95.36 95.3179 95.2 95.3179 95.04C95.3179 92.3 93.4179 89.78 90.3779 89.78ZM90.3779 90.74C92.3379 90.74 94.0579 92.1 94.2779 94.54H86.2379C86.4379 92.32 88.0979 90.74 90.3779 90.74ZM105.385 100L101.405 94.84L105.145 90H103.945L100.785 94.06L97.6446 90H96.4246L100.185 94.86L96.1846 100H97.4046L100.785 95.64L104.165 100H105.385ZM111.356 100.22C113.316 100.22 114.996 99.22 115.796 97.68L114.956 97.18C114.296 98.42 112.976 99.26 111.356 99.26C108.936 99.26 107.116 97.38 107.116 95C107.116 92.62 108.936 90.74 111.356 90.74C112.956 90.74 114.316 91.56 114.896 92.82L115.716 92.34C114.996 90.78 113.316 89.78 111.356 89.78C108.336 89.78 106.096 92.04 106.096 95C106.096 97.96 108.336 100.22 111.356 100.22ZM122.567 89.78C121.027 89.78 119.747 90.42 118.987 91.9V86H117.987V100H118.987V94.72C118.987 92.02 120.527 90.74 122.487 90.74C124.367 90.74 125.427 91.94 125.427 93.78V100H126.447V93.78C126.447 91.36 124.947 89.78 122.567 89.78ZM138.076 90V92.26C137.236 90.76 135.696 89.78 133.776 89.78C130.936 89.78 128.596 92.04 128.596 95C128.596 97.96 130.936 100.22 133.776 100.22C135.696 100.22 137.236 99.24 138.076 97.74V100H139.096V90H138.076ZM133.856 99.26C131.476 99.26 129.616 97.38 129.616 95C129.616 92.62 131.476 90.74 133.856 90.74C136.236 90.74 138.076 92.62 138.076 95C138.076 97.38 136.236 99.26 133.856 99.26ZM146.747 89.78C145.207 89.78 143.927 90.42 143.167 91.9V90H142.167V100H143.167V94.72C143.167 92.02 144.707 90.74 146.667 90.74C148.547 90.74 149.607 91.94 149.607 93.78V100H150.627V93.78C150.627 91.36 149.127 89.78 146.747 89.78ZM162.336 90V92.32C161.516 90.78 159.976 89.78 158.036 89.78C155.176 89.78 152.856 92.04 152.856 95C152.856 97.96 155.176 100.22 158.036 100.22C159.976 100.22 161.516 99.22 162.336 97.68V99.52C162.336 101.8 160.856 103.26 158.356 103.26C156.156 103.26 155.036 102.38 154.516 101.32L153.636 101.82C154.356 103.28 156.016 104.22 158.356 104.22C161.116 104.22 163.336 102.52 163.336 99.52V90H162.336ZM158.096 99.26C155.716 99.26 153.856 97.38 153.856 95C153.856 92.62 155.716 90.74 158.096 90.74C160.476 90.74 162.336 92.62 162.336 95C162.336 97.38 160.476 99.26 158.096 99.26ZM170.925 89.78C167.865 89.78 165.745 92.06 165.745 95C165.745 98.02 167.925 100.22 171.005 100.22C172.985 100.22 174.545 99.32 175.365 97.96L174.485 97.44C173.905 98.5 172.665 99.26 171.025 99.26C168.745 99.26 167.025 97.78 166.785 95.52H175.845C175.845 95.36 175.865 95.2 175.865 95.04C175.865 92.3 173.965 89.78 170.925 89.78ZM170.925 90.74C172.885 90.74 174.605 92.1 174.825 94.54H166.785C166.985 92.32 168.645 90.74 170.925 90.74ZM68.2105 109H66.8705L61.8705 117.28L56.8705 109H55.5505V123H56.6105V110.56L61.7905 119.16H61.9705L67.1505 110.56V123H68.2105V109ZM80.2834 113V115.26C79.4434 113.76 77.9034 112.78 75.9834 112.78C73.1434 112.78 70.8034 115.04 70.8034 118C70.8034 120.96 73.1434 123.22 75.9834 123.22C77.9034 123.22 79.4434 122.24 80.2834 120.74V123H81.3034V113H80.2834ZM76.0634 122.26C73.6834 122.26 71.8234 120.38 71.8234 118C71.8234 115.62 73.6834 113.74 76.0634 113.74C78.4434 113.74 80.2834 115.62 80.2834 118C80.2834 120.38 78.4434 122.26 76.0634 122.26ZM85.374 114.96V113H84.374V123H85.374V117.44C85.374 114.88 86.994 113.82 88.714 113.82V112.86C87.354 112.86 86.054 113.38 85.374 114.96ZM91.2412 110.58C91.6812 110.58 92.0412 110.22 92.0412 109.78C92.0412 109.36 91.6812 109 91.2412 109C90.8012 109 90.4412 109.36 90.4412 109.78C90.4412 110.22 90.8012 110.58 91.2412 110.58ZM90.7412 123H91.7412V113H90.7412V123ZM105.503 112.78C104.163 112.78 102.883 113.42 102.163 114.82C101.643 113.5 100.503 112.78 99.0432 112.78C97.7632 112.78 96.5632 113.34 95.8232 114.72V113H94.8232V123H95.8232V117.42C95.8232 114.86 97.2832 113.74 98.9232 113.74C100.463 113.74 101.483 114.76 101.483 116.66V123H102.483V117.42C102.483 114.86 103.803 113.74 105.483 113.74C107.043 113.74 108.143 114.76 108.143 116.66V123H109.143V116.66C109.143 114.16 107.623 112.78 105.503 112.78ZM116.472 112.78C113.412 112.78 111.292 115.06 111.292 118C111.292 121.02 113.472 123.22 116.552 123.22C118.532 123.22 120.092 122.32 120.912 120.96L120.032 120.44C119.452 121.5 118.212 122.26 116.572 122.26C114.292 122.26 112.572 120.78 112.332 118.52H121.392C121.392 118.36 121.412 118.2 121.412 118.04C121.412 115.3 119.512 112.78 116.472 112.78ZM116.472 113.74C118.432 113.74 120.152 115.1 120.372 117.54H112.332C112.532 115.32 114.192 113.74 116.472 113.74ZM131.409 123L125.829 117.8L131.209 113H129.809L124.749 117.54V109H123.749V123H124.749V118.08L130.049 123H131.409ZM141.077 123L135.497 117.8L140.877 113H139.477L134.417 117.54V109H133.417V123H134.417V118.08L139.717 123H141.077ZM146.669 123.22C149.569 123.22 151.909 120.96 151.909 118C151.909 115.04 149.569 112.78 146.669 112.78C143.749 112.78 141.409 115.04 141.409 118C141.409 120.96 143.749 123.22 146.669 123.22ZM146.669 122.26C144.289 122.26 142.429 120.38 142.429 118C142.429 115.62 144.289 113.74 146.669 113.74C149.049 113.74 150.889 115.62 150.889 118C150.889 120.38 149.049 122.26 146.669 122.26ZM160.147 110.58C160.587 110.58 160.947 110.22 160.947 109.78C160.947 109.36 160.587 109 160.147 109C159.707 109 159.347 109.36 159.347 109.78C159.347 110.22 159.707 110.58 160.147 110.58ZM159.647 123H160.647V113H159.647V123ZM168.849 113.98V113H165.869V110.2L164.849 110.5V113H162.649V113.98H164.849V120.48C164.849 122.76 166.229 123.4 168.849 123V122.1C166.809 122.28 165.869 122.24 165.869 120.48V113.98H168.849ZM175.144 112.78C172.084 112.78 169.964 115.06 169.964 118C169.964 121.02 172.144 123.22 175.224 123.22C177.204 123.22 178.764 122.32 179.584 120.96L178.704 120.44C178.124 121.5 176.884 122.26 175.244 122.26C172.964 122.26 171.244 120.78 171.004 118.52H180.064C180.064 118.36 180.084 118.2 180.084 118.04C180.084 115.3 178.184 112.78 175.144 112.78ZM175.144 113.74C177.104 113.74 178.824 115.1 179.044 117.54H171.004C171.204 115.32 172.864 113.74 175.144 113.74ZM193.101 112.78C191.761 112.78 190.481 113.42 189.761 114.82C189.241 113.5 188.101 112.78 186.641 112.78C185.361 112.78 184.161 113.34 183.421 114.72V113H182.421V123H183.421V117.42C183.421 114.86 184.881 113.74 186.521 113.74C188.061 113.74 189.081 114.76 189.081 116.66V123H190.081V117.42C190.081 114.86 191.401 113.74 193.081 113.74C194.641 113.74 195.741 114.76 195.741 116.66V123H196.741V116.66C196.741 114.16 195.221 112.78 193.101 112.78ZM200.249 115.62C200.249 114.42 201.349 113.74 202.649 113.74C203.749 113.74 204.789 114.22 205.209 115.26L206.049 114.78C205.509 113.56 204.269 112.78 202.649 112.78C200.609 112.78 199.249 114.04 199.249 115.62C199.249 119.22 205.309 117.66 205.309 120.38C205.309 121.64 204.129 122.26 202.729 122.26C201.229 122.26 200.149 121.58 199.789 120.5L198.929 121C199.409 122.28 200.729 123.22 202.729 123.22C204.869 123.22 206.309 122.02 206.309 120.38C206.309 116.72 200.249 118.3 200.249 115.62Z" fill="black"/>
<path d="M118.68 26.6V32.496H113.84V26.6H110.32V42H113.84V35.884H118.68V42H122.2V26.6H118.68ZM130.013 42.308C133.247 42.308 135.843 39.778 135.843 36.5C135.843 33.222 133.247 30.692 130.013 30.692C126.779 30.692 124.183 33.222 124.183 36.5C124.183 39.778 126.779 42.308 130.013 42.308ZM130.013 39.096C128.583 39.096 127.483 38.062 127.483 36.5C127.483 34.938 128.583 33.904 130.013 33.904C131.443 33.904 132.543 34.938 132.543 36.5C132.543 38.062 131.443 39.096 130.013 39.096ZM149.38 31L147.796 36.896L146.08 31H143L141.284 36.896L139.7 31H136.18L139.7 42H142.78L144.54 36.126L146.3 42H149.38L152.9 31H149.38Z" fill="black"/>
<defs>
<filter id="filter0_d_288_2191" x="2" y="6" width="260" height="178" filterUnits="userSpaceOnUse" color-interpolation-filters="sRGB">
<feFlood flood-opacity="0" result="BackgroundImageFix"/>
<feColorMatrix in="SourceAlpha" type="matrix" values="0 0 0 0 0 0 0 0 0 0 0 0 0 0 0 0 0 0 127 0" result="hardAlpha"/>
<feOffset dy="4"/>
<feGaussianBlur stdDeviation="2"/>
<feComposite in2="hardAlpha" operator="out"/>
<feColorMatrix type="matrix" values="0 0 0 0 0 0 0 0 0 0 0 0 0 0 0 0 0 0 0.25 0"/>
<feBlend mode="normal" in2="BackgroundImageFix" result="effect1_dropShadow_288_2191"/>
<feBlend mode="normal" in="SourceGraphic" in2="effect1_dropShadow_288_2191" result="shape"/>
</filter>
<filter id="filter1_d_288_2191" x="0" y="0" width="272" height="190" filterUnits="userSpaceOnUse" color-interpolation-filters="sRGB">
<feFlood flood-opacity="0" result="BackgroundImageFix"/>
<feColorMatrix in="SourceAlpha" type="matrix" values="0 0 0 0 0 0 0 0 0 0 0 0 0 0 0 0 0 0 127 0" result="hardAlpha"/>
<feOffset dx="4" dy="4"/>
<feGaussianBlur stdDeviation="5"/>
<feComposite in2="hardAlpha" operator="out"/>
<feColorMatrix type="matrix" values="0 0 0 0 0.607843 0 0 0 0 0.74902 0 0 0 0 0.498039 0 0 0 1 0"/>
<feBlend mode="normal" in2="BackgroundImageFix" result="effect1_dropShadow_288_2191"/>
<feBlend mode="normal" in="SourceGraphic" in2="effect1_dropShadow_288_2191" result="shape"/>
</filter>
</defs>
</svg>
