<svg width="128" height="60" viewBox="0 0 128 60" fill="none" xmlns="http://www.w3.org/2000/svg">
<g filter="url(#filter0_d_137_1163)">
<rect x="4" y="4" width="120" height="52" rx="5" fill="#749723"/>
<path d="M31.34 36.78C34.22 36.78 36.38 35.08 36.38 32V22.5H33.18V32C33.18 32.86 32.76 33.66 31.36 33.66C30.28 33.66 29.82 33.24 29.38 32.46L26.6 34.06C27.52 35.84 29.12 36.78 31.34 36.78ZM45.3644 36.78C49.3844 36.78 52.6444 33.62 52.6444 29.5C52.6444 25.38 49.3844 22.22 45.3644 22.22C41.3444 22.22 38.0844 25.38 38.0844 29.5C38.0844 33.62 41.3444 36.78 45.3644 36.78ZM45.3644 33.66C43.0844 33.66 41.2844 32 41.2844 29.5C41.2844 27 43.0844 25.34 45.3644 25.34C47.6444 25.34 49.4444 27 49.4444 29.5C49.4444 32 47.6444 33.66 45.3644 33.66ZM54.4461 22.5V36.5H57.6461V22.5H54.4461ZM67.8516 22.5V30.1L62.4516 22.5H60.0516V36.5H63.2516V28.9L68.6516 36.5H71.0516V22.5H67.8516ZM83.75 36.78C86.83 36.78 89.15 34.98 89.15 31.98V22.5H85.95V31.7C85.95 32.76 85.45 33.66 83.75 33.66C82.05 33.66 81.55 32.76 81.55 31.7V22.5H78.35V31.98C78.35 34.98 80.67 36.78 83.75 36.78ZM96.3578 36.78C99.3978 36.78 101.558 35.18 101.558 32.48C101.558 29.52 99.1778 28.78 97.0578 28.14C94.8778 27.48 94.5378 27.04 94.5378 26.4C94.5378 25.84 95.0378 25.34 96.0378 25.34C97.3178 25.34 97.9778 25.96 98.4578 26.96L101.158 25.38C100.138 23.32 98.3378 22.22 96.0378 22.22C93.6178 22.22 91.3378 23.78 91.3378 26.48C91.3378 29.16 93.3778 30.16 95.4578 30.74C97.5578 31.32 98.3578 31.66 98.3578 32.52C98.3578 33.06 97.9778 33.66 96.4578 33.66C94.8778 33.66 94.0178 32.88 93.5178 31.72L90.7578 33.32C91.5378 35.38 93.4178 36.78 96.3578 36.78Z" fill="white"/>
</g>
<defs>
<filter id="filter0_d_137_1163" x="0" y="0" width="128" height="60" filterUnits="userSpaceOnUse" color-interpolation-filters="sRGB">
<feFlood flood-opacity="0" result="BackgroundImageFix"/>
<feColorMatrix in="SourceAlpha" type="matrix" values="0 0 0 0 0 0 0 0 0 0 0 0 0 0 0 0 0 0 127 0" result="hardAlpha"/>
<feOffset/>
<feGaussianBlur stdDeviation="2"/>
<feComposite in2="hardAlpha" operator="out"/>
<feColorMatrix type="matrix" values="0 0 0 0 0 0 0 0 0 0 0 0 0 0 0 0 0 0 0.25 0"/>
<feBlend mode="normal" in2="BackgroundImageFix" result="effect1_dropShadow_137_1163"/>
<feBlend mode="normal" in="SourceGraphic" in2="effect1_dropShadow_137_1163" result="shape"/>
</filter>
</defs>
</svg>
