<svg width="174" height="51" viewBox="0 0 174 51" fill="none" xmlns="http://www.w3.org/2000/svg">
<g filter="url(#filter0_d_66_164)">
<rect x="4" width="166" height="43" rx="5" fill="#FDBD40"/>
<path d="M46.743 31.906C50.919 31.906 54.051 29.441 54.051 24.975V11.2H49.411V24.975C49.411 26.222 48.802 27.382 46.772 27.382C45.206 27.382 44.539 26.773 43.901 25.642L39.87 27.962C41.204 30.543 43.524 31.906 46.743 31.906ZM64.0657 31.906C68.3287 31.906 71.7507 28.571 71.7507 24.25C71.7507 19.929 68.3287 16.594 64.0657 16.594C59.8027 16.594 56.3807 19.929 56.3807 24.25C56.3807 28.571 59.8027 31.906 64.0657 31.906ZM64.0657 27.672C62.1807 27.672 60.7307 26.309 60.7307 24.25C60.7307 22.191 62.1807 20.828 64.0657 20.828C65.9507 20.828 67.4007 22.191 67.4007 24.25C67.4007 26.309 65.9507 27.672 64.0657 27.672ZM76.3862 15.724C77.8072 15.724 78.9962 14.535 78.9962 13.114C78.9962 11.693 77.8072 10.504 76.3862 10.504C74.9652 10.504 73.7762 11.693 73.7762 13.114C73.7762 14.535 74.9652 15.724 76.3862 15.724ZM74.2112 31.5H78.5612V17H74.2112V31.5ZM90.2414 16.594C88.3274 16.594 86.8774 17.29 86.0944 18.363V17H81.7444V31.5H86.0944V23.583C86.0944 21.524 87.1964 20.596 88.7914 20.596C90.1834 20.596 91.3144 21.437 91.3144 23.235V31.5H95.6644V22.597C95.6644 18.682 93.1704 16.594 90.2414 16.594ZM115.269 17V24.917C115.269 26.976 114.167 27.904 112.572 27.904C111.18 27.904 110.049 27.063 110.049 25.265V17H105.699V25.903C105.699 29.818 108.193 31.906 111.122 31.906C113.036 31.906 114.486 31.21 115.269 30.137V31.5H119.619V17H115.269ZM126.785 21.234C126.785 20.712 127.249 20.422 128.003 20.422C128.96 20.422 129.54 20.944 129.946 21.698L133.658 19.697C132.44 17.638 130.352 16.594 128.003 16.594C124.987 16.594 122.319 18.189 122.319 21.35C122.319 26.367 129.453 25.526 129.453 27.121C129.453 27.701 128.931 28.02 127.887 28.02C126.611 28.02 125.799 27.411 125.422 26.309L121.652 28.455C122.783 30.804 124.987 31.906 127.887 31.906C131.019 31.906 133.919 30.485 133.919 27.15C133.919 21.785 126.785 22.887 126.785 21.234Z" fill="black"/>
</g>
<defs>
<filter id="filter0_d_66_164" x="0" y="0" width="174" height="51" filterUnits="userSpaceOnUse" color-interpolation-filters="sRGB">
<feFlood flood-opacity="0" result="BackgroundImageFix"/>
<feColorMatrix in="SourceAlpha" type="matrix" values="0 0 0 0 0 0 0 0 0 0 0 0 0 0 0 0 0 0 127 0" result="hardAlpha"/>
<feOffset dy="4"/>
<feGaussianBlur stdDeviation="2"/>
<feComposite in2="hardAlpha" operator="out"/>
<feColorMatrix type="matrix" values="0 0 0 0 0 0 0 0 0 0 0 0 0 0 0 0 0 0 0.25 0"/>
<feBlend mode="normal" in2="BackgroundImageFix" result="effect1_dropShadow_66_164"/>
<feBlend mode="normal" in="SourceGraphic" in2="effect1_dropShadow_66_164" result="shape"/>
</filter>
</defs>
</svg>
