<svg width="138" height="60" viewBox="0 0 138 60" fill="none" xmlns="http://www.w3.org/2000/svg">
<g filter="url(#filter0_d_177_4867)">
<rect x="4" width="130" height="52" rx="5" fill="#749723"/>
<path d="M32.874 33.808C36.042 33.808 38.418 31.938 38.418 28.55V18.1H34.898V28.55C34.898 29.496 34.436 30.376 32.896 30.376C31.708 30.376 31.202 29.914 30.718 29.056L27.66 30.816C28.672 32.774 30.432 33.808 32.874 33.808ZM48.3008 33.808C52.7228 33.808 56.3088 30.332 56.3088 25.8C56.3088 21.268 52.7228 17.792 48.3008 17.792C43.8788 17.792 40.2928 21.268 40.2928 25.8C40.2928 30.332 43.8788 33.808 48.3008 33.808ZM48.3008 30.376C45.7928 30.376 43.8128 28.55 43.8128 25.8C43.8128 23.05 45.7928 21.224 48.3008 21.224C50.8088 21.224 52.7888 23.05 52.7888 25.8C52.7888 28.55 50.8088 30.376 48.3008 30.376ZM58.2907 18.1V33.5H61.8107V18.1H58.2907ZM73.0367 18.1V26.46L67.0967 18.1H64.4567V33.5H67.9767V25.14L73.9167 33.5H76.5567V18.1H73.0367ZM90.525 33.808C93.913 33.808 96.465 31.828 96.465 28.528V18.1H92.945V28.22C92.945 29.386 92.395 30.376 90.525 30.376C88.655 30.376 88.105 29.386 88.105 28.22V18.1H84.585V28.528C84.585 31.828 87.137 33.808 90.525 33.808ZM104.394 33.808C107.738 33.808 110.114 32.048 110.114 29.078C110.114 25.822 107.496 25.008 105.164 24.304C102.766 23.578 102.392 23.094 102.392 22.39C102.392 21.774 102.942 21.224 104.042 21.224C105.45 21.224 106.176 21.906 106.704 23.006L109.674 21.268C108.552 19.002 106.572 17.792 104.042 17.792C101.38 17.792 98.8716 19.508 98.8716 22.478C98.8716 25.426 101.116 26.526 103.404 27.164C105.714 27.802 106.594 28.176 106.594 29.122C106.594 29.716 106.176 30.376 104.504 30.376C102.766 30.376 101.82 29.518 101.27 28.242L98.2336 30.002C99.0916 32.268 101.16 33.808 104.394 33.808Z" fill="white"/>
</g>
<defs>
<filter id="filter0_d_177_4867" x="0" y="0" width="138" height="60" filterUnits="userSpaceOnUse" color-interpolation-filters="sRGB">
<feFlood flood-opacity="0" result="BackgroundImageFix"/>
<feColorMatrix in="SourceAlpha" type="matrix" values="0 0 0 0 0 0 0 0 0 0 0 0 0 0 0 0 0 0 127 0" result="hardAlpha"/>
<feOffset dy="4"/>
<feGaussianBlur stdDeviation="2"/>
<feComposite in2="hardAlpha" operator="out"/>
<feColorMatrix type="matrix" values="0 0 0 0 0 0 0 0 0 0 0 0 0 0 0 0 0 0 0.25 0"/>
<feBlend mode="normal" in2="BackgroundImageFix" result="effect1_dropShadow_177_4867"/>
<feBlend mode="normal" in="SourceGraphic" in2="effect1_dropShadow_177_4867" result="shape"/>
</filter>
</defs>
</svg>
