<svg width="272" height="190" viewBox="0 0 272 190" fill="none" xmlns="http://www.w3.org/2000/svg">
<g filter="url(#filter0_d_288_2188)">
<rect x="6" y="6" width="252" height="170" rx="5" fill="#9BBF7F"/>
</g>
<g filter="url(#filter1_d_288_2188)">
<rect x="6" y="6" width="252" height="170" rx="5" fill="white"/>
</g>
<path d="M79.052 77H80.332L84.272 64.38L88.192 77H89.472L93.532 63H92.412L88.812 75.58L84.892 63H83.632L79.732 75.58L76.112 63H74.992L79.052 77ZM99.0439 66.78C95.9839 66.78 93.8639 69.06 93.8639 72C93.8639 75.02 96.0439 77.22 99.1239 77.22C101.104 77.22 102.664 76.32 103.484 74.96L102.604 74.44C102.024 75.5 100.784 76.26 99.1439 76.26C96.8639 76.26 95.1439 74.78 94.9039 72.52H103.964C103.964 72.36 103.984 72.2 103.984 72.04C103.984 69.3 102.084 66.78 99.0439 66.78ZM99.0439 67.74C101.004 67.74 102.724 69.1 102.944 71.54H94.9039C95.1039 69.32 96.7639 67.74 99.0439 67.74ZM116.233 77.22C118.193 77.22 119.873 76.22 120.673 74.68L119.833 74.18C119.173 75.42 117.853 76.26 116.233 76.26C113.813 76.26 111.993 74.38 111.993 72C111.993 69.62 113.813 67.74 116.233 67.74C117.833 67.74 119.193 68.56 119.773 69.82L120.593 69.34C119.873 67.78 118.193 66.78 116.233 66.78C113.213 66.78 110.973 69.04 110.973 72C110.973 74.96 113.213 77.22 116.233 77.22ZM123.864 68.96V67H122.864V77H123.864V71.44C123.864 68.88 125.484 67.82 127.204 67.82V66.86C125.844 66.86 124.544 67.38 123.864 68.96ZM133.126 66.78C130.066 66.78 127.946 69.06 127.946 72C127.946 75.02 130.126 77.22 133.206 77.22C135.186 77.22 136.746 76.32 137.566 74.96L136.686 74.44C136.106 75.5 134.866 76.26 133.226 76.26C130.946 76.26 129.226 74.78 128.986 72.52H138.046C138.046 72.36 138.066 72.2 138.066 72.04C138.066 69.3 136.166 66.78 133.126 66.78ZM133.126 67.74C135.086 67.74 136.806 69.1 137.026 71.54H128.986C129.186 69.32 130.846 67.74 133.126 67.74ZM149.203 67V69.26C148.363 67.76 146.823 66.78 144.903 66.78C142.063 66.78 139.723 69.04 139.723 72C139.723 74.96 142.063 77.22 144.903 77.22C146.823 77.22 148.363 76.24 149.203 74.74V77H150.223V67H149.203ZM144.983 76.26C142.603 76.26 140.743 74.38 140.743 72C140.743 69.62 142.603 67.74 144.983 67.74C147.363 67.74 149.203 69.62 149.203 72C149.203 74.38 147.363 76.26 144.983 76.26ZM158.414 67.98V67H155.434V64.2L154.414 64.5V67H152.214V67.98H154.414V74.48C154.414 76.76 155.794 77.4 158.414 77V76.1C156.374 76.28 155.434 76.24 155.434 74.48V67.98H158.414ZM164.708 66.78C161.648 66.78 159.528 69.06 159.528 72C159.528 75.02 161.708 77.22 164.788 77.22C166.768 77.22 168.328 76.32 169.148 74.96L168.268 74.44C167.688 75.5 166.448 76.26 164.808 76.26C162.528 76.26 160.808 74.78 160.568 72.52H169.628C169.628 72.36 169.648 72.2 169.648 72.04C169.648 69.3 167.748 66.78 164.708 66.78ZM164.708 67.74C166.668 67.74 168.388 69.1 168.608 71.54H160.568C160.768 69.32 162.428 67.74 164.708 67.74ZM186.117 67V69.26C185.277 67.76 183.737 66.78 181.817 66.78C178.977 66.78 176.637 69.04 176.637 72C176.637 74.96 178.977 77.22 181.817 77.22C183.737 77.22 185.277 76.24 186.117 74.74V77H187.137V67H186.117ZM181.897 76.26C179.517 76.26 177.657 74.38 177.657 72C177.657 69.62 179.517 67.74 181.897 67.74C184.277 67.74 186.117 69.62 186.117 72C186.117 74.38 184.277 76.26 181.897 76.26ZM80.7513 92.62C80.7513 91.42 81.8513 90.74 83.1513 90.74C84.2513 90.74 85.2913 91.22 85.7113 92.26L86.5513 91.78C86.0113 90.56 84.7713 89.78 83.1513 89.78C81.1113 89.78 79.7513 91.04 79.7513 92.62C79.7513 96.22 85.8113 94.66 85.8113 97.38C85.8113 98.64 84.6313 99.26 83.2313 99.26C81.7313 99.26 80.6513 98.58 80.2913 97.5L79.4313 98C79.9113 99.28 81.2313 100.22 83.2313 100.22C85.3713 100.22 86.8113 99.02 86.8113 97.38C86.8113 93.72 80.7513 95.3 80.7513 92.62ZM96.3338 90V95.28C96.3338 97.98 94.7938 99.26 92.8338 99.26C90.9538 99.26 89.8938 98.06 89.8938 96.22V90H88.8738V96.22C88.8738 98.64 90.3738 100.22 92.7538 100.22C94.2938 100.22 95.5738 99.58 96.3338 98.1V100H97.3338V90H96.3338ZM101.103 92.62C101.103 91.42 102.203 90.74 103.503 90.74C104.603 90.74 105.643 91.22 106.063 92.26L106.903 91.78C106.363 90.56 105.123 89.78 103.503 89.78C101.463 89.78 100.103 91.04 100.103 92.62C100.103 96.22 106.163 94.66 106.163 97.38C106.163 98.64 104.983 99.26 103.583 99.26C102.083 99.26 101.003 98.58 100.643 97.5L99.7828 98C100.263 99.28 101.583 100.22 103.583 100.22C105.723 100.22 107.163 99.02 107.163 97.38C107.163 93.72 101.103 95.3 101.103 92.62ZM114.312 90.98V90H111.332V87.2L110.312 87.5V90H108.112V90.98H110.312V97.48C110.312 99.76 111.692 100.4 114.312 100V99.1C112.272 99.28 111.332 99.24 111.332 97.48V90.98H114.312ZM124.906 90V92.26C124.066 90.76 122.526 89.78 120.606 89.78C117.766 89.78 115.426 92.04 115.426 95C115.426 97.96 117.766 100.22 120.606 100.22C122.526 100.22 124.066 99.24 124.906 97.74V100H125.926V90H124.906ZM120.686 99.26C118.306 99.26 116.446 97.38 116.446 95C116.446 92.62 118.306 90.74 120.686 90.74C123.066 90.74 124.906 92.62 124.906 95C124.906 97.38 123.066 99.26 120.686 99.26ZM129.497 87.58C129.937 87.58 130.297 87.22 130.297 86.78C130.297 86.36 129.937 86 129.497 86C129.057 86 128.697 86.36 128.697 86.78C128.697 87.22 129.057 87.58 129.497 87.58ZM128.997 100H129.997V90H128.997V100ZM137.659 89.78C136.119 89.78 134.839 90.42 134.079 91.9V90H133.079V100H134.079V94.72C134.079 92.02 135.619 90.74 137.579 90.74C139.459 90.74 140.519 91.94 140.519 93.78V100H141.539V93.78C141.539 91.36 140.039 89.78 137.659 89.78ZM153.168 90V92.26C152.328 90.76 150.788 89.78 148.868 89.78C146.028 89.78 143.688 92.04 143.688 95C143.688 97.96 146.028 100.22 148.868 100.22C150.788 100.22 152.328 99.24 153.168 97.74V100H154.188V90H153.168ZM148.948 99.26C146.568 99.26 144.708 97.38 144.708 95C144.708 92.62 146.568 90.74 148.948 90.74C151.328 90.74 153.168 92.62 153.168 95C153.168 97.38 151.328 99.26 148.948 99.26ZM162.559 89.78C160.619 89.78 159.079 90.78 158.259 92.32V86H157.259V100H158.259V97.68C159.079 99.22 160.619 100.22 162.559 100.22C165.419 100.22 167.739 97.96 167.739 95C167.739 92.04 165.419 89.78 162.559 89.78ZM162.499 99.26C160.119 99.26 158.259 97.38 158.259 95C158.259 92.62 160.119 90.74 162.499 90.74C164.879 90.74 166.739 92.62 166.739 95C166.739 97.38 164.879 99.26 162.499 99.26ZM170.149 100H171.149V85.4H170.149V100ZM178.731 89.78C175.671 89.78 173.551 92.06 173.551 95C173.551 98.02 175.731 100.22 178.811 100.22C180.791 100.22 182.351 99.32 183.171 97.96L182.291 97.44C181.711 98.5 180.471 99.26 178.831 99.26C176.551 99.26 174.831 97.78 174.591 95.52H183.651C183.651 95.36 183.671 95.2 183.671 95.04C183.671 92.3 181.771 89.78 178.731 89.78ZM178.731 90.74C180.691 90.74 182.411 92.1 182.631 94.54H174.591C174.791 92.32 176.451 90.74 178.731 90.74ZM86.5165 123.22C88.4765 123.22 90.1565 122.22 90.9565 120.68L90.1165 120.18C89.4565 121.42 88.1365 122.26 86.5165 122.26C84.0965 122.26 82.2765 120.38 82.2765 118C82.2765 115.62 84.0965 113.74 86.5165 113.74C88.1165 113.74 89.4765 114.56 90.0565 115.82L90.8765 115.34C90.1565 113.78 88.4765 112.78 86.5165 112.78C83.4965 112.78 81.2565 115.04 81.2565 118C81.2565 120.96 83.4965 123.22 86.5165 123.22ZM97.6298 123.22C100.53 123.22 102.87 120.96 102.87 118C102.87 115.04 100.53 112.78 97.6298 112.78C94.7098 112.78 92.3698 115.04 92.3698 118C92.3698 120.96 94.7098 123.22 97.6298 123.22ZM97.6298 122.26C95.2498 122.26 93.3898 120.38 93.3898 118C93.3898 115.62 95.2498 113.74 97.6298 113.74C100.01 113.74 101.85 115.62 101.85 118C101.85 120.38 100.01 122.26 97.6298 122.26ZM115.956 112.78C114.616 112.78 113.336 113.42 112.616 114.82C112.096 113.5 110.956 112.78 109.496 112.78C108.216 112.78 107.016 113.34 106.276 114.72V113H105.276V123H106.276V117.42C106.276 114.86 107.736 113.74 109.376 113.74C110.916 113.74 111.936 114.76 111.936 116.66V123H112.936V117.42C112.936 114.86 114.256 113.74 115.936 113.74C117.496 113.74 118.596 114.76 118.596 116.66V123H119.596V116.66C119.596 114.16 118.076 112.78 115.956 112.78ZM133.105 112.78C131.765 112.78 130.485 113.42 129.765 114.82C129.245 113.5 128.105 112.78 126.645 112.78C125.365 112.78 124.165 113.34 123.425 114.72V113H122.425V123H123.425V117.42C123.425 114.86 124.885 113.74 126.525 113.74C128.065 113.74 129.085 114.76 129.085 116.66V123H130.085V117.42C130.085 114.86 131.405 113.74 133.085 113.74C134.645 113.74 135.745 114.76 135.745 116.66V123H136.745V116.66C136.745 114.16 135.225 112.78 133.105 112.78ZM146.773 113V118.28C146.773 120.98 145.233 122.26 143.273 122.26C141.393 122.26 140.333 121.06 140.333 119.22V113H139.313V119.22C139.313 121.64 140.813 123.22 143.193 123.22C144.733 123.22 146.013 122.58 146.773 121.1V123H147.773V113H146.773ZM155.442 112.78C153.902 112.78 152.622 113.42 151.862 114.9V113H150.862V123H151.862V117.72C151.862 115.02 153.402 113.74 155.362 113.74C157.242 113.74 158.302 114.94 158.302 116.78V123H159.322V116.78C159.322 114.36 157.822 112.78 155.442 112.78ZM162.651 110.58C163.091 110.58 163.451 110.22 163.451 109.78C163.451 109.36 163.091 109 162.651 109C162.211 109 161.851 109.36 161.851 109.78C161.851 110.22 162.211 110.58 162.651 110.58ZM162.151 123H163.151V113H162.151V123ZM171.353 113.98V113H168.373V110.2L167.353 110.5V113H165.153V113.98H167.353V120.48C167.353 122.76 168.733 123.4 171.353 123V122.1C169.313 122.28 168.373 122.24 168.373 120.48V113.98H171.353ZM181.268 113L177.788 121.9L173.748 113H172.668L177.268 123.18L177.048 123.72C176.428 125.18 175.408 126.18 174.068 126.06V127C175.788 127.14 177.268 125.84 178.028 123.92L182.348 113H181.268Z" fill="black"/>
<path d="M110.73 26.6H107.21L103.03 33.442L98.8498 26.6H95.3298V42H98.8498V33.046L102.832 39.58H103.228L107.21 33.046V42H110.73V26.6ZM114.917 30.032C115.995 30.032 116.897 29.13 116.897 28.052C116.897 26.974 115.995 26.072 114.917 26.072C113.839 26.072 112.937 26.974 112.937 28.052C112.937 29.13 113.839 30.032 114.917 30.032ZM113.267 42H116.567V31H113.267V42ZM121.998 34.212C121.998 33.816 122.35 33.596 122.922 33.596C123.648 33.596 124.088 33.992 124.396 34.564L127.212 33.046C126.288 31.484 124.704 30.692 122.922 30.692C120.634 30.692 118.61 31.902 118.61 34.3C118.61 38.106 124.022 37.468 124.022 38.678C124.022 39.118 123.626 39.36 122.834 39.36C121.866 39.36 121.25 38.898 120.964 38.062L118.104 39.69C118.962 41.472 120.634 42.308 122.834 42.308C125.21 42.308 127.41 41.23 127.41 38.7C127.41 34.63 121.998 35.466 121.998 34.212ZM131.623 34.212C131.623 33.816 131.975 33.596 132.547 33.596C133.273 33.596 133.713 33.992 134.021 34.564L136.837 33.046C135.913 31.484 134.329 30.692 132.547 30.692C130.259 30.692 128.235 31.902 128.235 34.3C128.235 38.106 133.647 37.468 133.647 38.678C133.647 39.118 133.251 39.36 132.459 39.36C131.491 39.36 130.875 38.898 130.589 38.062L127.729 39.69C128.587 41.472 130.259 42.308 132.459 42.308C134.835 42.308 137.035 41.23 137.035 38.7C137.035 34.63 131.623 35.466 131.623 34.212ZM140.333 30.032C141.411 30.032 142.313 29.13 142.313 28.052C142.313 26.974 141.411 26.072 140.333 26.072C139.255 26.072 138.353 26.974 138.353 28.052C138.353 29.13 139.255 30.032 140.333 30.032ZM138.683 42H141.983V31H138.683V42ZM149.678 42.308C152.912 42.308 155.508 39.778 155.508 36.5C155.508 33.222 152.912 30.692 149.678 30.692C146.444 30.692 143.848 33.222 143.848 36.5C143.848 39.778 146.444 42.308 149.678 42.308ZM149.678 39.096C148.248 39.096 147.148 38.062 147.148 36.5C147.148 34.938 148.248 33.904 149.678 33.904C151.108 33.904 152.208 34.938 152.208 36.5C152.208 38.062 151.108 39.096 149.678 39.096ZM163.82 30.692C162.368 30.692 161.268 31.22 160.674 32.034V31H157.374V42H160.674V35.994C160.674 34.432 161.51 33.728 162.72 33.728C163.776 33.728 164.634 34.366 164.634 35.73V42H167.934V35.246C167.934 32.276 166.042 30.692 163.82 30.692Z" fill="black"/>
<defs>
<filter id="filter0_d_288_2188" x="2" y="6" width="260" height="178" filterUnits="userSpaceOnUse" color-interpolation-filters="sRGB">
<feFlood flood-opacity="0" result="BackgroundImageFix"/>
<feColorMatrix in="SourceAlpha" type="matrix" values="0 0 0 0 0 0 0 0 0 0 0 0 0 0 0 0 0 0 127 0" result="hardAlpha"/>
<feOffset dy="4"/>
<feGaussianBlur stdDeviation="2"/>
<feComposite in2="hardAlpha" operator="out"/>
<feColorMatrix type="matrix" values="0 0 0 0 0 0 0 0 0 0 0 0 0 0 0 0 0 0 0.25 0"/>
<feBlend mode="normal" in2="BackgroundImageFix" result="effect1_dropShadow_288_2188"/>
<feBlend mode="normal" in="SourceGraphic" in2="effect1_dropShadow_288_2188" result="shape"/>
</filter>
<filter id="filter1_d_288_2188" x="0" y="0" width="272" height="190" filterUnits="userSpaceOnUse" color-interpolation-filters="sRGB">
<feFlood flood-opacity="0" result="BackgroundImageFix"/>
<feColorMatrix in="SourceAlpha" type="matrix" values="0 0 0 0 0 0 0 0 0 0 0 0 0 0 0 0 0 0 127 0" result="hardAlpha"/>
<feOffset dx="4" dy="4"/>
<feGaussianBlur stdDeviation="5"/>
<feComposite in2="hardAlpha" operator="out"/>
<feColorMatrix type="matrix" values="0 0 0 0 0.607843 0 0 0 0 0.74902 0 0 0 0 0.498039 0 0 0 1 0"/>
<feBlend mode="normal" in2="BackgroundImageFix" result="effect1_dropShadow_288_2188"/>
<feBlend mode="normal" in="SourceGraphic" in2="effect1_dropShadow_288_2188" result="shape"/>
</filter>
</defs>
</svg>
