<svg width="272" height="190" viewBox="0 0 272 190" fill="none" xmlns="http://www.w3.org/2000/svg">
<g filter="url(#filter0_d_228_2227)">
<rect x="6" y="6" width="252" height="170" rx="5" fill="#9BBF7F"/>
</g>
<g filter="url(#filter1_d_228_2227)">
<rect x="6" y="6" width="252" height="170" rx="5" fill="white"/>
</g>
<path d="M73.8072 79H75.2152L79.5492 65.118L83.8612 79H85.2692L89.7352 63.6H88.5032L84.5432 77.438L80.2312 63.6H78.8452L74.5552 77.438L70.5732 63.6H69.3412L73.8072 79ZM95.7983 67.758C92.4323 67.758 90.1003 70.266 90.1003 73.5C90.1003 76.822 92.4983 79.242 95.8863 79.242C98.0643 79.242 99.7803 78.252 100.682 76.756L99.7143 76.184C99.0763 77.35 97.7123 78.186 95.9083 78.186C93.4003 78.186 91.5083 76.558 91.2443 74.072H101.21C101.21 73.896 101.232 73.72 101.232 73.544C101.232 70.53 99.1423 67.758 95.7983 67.758ZM95.7983 68.814C97.9543 68.814 99.8463 70.31 100.088 72.994H91.2443C91.4643 70.552 93.2903 68.814 95.7983 68.814ZM114.707 79.242C116.863 79.242 118.711 78.142 119.591 76.448L118.667 75.898C117.941 77.262 116.489 78.186 114.707 78.186C112.045 78.186 110.043 76.118 110.043 73.5C110.043 70.882 112.045 68.814 114.707 68.814C116.467 68.814 117.963 69.716 118.601 71.102L119.503 70.574C118.711 68.858 116.863 67.758 114.707 67.758C111.385 67.758 108.921 70.244 108.921 73.5C108.921 76.756 111.385 79.242 114.707 79.242ZM123.101 70.156V68H122.001V79H123.101V72.884C123.101 70.068 124.883 68.902 126.775 68.902V67.846C125.279 67.846 123.849 68.418 123.101 70.156ZM133.289 67.758C129.923 67.758 127.591 70.266 127.591 73.5C127.591 76.822 129.989 79.242 133.377 79.242C135.555 79.242 137.271 78.252 138.173 76.756L137.205 76.184C136.567 77.35 135.203 78.186 133.399 78.186C130.891 78.186 128.999 76.558 128.735 74.072H138.701C138.701 73.896 138.723 73.72 138.723 73.544C138.723 70.53 136.633 67.758 133.289 67.758ZM133.289 68.814C135.445 68.814 137.337 70.31 137.579 72.994H128.735C128.955 70.552 130.781 68.814 133.289 68.814ZM150.974 68V70.486C150.05 68.836 148.356 67.758 146.244 67.758C143.12 67.758 140.546 70.244 140.546 73.5C140.546 76.756 143.12 79.242 146.244 79.242C148.356 79.242 150.05 78.164 150.974 76.514V79H152.096V68H150.974ZM146.332 78.186C143.714 78.186 141.668 76.118 141.668 73.5C141.668 70.882 143.714 68.814 146.332 68.814C148.95 68.814 150.974 70.882 150.974 73.5C150.974 76.118 148.95 78.186 146.332 78.186ZM161.105 69.078V68H157.827V64.92L156.705 65.25V68H154.285V69.078H156.705V76.228C156.705 78.736 158.223 79.44 161.105 79V78.01C158.861 78.208 157.827 78.164 157.827 76.228V69.078H161.105ZM168.029 67.758C164.663 67.758 162.331 70.266 162.331 73.5C162.331 76.822 164.729 79.242 168.117 79.242C170.295 79.242 172.011 78.252 172.913 76.756L171.945 76.184C171.307 77.35 169.943 78.186 168.139 78.186C165.631 78.186 163.739 76.558 163.475 74.072H173.441C173.441 73.896 173.463 73.72 173.463 73.544C173.463 70.53 171.373 67.758 168.029 67.758ZM168.029 68.814C170.185 68.814 172.077 70.31 172.319 72.994H163.475C163.695 70.552 165.521 68.814 168.029 68.814ZM191.579 68V70.486C190.655 68.836 188.961 67.758 186.849 67.758C183.725 67.758 181.151 70.244 181.151 73.5C181.151 76.756 183.725 79.242 186.849 79.242C188.961 79.242 190.655 78.164 191.579 76.514V79H192.701V68H191.579ZM186.937 78.186C184.319 78.186 182.273 76.118 182.273 73.5C182.273 70.882 184.319 68.814 186.937 68.814C189.555 68.814 191.579 70.882 191.579 73.5C191.579 76.118 189.555 78.186 186.937 78.186ZM75.6764 95.882C75.6764 94.562 76.8864 93.814 78.3164 93.814C79.5264 93.814 80.6704 94.342 81.1324 95.486L82.0564 94.958C81.4624 93.616 80.0984 92.758 78.3164 92.758C76.0724 92.758 74.5764 94.144 74.5764 95.882C74.5764 99.842 81.2424 98.126 81.2424 101.118C81.2424 102.504 79.9444 103.186 78.4044 103.186C76.7544 103.186 75.5664 102.438 75.1704 101.25L74.2244 101.8C74.7524 103.208 76.2044 104.242 78.4044 104.242C80.7584 104.242 82.3424 102.922 82.3424 101.118C82.3424 97.092 75.6764 98.83 75.6764 95.882ZM92.8171 93V98.808C92.8171 101.778 91.1231 103.186 88.9671 103.186C86.8991 103.186 85.7331 101.866 85.7331 99.842V93H84.6111V99.842C84.6111 102.504 86.2611 104.242 88.8791 104.242C90.5731 104.242 91.9811 103.538 92.8171 101.91V104H93.9171V93H92.8171ZM98.0631 95.882C98.0631 94.562 99.2731 93.814 100.703 93.814C101.913 93.814 103.057 94.342 103.519 95.486L104.443 94.958C103.849 93.616 102.485 92.758 100.703 92.758C98.4591 92.758 96.9631 94.144 96.9631 95.882C96.9631 99.842 103.629 98.126 103.629 101.118C103.629 102.504 102.331 103.186 100.791 103.186C99.1411 103.186 97.9531 102.438 97.5571 101.25L96.6111 101.8C97.1391 103.208 98.5911 104.242 100.791 104.242C103.145 104.242 104.729 102.922 104.729 101.118C104.729 97.092 98.0631 98.83 98.0631 95.882ZM112.594 94.078V93H109.316V89.92L108.194 90.25V93H105.774V94.078H108.194V101.228C108.194 103.736 109.712 104.44 112.594 104V103.01C110.35 103.208 109.316 103.164 109.316 101.228V94.078H112.594ZM124.247 93V95.486C123.323 93.836 121.629 92.758 119.517 92.758C116.393 92.758 113.819 95.244 113.819 98.5C113.819 101.756 116.393 104.242 119.517 104.242C121.629 104.242 123.323 103.164 124.247 101.514V104H125.369V93H124.247ZM119.605 103.186C116.987 103.186 114.941 101.118 114.941 98.5C114.941 95.882 116.987 93.814 119.605 93.814C122.223 93.814 124.247 95.882 124.247 98.5C124.247 101.118 122.223 103.186 119.605 103.186ZM129.297 90.338C129.781 90.338 130.177 89.942 130.177 89.458C130.177 88.996 129.781 88.6 129.297 88.6C128.813 88.6 128.417 88.996 128.417 89.458C128.417 89.942 128.813 90.338 129.297 90.338ZM128.747 104H129.847V93H128.747V104ZM138.275 92.758C136.581 92.758 135.173 93.462 134.337 95.09V93H133.237V104H134.337V98.192C134.337 95.222 136.031 93.814 138.187 93.814C140.255 93.814 141.421 95.134 141.421 97.158V104H142.543V97.158C142.543 94.496 140.893 92.758 138.275 92.758ZM155.335 93V95.486C154.411 93.836 152.717 92.758 150.605 92.758C147.481 92.758 144.907 95.244 144.907 98.5C144.907 101.756 147.481 104.242 150.605 104.242C152.717 104.242 154.411 103.164 155.335 101.514V104H156.457V93H155.335ZM150.693 103.186C148.075 103.186 146.029 101.118 146.029 98.5C146.029 95.882 148.075 93.814 150.693 93.814C153.311 93.814 155.335 95.882 155.335 98.5C155.335 101.118 153.311 103.186 150.693 103.186ZM165.665 92.758C163.531 92.758 161.837 93.858 160.935 95.552V88.6H159.835V104H160.935V101.448C161.837 103.142 163.531 104.242 165.665 104.242C168.811 104.242 171.363 101.756 171.363 98.5C171.363 95.244 168.811 92.758 165.665 92.758ZM165.599 103.186C162.981 103.186 160.935 101.118 160.935 98.5C160.935 95.882 162.981 93.814 165.599 93.814C168.217 93.814 170.263 95.882 170.263 98.5C170.263 101.118 168.217 103.186 165.599 103.186ZM174.014 104H175.114V87.94H174.014V104ZM183.455 92.758C180.089 92.758 177.757 95.266 177.757 98.5C177.757 101.822 180.155 104.242 183.543 104.242C185.721 104.242 187.437 103.252 188.339 101.756L187.371 101.184C186.733 102.35 185.369 103.186 183.565 103.186C181.057 103.186 179.165 101.558 178.901 99.072H188.867C188.867 98.896 188.889 98.72 188.889 98.544C188.889 95.53 186.799 92.758 183.455 92.758ZM183.455 93.814C185.611 93.814 187.503 95.31 187.745 97.994H178.901C179.121 95.552 180.947 93.814 183.455 93.814ZM82.0181 129.242C84.1741 129.242 86.0221 128.142 86.9021 126.448L85.9781 125.898C85.2521 127.262 83.8001 128.186 82.0181 128.186C79.3561 128.186 77.3541 126.118 77.3541 123.5C77.3541 120.882 79.3561 118.814 82.0181 118.814C83.7781 118.814 85.2741 119.716 85.9121 121.102L86.8141 120.574C86.0221 118.858 84.1741 117.758 82.0181 117.758C78.6961 117.758 76.2321 120.244 76.2321 123.5C76.2321 126.756 78.6961 129.242 82.0181 129.242ZM94.2427 129.242C97.4327 129.242 100.007 126.756 100.007 123.5C100.007 120.244 97.4327 117.758 94.2427 117.758C91.0307 117.758 88.4567 120.244 88.4567 123.5C88.4567 126.756 91.0307 129.242 94.2427 129.242ZM94.2427 128.186C91.6247 128.186 89.5787 126.118 89.5787 123.5C89.5787 120.882 91.6247 118.814 94.2427 118.814C96.8607 118.814 98.8847 120.882 98.8847 123.5C98.8847 126.118 96.8607 128.186 94.2427 128.186ZM114.402 117.758C112.928 117.758 111.52 118.462 110.728 120.002C110.156 118.55 108.902 117.758 107.296 117.758C105.888 117.758 104.568 118.374 103.754 119.892V118H102.654V129H103.754V122.862C103.754 120.046 105.36 118.814 107.164 118.814C108.858 118.814 109.98 119.936 109.98 122.026V129H111.08V122.862C111.08 120.046 112.532 118.814 114.38 118.814C116.096 118.814 117.306 119.936 117.306 122.026V129H118.406V122.026C118.406 119.276 116.734 117.758 114.402 117.758ZM133.265 117.758C131.791 117.758 130.383 118.462 129.591 120.002C129.019 118.55 127.765 117.758 126.159 117.758C124.751 117.758 123.431 118.374 122.617 119.892V118H121.517V129H122.617V122.862C122.617 120.046 124.223 118.814 126.027 118.814C127.721 118.814 128.843 119.936 128.843 122.026V129H129.943V122.862C129.943 120.046 131.395 118.814 133.243 118.814C134.959 118.814 136.169 119.936 136.169 122.026V129H137.269V122.026C137.269 119.276 135.597 117.758 133.265 117.758ZM148.301 118V123.808C148.301 126.778 146.607 128.186 144.451 128.186C142.383 128.186 141.217 126.866 141.217 124.842V118H140.095V124.842C140.095 127.504 141.745 129.242 144.363 129.242C146.057 129.242 147.465 128.538 148.301 126.91V129H149.401V118H148.301ZM157.836 117.758C156.142 117.758 154.734 118.462 153.898 120.09V118H152.798V129H153.898V123.192C153.898 120.222 155.592 118.814 157.748 118.814C159.816 118.814 160.982 120.134 160.982 122.158V129H162.104V122.158C162.104 119.496 160.454 117.758 157.836 117.758ZM165.766 115.338C166.25 115.338 166.646 114.942 166.646 114.458C166.646 113.996 166.25 113.6 165.766 113.6C165.282 113.6 164.886 113.996 164.886 114.458C164.886 114.942 165.282 115.338 165.766 115.338ZM165.216 129H166.316V118H165.216V129ZM175.339 119.078V118H172.061V114.92L170.939 115.25V118H168.519V119.078H170.939V126.228C170.939 128.736 172.457 129.44 175.339 129V128.01C173.095 128.208 172.061 128.164 172.061 126.228V119.078H175.339ZM186.245 118L182.417 127.79L177.973 118H176.785L181.845 129.198L181.603 129.792C180.921 131.398 179.799 132.498 178.325 132.366V133.4C180.217 133.554 181.845 132.124 182.681 130.012L187.433 118H186.245Z" fill="black"/>
<path d="M109.342 27.2H105.502L100.942 34.664L96.3816 27.2H92.5416V44H96.3816V34.232L100.726 41.36H101.158L105.502 34.232V44H109.342V27.2ZM113.909 30.944C115.085 30.944 116.069 29.96 116.069 28.784C116.069 27.608 115.085 26.624 113.909 26.624C112.733 26.624 111.749 27.608 111.749 28.784C111.749 29.96 112.733 30.944 113.909 30.944ZM112.109 44H115.709V32H112.109V44ZM121.634 35.504C121.634 35.072 122.018 34.832 122.642 34.832C123.434 34.832 123.914 35.264 124.25 35.888L127.322 34.232C126.314 32.528 124.586 31.664 122.642 31.664C120.146 31.664 117.938 32.984 117.938 35.6C117.938 39.752 123.842 39.056 123.842 40.376C123.842 40.856 123.41 41.12 122.546 41.12C121.49 41.12 120.818 40.616 120.506 39.704L117.386 41.48C118.322 43.424 120.146 44.336 122.546 44.336C125.138 44.336 127.538 43.16 127.538 40.4C127.538 35.96 121.634 36.872 121.634 35.504ZM132.134 35.504C132.134 35.072 132.518 34.832 133.142 34.832C133.934 34.832 134.414 35.264 134.75 35.888L137.822 34.232C136.814 32.528 135.086 31.664 133.142 31.664C130.646 31.664 128.438 32.984 128.438 35.6C128.438 39.752 134.342 39.056 134.342 40.376C134.342 40.856 133.91 41.12 133.046 41.12C131.99 41.12 131.318 40.616 131.006 39.704L127.886 41.48C128.822 43.424 130.646 44.336 133.046 44.336C135.638 44.336 138.038 43.16 138.038 40.4C138.038 35.96 132.134 36.872 132.134 35.504ZM141.636 30.944C142.812 30.944 143.796 29.96 143.796 28.784C143.796 27.608 142.812 26.624 141.636 26.624C140.46 26.624 139.476 27.608 139.476 28.784C139.476 29.96 140.46 30.944 141.636 30.944ZM139.836 44H143.436V32H139.836V44ZM151.83 44.336C155.358 44.336 158.19 41.576 158.19 38C158.19 34.424 155.358 31.664 151.83 31.664C148.302 31.664 145.47 34.424 145.47 38C145.47 41.576 148.302 44.336 151.83 44.336ZM151.83 40.832C150.27 40.832 149.07 39.704 149.07 38C149.07 36.296 150.27 35.168 151.83 35.168C153.39 35.168 154.59 36.296 154.59 38C154.59 39.704 153.39 40.832 151.83 40.832ZM167.258 31.664C165.674 31.664 164.474 32.24 163.826 33.128V32H160.226V44H163.826V37.448C163.826 35.744 164.738 34.976 166.058 34.976C167.21 34.976 168.146 35.672 168.146 37.16V44H171.746V36.632C171.746 33.392 169.682 31.664 167.258 31.664Z" fill="black"/>
<defs>
<filter id="filter0_d_228_2227" x="2" y="6" width="260" height="178" filterUnits="userSpaceOnUse" color-interpolation-filters="sRGB">
<feFlood flood-opacity="0" result="BackgroundImageFix"/>
<feColorMatrix in="SourceAlpha" type="matrix" values="0 0 0 0 0 0 0 0 0 0 0 0 0 0 0 0 0 0 127 0" result="hardAlpha"/>
<feOffset dy="4"/>
<feGaussianBlur stdDeviation="2"/>
<feComposite in2="hardAlpha" operator="out"/>
<feColorMatrix type="matrix" values="0 0 0 0 0 0 0 0 0 0 0 0 0 0 0 0 0 0 0.25 0"/>
<feBlend mode="normal" in2="BackgroundImageFix" result="effect1_dropShadow_228_2227"/>
<feBlend mode="normal" in="SourceGraphic" in2="effect1_dropShadow_228_2227" result="shape"/>
</filter>
<filter id="filter1_d_228_2227" x="0" y="0" width="272" height="190" filterUnits="userSpaceOnUse" color-interpolation-filters="sRGB">
<feFlood flood-opacity="0" result="BackgroundImageFix"/>
<feColorMatrix in="SourceAlpha" type="matrix" values="0 0 0 0 0 0 0 0 0 0 0 0 0 0 0 0 0 0 127 0" result="hardAlpha"/>
<feOffset dx="4" dy="4"/>
<feGaussianBlur stdDeviation="5"/>
<feComposite in2="hardAlpha" operator="out"/>
<feColorMatrix type="matrix" values="0 0 0 0 0.607843 0 0 0 0 0.74902 0 0 0 0 0.498039 0 0 0 1 0"/>
<feBlend mode="normal" in2="BackgroundImageFix" result="effect1_dropShadow_228_2227"/>
<feBlend mode="normal" in="SourceGraphic" in2="effect1_dropShadow_228_2227" result="shape"/>
</filter>
</defs>
</svg>
