<svg width="1068" height="52" viewBox="0 0 1068 52" fill="none" xmlns="http://www.w3.org/2000/svg">
<path d="M363.703 8.8H344.983V14.344H351.463V34H357.223V14.344H363.703V8.8ZM376.807 34.504C384.043 34.504 389.911 28.816 389.911 21.4C389.911 13.984 384.043 8.296 376.807 8.296C369.571 8.296 363.703 13.984 363.703 21.4C363.703 28.816 369.571 34.504 376.807 34.504ZM376.807 28.888C372.703 28.888 369.463 25.9 369.463 21.4C369.463 16.9 372.703 13.912 376.807 13.912C380.911 13.912 384.151 16.9 384.151 21.4C384.151 25.9 380.911 28.888 376.807 28.888ZM402.694 8.8H393.154V34H398.914V26.08H402.694C407.662 26.08 411.514 22.228 411.514 17.44C411.514 12.652 407.662 8.8 402.694 8.8ZM402.694 20.68H398.914V14.2H402.694C404.458 14.2 405.754 15.604 405.754 17.44C405.754 19.276 404.458 20.68 402.694 20.68ZM432.929 8.8H423.389V34H429.149V26.08H432.929C437.897 26.08 441.749 22.228 441.749 17.44C441.749 12.652 437.897 8.8 432.929 8.8ZM432.929 20.68H429.149V14.2H432.929C434.693 14.2 435.989 15.604 435.989 17.44C435.989 19.276 434.693 20.68 432.929 20.68ZM444.623 8.8V34H450.383V8.8H444.623ZM466.737 34.504C471.345 34.504 475.377 32.236 477.537 28.672L472.569 25.792C471.489 27.736 469.293 28.888 466.737 28.888C462.273 28.888 459.393 25.9 459.393 21.4C459.393 16.9 462.273 13.912 466.737 13.912C469.293 13.912 471.453 15.064 472.569 17.008L477.537 14.128C475.341 10.564 471.309 8.296 466.737 8.296C459.141 8.296 453.633 13.984 453.633 21.4C453.633 28.816 459.141 34.504 466.737 34.504ZM500.612 34L491.756 21.076L500.252 8.8H493.7L485.996 19.744V8.8H480.236V34H485.996V22.336L494.06 34H500.612ZM510.15 34.504C515.622 34.504 519.51 31.624 519.51 26.764C519.51 21.436 515.226 20.104 511.41 18.952C507.486 17.764 506.874 16.972 506.874 15.82C506.874 14.812 507.774 13.912 509.574 13.912C511.878 13.912 513.066 15.028 513.93 16.828L518.79 13.984C516.954 10.276 513.714 8.296 509.574 8.296C505.218 8.296 501.114 11.104 501.114 15.964C501.114 20.788 504.786 22.588 508.53 23.632C512.31 24.676 513.75 25.288 513.75 26.836C513.75 27.808 513.066 28.888 510.33 28.888C507.486 28.888 505.938 27.484 505.038 25.396L500.07 28.276C501.474 31.984 504.858 34.504 510.15 34.504ZM546.689 14.344V8.8H531.389V34H537.149V24.748H546.509V19.204H537.149V14.344H546.689ZM562.116 34.504C569.352 34.504 575.22 28.816 575.22 21.4C575.22 13.984 569.352 8.296 562.116 8.296C554.88 8.296 549.012 13.984 549.012 21.4C549.012 28.816 554.88 34.504 562.116 34.504ZM562.116 28.888C558.012 28.888 554.772 25.9 554.772 21.4C554.772 16.9 558.012 13.912 562.116 13.912C566.22 13.912 569.46 16.9 569.46 21.4C569.46 25.9 566.22 28.888 562.116 28.888ZM591.711 34H597.903L592.539 24.748C595.311 23.344 597.183 20.536 597.183 17.44C597.183 12.652 593.331 8.8 588.543 8.8H578.463V34H584.223V25.72H586.959L591.711 34ZM584.223 14.2H588.543C590.127 14.2 591.423 15.604 591.423 17.44C591.423 19.276 590.127 20.68 588.543 20.68H584.223V14.2ZM626.531 8.8H607.811V14.344H614.291V34H620.051V14.344H626.531V8.8ZM639.635 34.504C646.871 34.504 652.739 28.816 652.739 21.4C652.739 13.984 646.871 8.296 639.635 8.296C632.399 8.296 626.531 13.984 626.531 21.4C626.531 28.816 632.399 34.504 639.635 34.504ZM639.635 28.888C635.531 28.888 632.291 25.9 632.291 21.4C632.291 16.9 635.531 13.912 639.635 13.912C643.739 13.912 646.979 16.9 646.979 21.4C646.979 25.9 643.739 28.888 639.635 28.888ZM666.062 8.8H655.982V34H666.062C673.01 34 678.302 28.528 678.302 21.4C678.302 14.272 673.01 8.8 666.062 8.8ZM666.062 28.456H661.742V14.344H666.062C670.022 14.344 672.758 17.08 672.758 21.4C672.758 25.72 670.022 28.456 666.062 28.456ZM696.647 34H702.947L694.379 8.8H687.035L678.467 34H684.767L686.027 30.04H695.387L696.647 34ZM687.755 24.64L690.707 15.388L693.659 24.64H687.755ZM722.381 8.8H715.829L711.041 18.52L706.253 8.8H699.701L708.161 24.316V34H713.921V24.316L722.381 8.8Z" fill="black"/>
<line x1="4.37114e-08" y1="25.5" x2="315" y2="25.5" stroke="black"/>
<line x1="753" y1="25.5" x2="1068" y2="25.5" stroke="black"/>
</svg>
