<svg width="272" height="190" viewBox="0 0 272 190" fill="none" xmlns="http://www.w3.org/2000/svg">
<g filter="url(#filter0_d_288_2189)">
<rect x="6" y="6" width="252" height="170" rx="5" fill="#9BBF7F"/>
</g>
<g filter="url(#filter1_d_288_2189)">
<rect x="6" y="6" width="252" height="170" rx="5" fill="white"/>
</g>
<path d="M103.844 63H93.9639V64H98.3639V77H99.4439V64H103.844V63ZM106.345 64.58C106.785 64.58 107.145 64.22 107.145 63.78C107.145 63.36 106.785 63 106.345 63C105.905 63 105.545 63.36 105.545 63.78C105.545 64.22 105.905 64.58 106.345 64.58ZM105.845 77H106.845V67H105.845V77ZM120.607 66.78C119.267 66.78 117.987 67.42 117.267 68.82C116.747 67.5 115.607 66.78 114.147 66.78C112.867 66.78 111.667 67.34 110.927 68.72V67H109.927V77H110.927V71.42C110.927 68.86 112.387 67.74 114.027 67.74C115.567 67.74 116.587 68.76 116.587 70.66V77H117.587V71.42C117.587 68.86 118.907 67.74 120.587 67.74C122.147 67.74 123.247 68.76 123.247 70.66V77H124.247V70.66C124.247 68.16 122.727 66.78 120.607 66.78ZM131.575 66.78C128.515 66.78 126.395 69.06 126.395 72C126.395 75.02 128.575 77.22 131.655 77.22C133.635 77.22 135.195 76.32 136.015 74.96L135.135 74.44C134.555 75.5 133.315 76.26 131.675 76.26C129.395 76.26 127.675 74.78 127.435 72.52H136.495C136.495 72.36 136.515 72.2 136.515 72.04C136.515 69.3 134.615 66.78 131.575 66.78ZM131.575 67.74C133.535 67.74 135.255 69.1 135.475 71.54H127.435C127.635 69.32 129.295 67.74 131.575 67.74ZM138.853 77H139.853V62.4H138.853V77ZM147.435 66.78C144.375 66.78 142.255 69.06 142.255 72C142.255 75.02 144.435 77.22 147.515 77.22C149.495 77.22 151.055 76.32 151.875 74.96L150.995 74.44C150.415 75.5 149.175 76.26 147.535 76.26C145.255 76.26 143.535 74.78 143.295 72.52H152.355C152.355 72.36 152.375 72.2 152.375 72.04C152.375 69.3 150.475 66.78 147.435 66.78ZM147.435 67.74C149.395 67.74 151.115 69.1 151.335 71.54H143.295C143.495 69.32 145.155 67.74 147.435 67.74ZM155.001 69.62C155.001 68.42 156.101 67.74 157.401 67.74C158.501 67.74 159.541 68.22 159.961 69.26L160.801 68.78C160.261 67.56 159.021 66.78 157.401 66.78C155.361 66.78 154.001 68.04 154.001 69.62C154.001 73.22 160.061 71.66 160.061 74.38C160.061 75.64 158.881 76.26 157.481 76.26C155.981 76.26 154.901 75.58 154.541 74.5L153.681 75C154.161 76.28 155.481 77.22 157.481 77.22C159.621 77.22 161.061 76.02 161.061 74.38C161.061 70.72 155.001 72.3 155.001 69.62ZM163.556 69.62C163.556 68.42 164.656 67.74 165.956 67.74C167.056 67.74 168.096 68.22 168.516 69.26L169.356 68.78C168.816 67.56 167.576 66.78 165.956 66.78C163.916 66.78 162.556 68.04 162.556 69.62C162.556 73.22 168.616 71.66 168.616 74.38C168.616 75.64 167.436 76.26 166.036 76.26C164.536 76.26 163.456 75.58 163.096 74.5L162.236 75C162.716 76.28 164.036 77.22 166.036 77.22C168.176 77.22 169.616 76.02 169.616 74.38C169.616 70.72 163.556 72.3 163.556 69.62ZM97.8288 86V92.32C97.0088 90.78 95.4688 89.78 93.5288 89.78C90.6688 89.78 88.3488 92.04 88.3488 95C88.3488 97.96 90.6688 100.22 93.5288 100.22C95.4688 100.22 97.0088 99.22 97.8288 97.68V100H98.8288V86H97.8288ZM93.5888 99.26C91.2088 99.26 89.3488 97.38 89.3488 95C89.3488 92.62 91.2088 90.74 93.5888 90.74C95.9688 90.74 97.8288 92.62 97.8288 95C97.8288 97.38 95.9688 99.26 93.5888 99.26ZM106.399 89.78C103.339 89.78 101.219 92.06 101.219 95C101.219 98.02 103.399 100.22 106.479 100.22C108.459 100.22 110.019 99.32 110.839 97.96L109.959 97.44C109.379 98.5 108.139 99.26 106.499 99.26C104.219 99.26 102.499 97.78 102.259 95.52H111.319C111.319 95.36 111.339 95.2 111.339 95.04C111.339 92.3 109.439 89.78 106.399 89.78ZM106.399 90.74C108.359 90.74 110.079 92.1 110.299 94.54H102.259C102.459 92.32 104.119 90.74 106.399 90.74ZM113.966 92.62C113.966 91.42 115.066 90.74 116.366 90.74C117.466 90.74 118.506 91.22 118.926 92.26L119.766 91.78C119.226 90.56 117.986 89.78 116.366 89.78C114.326 89.78 112.966 91.04 112.966 92.62C112.966 96.22 119.026 94.66 119.026 97.38C119.026 98.64 117.846 99.26 116.446 99.26C114.946 99.26 113.866 98.58 113.506 97.5L112.646 98C113.126 99.28 114.446 100.22 116.446 100.22C118.586 100.22 120.026 99.02 120.026 97.38C120.026 93.72 113.966 95.3 113.966 92.62ZM122.849 87.58C123.289 87.58 123.649 87.22 123.649 86.78C123.649 86.36 123.289 86 122.849 86C122.409 86 122.049 86.36 122.049 86.78C122.049 87.22 122.409 87.58 122.849 87.58ZM122.349 100H123.349V90H122.349V100ZM135.311 90V92.32C134.491 90.78 132.951 89.78 131.011 89.78C128.151 89.78 125.831 92.04 125.831 95C125.831 97.96 128.151 100.22 131.011 100.22C132.951 100.22 134.491 99.22 135.311 97.68V99.52C135.311 101.8 133.831 103.26 131.331 103.26C129.131 103.26 128.011 102.38 127.491 101.32L126.611 101.82C127.331 103.28 128.991 104.22 131.331 104.22C134.091 104.22 136.311 102.52 136.311 99.52V90H135.311ZM131.071 99.26C128.691 99.26 126.831 97.38 126.831 95C126.831 92.62 128.691 90.74 131.071 90.74C133.451 90.74 135.311 92.62 135.311 95C135.311 97.38 133.451 99.26 131.071 99.26ZM143.979 89.78C142.439 89.78 141.159 90.42 140.399 91.9V90H139.399V100H140.399V94.72C140.399 92.02 141.939 90.74 143.899 90.74C145.779 90.74 146.839 91.94 146.839 93.78V100H147.859V93.78C147.859 91.36 146.359 89.78 143.979 89.78ZM164.82 90V92.26C163.98 90.76 162.44 89.78 160.52 89.78C157.68 89.78 155.34 92.04 155.34 95C155.34 97.96 157.68 100.22 160.52 100.22C162.44 100.22 163.98 99.24 164.82 97.74V100H165.84V90H164.82ZM160.6 99.26C158.22 99.26 156.36 97.38 156.36 95C156.36 92.62 158.22 90.74 160.6 90.74C162.98 90.74 164.82 92.62 164.82 95C164.82 97.38 162.98 99.26 160.6 99.26ZM169.591 92.62C169.591 91.42 170.691 90.74 171.991 90.74C173.091 90.74 174.131 91.22 174.551 92.26L175.391 91.78C174.851 90.56 173.611 89.78 171.991 89.78C169.951 89.78 168.591 91.04 168.591 92.62C168.591 96.22 174.651 94.66 174.651 97.38C174.651 98.64 173.471 99.26 172.071 99.26C170.571 99.26 169.491 98.58 169.131 97.5L168.271 98C168.751 99.28 170.071 100.22 172.071 100.22C174.211 100.22 175.651 99.02 175.651 97.38C175.651 93.72 169.591 95.3 169.591 92.62ZM74.1028 115.62C74.1028 114.42 75.2028 113.74 76.5028 113.74C77.6028 113.74 78.6428 114.22 79.0628 115.26L79.9028 114.78C79.3628 113.56 78.1228 112.78 76.5028 112.78C74.4628 112.78 73.1028 114.04 73.1028 115.62C73.1028 119.22 79.1628 117.66 79.1628 120.38C79.1628 121.64 77.9828 122.26 76.5828 122.26C75.0828 122.26 74.0028 121.58 73.6428 120.5L72.7828 121C73.2628 122.28 74.5828 123.22 76.5828 123.22C78.7228 123.22 80.1628 122.02 80.1628 120.38C80.1628 116.72 74.1028 118.3 74.1028 115.62ZM89.6853 113V118.28C89.6853 120.98 88.1453 122.26 86.1853 122.26C84.3053 122.26 83.2453 121.06 83.2453 119.22V113H82.2253V119.22C82.2253 121.64 83.7253 123.22 86.1053 123.22C87.6453 123.22 88.9253 122.58 89.6853 121.1V123H90.6853V113H89.6853ZM94.4544 115.62C94.4544 114.42 95.5544 113.74 96.8544 113.74C97.9544 113.74 98.9944 114.22 99.4144 115.26L100.254 114.78C99.7144 113.56 98.4744 112.78 96.8544 112.78C94.8144 112.78 93.4544 114.04 93.4544 115.62C93.4544 119.22 99.5144 117.66 99.5144 120.38C99.5144 121.64 98.3344 122.26 96.9344 122.26C95.4344 122.26 94.3544 121.58 93.9944 120.5L93.1344 121C93.6144 122.28 94.9344 123.22 96.9344 123.22C99.0744 123.22 100.514 122.02 100.514 120.38C100.514 116.72 94.4544 118.3 94.4544 115.62ZM107.664 113.98V113H104.684V110.2L103.664 110.5V113H101.464V113.98H103.664V120.48C103.664 122.76 105.044 123.4 107.664 123V122.1C105.624 122.28 104.684 122.24 104.684 120.48V113.98H107.664ZM118.258 113V115.26C117.418 113.76 115.878 112.78 113.958 112.78C111.118 112.78 108.778 115.04 108.778 118C108.778 120.96 111.118 123.22 113.958 123.22C115.878 123.22 117.418 122.24 118.258 120.74V123H119.278V113H118.258ZM114.038 122.26C111.658 122.26 109.798 120.38 109.798 118C109.798 115.62 111.658 113.74 114.038 113.74C116.418 113.74 118.258 115.62 118.258 118C118.258 120.38 116.418 122.26 114.038 122.26ZM122.849 110.58C123.289 110.58 123.649 110.22 123.649 109.78C123.649 109.36 123.289 109 122.849 109C122.409 109 122.049 109.36 122.049 109.78C122.049 110.22 122.409 110.58 122.849 110.58ZM122.349 123H123.349V113H122.349V123ZM131.011 112.78C129.471 112.78 128.191 113.42 127.431 114.9V113H126.431V123H127.431V117.72C127.431 115.02 128.971 113.74 130.931 113.74C132.811 113.74 133.871 114.94 133.871 116.78V123H134.891V116.78C134.891 114.36 133.391 112.78 131.011 112.78ZM146.52 113V115.26C145.68 113.76 144.14 112.78 142.22 112.78C139.38 112.78 137.04 115.04 137.04 118C137.04 120.96 139.38 123.22 142.22 123.22C144.14 123.22 145.68 122.24 146.52 120.74V123H147.54V113H146.52ZM142.3 122.26C139.92 122.26 138.06 120.38 138.06 118C138.06 115.62 139.92 113.74 142.3 113.74C144.68 113.74 146.52 115.62 146.52 118C146.52 120.38 144.68 122.26 142.3 122.26ZM155.91 112.78C153.97 112.78 152.43 113.78 151.61 115.32V109H150.61V123H151.61V120.68C152.43 122.22 153.97 123.22 155.91 123.22C158.77 123.22 161.09 120.96 161.09 118C161.09 115.04 158.77 112.78 155.91 112.78ZM155.85 122.26C153.47 122.26 151.61 120.38 151.61 118C151.61 115.62 153.47 113.74 155.85 113.74C158.23 113.74 160.09 115.62 160.09 118C160.09 120.38 158.23 122.26 155.85 122.26ZM164.001 110.58C164.441 110.58 164.801 110.22 164.801 109.78C164.801 109.36 164.441 109 164.001 109C163.561 109 163.201 109.36 163.201 109.78C163.201 110.22 163.561 110.58 164.001 110.58ZM163.501 123H164.501V113H163.501V123ZM167.583 123H168.583V108.4H167.583V123ZM172.165 110.58C172.605 110.58 172.965 110.22 172.965 109.78C172.965 109.36 172.605 109 172.165 109C171.725 109 171.365 109.36 171.365 109.78C171.365 110.22 171.725 110.58 172.165 110.58ZM171.665 123H172.665V113H171.665V123ZM180.867 113.98V113H177.887V110.2L176.867 110.5V113H174.667V113.98H176.867V120.48C176.867 122.76 178.247 123.4 180.867 123V122.1C178.827 122.28 177.887 122.24 177.887 120.48V113.98H180.867ZM190.782 113L187.302 121.9L183.262 113H182.182L186.782 123.18L186.562 123.72C185.942 125.18 184.922 126.18 183.582 126.06V127C185.302 127.14 186.782 125.84 187.542 123.92L191.862 113H190.782Z" fill="black"/>
<path d="M105.315 42H109.803L114.819 26.6H110.969L107.559 37.93L104.149 26.6H100.299L105.315 42ZM117.253 30.032C118.331 30.032 119.233 29.13 119.233 28.052C119.233 26.974 118.331 26.072 117.253 26.072C116.175 26.072 115.273 26.974 115.273 28.052C115.273 29.13 116.175 30.032 117.253 30.032ZM115.603 42H118.903V31H115.603V42ZM124.334 34.212C124.334 33.816 124.686 33.596 125.258 33.596C125.984 33.596 126.424 33.992 126.732 34.564L129.548 33.046C128.624 31.484 127.04 30.692 125.258 30.692C122.97 30.692 120.946 31.902 120.946 34.3C120.946 38.106 126.358 37.468 126.358 38.678C126.358 39.118 125.962 39.36 125.17 39.36C124.202 39.36 123.586 38.898 123.3 38.062L120.44 39.69C121.298 41.472 122.97 42.308 125.17 42.308C127.546 42.308 129.746 41.23 129.746 38.7C129.746 34.63 124.334 35.466 124.334 34.212ZM133.044 30.032C134.122 30.032 135.024 29.13 135.024 28.052C135.024 26.974 134.122 26.072 133.044 26.072C131.966 26.072 131.064 26.974 131.064 28.052C131.064 29.13 131.966 30.032 133.044 30.032ZM131.394 42H134.694V31H131.394V42ZM142.388 42.308C145.622 42.308 148.218 39.778 148.218 36.5C148.218 33.222 145.622 30.692 142.388 30.692C139.154 30.692 136.558 33.222 136.558 36.5C136.558 39.778 139.154 42.308 142.388 42.308ZM142.388 39.096C140.958 39.096 139.858 38.062 139.858 36.5C139.858 34.938 140.958 33.904 142.388 33.904C143.818 33.904 144.918 34.938 144.918 36.5C144.918 38.062 143.818 39.096 142.388 39.096ZM156.531 30.692C155.079 30.692 153.979 31.22 153.385 32.034V31H150.085V42H153.385V35.994C153.385 34.432 154.221 33.728 155.431 33.728C156.487 33.728 157.345 34.366 157.345 35.73V42H160.645V35.246C160.645 32.276 158.753 30.692 156.531 30.692Z" fill="black"/>
<defs>
<filter id="filter0_d_288_2189" x="2" y="6" width="260" height="178" filterUnits="userSpaceOnUse" color-interpolation-filters="sRGB">
<feFlood flood-opacity="0" result="BackgroundImageFix"/>
<feColorMatrix in="SourceAlpha" type="matrix" values="0 0 0 0 0 0 0 0 0 0 0 0 0 0 0 0 0 0 127 0" result="hardAlpha"/>
<feOffset dy="4"/>
<feGaussianBlur stdDeviation="2"/>
<feComposite in2="hardAlpha" operator="out"/>
<feColorMatrix type="matrix" values="0 0 0 0 0 0 0 0 0 0 0 0 0 0 0 0 0 0 0.25 0"/>
<feBlend mode="normal" in2="BackgroundImageFix" result="effect1_dropShadow_288_2189"/>
<feBlend mode="normal" in="SourceGraphic" in2="effect1_dropShadow_288_2189" result="shape"/>
</filter>
<filter id="filter1_d_288_2189" x="0" y="0" width="272" height="190" filterUnits="userSpaceOnUse" color-interpolation-filters="sRGB">
<feFlood flood-opacity="0" result="BackgroundImageFix"/>
<feColorMatrix in="SourceAlpha" type="matrix" values="0 0 0 0 0 0 0 0 0 0 0 0 0 0 0 0 0 0 127 0" result="hardAlpha"/>
<feOffset dx="4" dy="4"/>
<feGaussianBlur stdDeviation="5"/>
<feComposite in2="hardAlpha" operator="out"/>
<feColorMatrix type="matrix" values="0 0 0 0 0.607843 0 0 0 0 0.74902 0 0 0 0 0.498039 0 0 0 1 0"/>
<feBlend mode="normal" in2="BackgroundImageFix" result="effect1_dropShadow_288_2189"/>
<feBlend mode="normal" in="SourceGraphic" in2="effect1_dropShadow_288_2189" result="shape"/>
</filter>
</defs>
</svg>
