<svg width="272" height="190" viewBox="0 0 272 190" fill="none" xmlns="http://www.w3.org/2000/svg">
<g filter="url(#filter0_d_228_2228)">
<rect x="6" y="6" width="252" height="170" rx="5" fill="#9BBF7F"/>
</g>
<g filter="url(#filter1_d_228_2228)">
<rect x="6" y="6" width="252" height="170" rx="5" fill="white"/>
</g>
<path d="M101.528 63.6H90.6603V64.7H95.5003V79H96.6883V64.7H101.528V63.6ZM104.279 65.338C104.763 65.338 105.159 64.942 105.159 64.458C105.159 63.996 104.763 63.6 104.279 63.6C103.795 63.6 103.399 63.996 103.399 64.458C103.399 64.942 103.795 65.338 104.279 65.338ZM103.729 79H104.829V68H103.729V79ZM119.967 67.758C118.493 67.758 117.085 68.462 116.293 70.002C115.721 68.55 114.467 67.758 112.861 67.758C111.453 67.758 110.133 68.374 109.319 69.892V68H108.219V79H109.319V72.862C109.319 70.046 110.925 68.814 112.729 68.814C114.423 68.814 115.545 69.936 115.545 72.026V79H116.645V72.862C116.645 70.046 118.097 68.814 119.945 68.814C121.661 68.814 122.871 69.936 122.871 72.026V79H123.971V72.026C123.971 69.276 122.299 67.758 119.967 67.758ZM132.033 67.758C128.667 67.758 126.335 70.266 126.335 73.5C126.335 76.822 128.733 79.242 132.121 79.242C134.299 79.242 136.015 78.252 136.917 76.756L135.949 76.184C135.311 77.35 133.947 78.186 132.143 78.186C129.635 78.186 127.743 76.558 127.479 74.072H137.445C137.445 73.896 137.467 73.72 137.467 73.544C137.467 70.53 135.377 67.758 132.033 67.758ZM132.033 68.814C134.189 68.814 136.081 70.31 136.323 72.994H127.479C127.699 70.552 129.525 68.814 132.033 68.814ZM140.038 79H141.138V62.94H140.038V79ZM149.478 67.758C146.112 67.758 143.78 70.266 143.78 73.5C143.78 76.822 146.178 79.242 149.566 79.242C151.744 79.242 153.46 78.252 154.362 76.756L153.394 76.184C152.756 77.35 151.392 78.186 149.588 78.186C147.08 78.186 145.188 76.558 144.924 74.072H154.89C154.89 73.896 154.912 73.72 154.912 73.544C154.912 70.53 152.822 67.758 149.478 67.758ZM149.478 68.814C151.634 68.814 153.526 70.31 153.768 72.994H144.924C145.144 70.552 146.97 68.814 149.478 68.814ZM157.801 70.882C157.801 69.562 159.011 68.814 160.441 68.814C161.651 68.814 162.795 69.342 163.257 70.486L164.181 69.958C163.587 68.616 162.223 67.758 160.441 67.758C158.197 67.758 156.701 69.144 156.701 70.882C156.701 74.842 163.367 73.126 163.367 76.118C163.367 77.504 162.069 78.186 160.529 78.186C158.879 78.186 157.691 77.438 157.295 76.25L156.349 76.8C156.877 78.208 158.329 79.242 160.529 79.242C162.883 79.242 164.467 77.922 164.467 76.118C164.467 72.092 157.801 73.83 157.801 70.882ZM167.212 70.882C167.212 69.562 168.422 68.814 169.852 68.814C171.062 68.814 172.206 69.342 172.668 70.486L173.592 69.958C172.998 68.616 171.634 67.758 169.852 67.758C167.608 67.758 166.112 69.144 166.112 70.882C166.112 74.842 172.778 73.126 172.778 76.118C172.778 77.504 171.48 78.186 169.94 78.186C168.29 78.186 167.102 77.438 166.706 76.25L165.76 76.8C166.288 78.208 167.74 79.242 169.94 79.242C172.294 79.242 173.878 77.922 173.878 76.118C173.878 72.092 167.212 73.83 167.212 70.882ZM94.9116 88.6V95.552C94.0096 93.858 92.3156 92.758 90.1816 92.758C87.0356 92.758 84.4836 95.244 84.4836 98.5C84.4836 101.756 87.0356 104.242 90.1816 104.242C92.3156 104.242 94.0096 103.142 94.9116 101.448V104H96.0116V88.6H94.9116ZM90.2476 103.186C87.6296 103.186 85.5836 101.118 85.5836 98.5C85.5836 95.882 87.6296 93.814 90.2476 93.814C92.8656 93.814 94.9116 95.882 94.9116 98.5C94.9116 101.118 92.8656 103.186 90.2476 103.186ZM104.339 92.758C100.973 92.758 98.6413 95.266 98.6413 98.5C98.6413 101.822 101.039 104.242 104.427 104.242C106.605 104.242 108.321 103.252 109.223 101.756L108.255 101.184C107.617 102.35 106.253 103.186 104.449 103.186C101.941 103.186 100.049 101.558 99.7853 99.072H109.751C109.751 98.896 109.773 98.72 109.773 98.544C109.773 95.53 107.683 92.758 104.339 92.758ZM104.339 93.814C106.495 93.814 108.387 95.31 108.629 97.994H99.7853C100.005 95.552 101.831 93.814 104.339 93.814ZM112.663 95.882C112.663 94.562 113.873 93.814 115.303 93.814C116.513 93.814 117.657 94.342 118.119 95.486L119.043 94.958C118.449 93.616 117.085 92.758 115.303 92.758C113.059 92.758 111.563 94.144 111.563 95.882C111.563 99.842 118.229 98.126 118.229 101.118C118.229 102.504 116.931 103.186 115.391 103.186C113.741 103.186 112.553 102.438 112.157 101.25L111.211 101.8C111.739 103.208 113.191 104.242 115.391 104.242C117.745 104.242 119.329 102.922 119.329 101.118C119.329 97.092 112.663 98.83 112.663 95.882ZM122.433 90.338C122.917 90.338 123.313 89.942 123.313 89.458C123.313 88.996 122.917 88.6 122.433 88.6C121.949 88.6 121.553 88.996 121.553 89.458C121.553 89.942 121.949 90.338 122.433 90.338ZM121.883 104H122.983V93H121.883V104ZM136.142 93V95.552C135.24 93.858 133.546 92.758 131.412 92.758C128.266 92.758 125.714 95.244 125.714 98.5C125.714 101.756 128.266 104.242 131.412 104.242C133.546 104.242 135.24 103.142 136.142 101.448V103.472C136.142 105.98 134.514 107.586 131.764 107.586C129.344 107.586 128.112 106.618 127.54 105.452L126.572 106.002C127.364 107.608 129.19 108.642 131.764 108.642C134.8 108.642 137.242 106.772 137.242 103.472V93H136.142ZM131.478 103.186C128.86 103.186 126.814 101.118 126.814 98.5C126.814 95.882 128.86 93.814 131.478 93.814C134.096 93.814 136.142 95.882 136.142 98.5C136.142 101.118 134.096 103.186 131.478 103.186ZM145.677 92.758C143.983 92.758 142.575 93.462 141.739 95.09V93H140.639V104H141.739V98.192C141.739 95.222 143.433 93.814 145.589 93.814C147.657 93.814 148.823 95.134 148.823 97.158V104H149.945V97.158C149.945 94.496 148.295 92.758 145.677 92.758ZM168.603 93V95.486C167.679 93.836 165.985 92.758 163.873 92.758C160.749 92.758 158.175 95.244 158.175 98.5C158.175 101.756 160.749 104.242 163.873 104.242C165.985 104.242 167.679 103.164 168.603 101.514V104H169.725V93H168.603ZM163.961 103.186C161.343 103.186 159.297 101.118 159.297 98.5C159.297 95.882 161.343 93.814 163.961 93.814C166.579 93.814 168.603 95.882 168.603 98.5C168.603 101.118 166.579 103.186 163.961 103.186ZM173.85 95.882C173.85 94.562 175.06 93.814 176.49 93.814C177.7 93.814 178.844 94.342 179.306 95.486L180.23 94.958C179.636 93.616 178.272 92.758 176.49 92.758C174.246 92.758 172.75 94.144 172.75 95.882C172.75 99.842 179.416 98.126 179.416 101.118C179.416 102.504 178.118 103.186 176.578 103.186C174.928 103.186 173.74 102.438 173.344 101.25L172.398 101.8C172.926 103.208 174.378 104.242 176.578 104.242C178.932 104.242 180.516 102.922 180.516 101.118C180.516 97.092 173.85 98.83 173.85 95.882ZM68.8131 120.882C68.8131 119.562 70.0231 118.814 71.4531 118.814C72.6631 118.814 73.8071 119.342 74.2691 120.486L75.1931 119.958C74.5991 118.616 73.2351 117.758 71.4531 117.758C69.2091 117.758 67.7131 119.144 67.7131 120.882C67.7131 124.842 74.3791 123.126 74.3791 126.118C74.3791 127.504 73.0811 128.186 71.5411 128.186C69.8911 128.186 68.7031 127.438 68.3071 126.25L67.3611 126.8C67.8891 128.208 69.3411 129.242 71.5411 129.242C73.8951 129.242 75.4791 127.922 75.4791 126.118C75.4791 122.092 68.8131 123.83 68.8131 120.882ZM85.9538 118V123.808C85.9538 126.778 84.2598 128.186 82.1038 128.186C80.0358 128.186 78.8698 126.866 78.8698 124.842V118H77.7478V124.842C77.7478 127.504 79.3978 129.242 82.0158 129.242C83.7098 129.242 85.1178 128.538 85.9538 126.91V129H87.0538V118H85.9538ZM91.1998 120.882C91.1998 119.562 92.4098 118.814 93.8398 118.814C95.0498 118.814 96.1938 119.342 96.6558 120.486L97.5798 119.958C96.9858 118.616 95.6218 117.758 93.8398 117.758C91.5958 117.758 90.0998 119.144 90.0998 120.882C90.0998 124.842 96.7658 123.126 96.7658 126.118C96.7658 127.504 95.4678 128.186 93.9278 128.186C92.2778 128.186 91.0898 127.438 90.6938 126.25L89.7478 126.8C90.2758 128.208 91.7278 129.242 93.9278 129.242C96.2818 129.242 97.8658 127.922 97.8658 126.118C97.8658 122.092 91.1998 123.83 91.1998 120.882ZM105.73 119.078V118H102.452V114.92L101.33 115.25V118H98.9103V119.078H101.33V126.228C101.33 128.736 102.848 129.44 105.73 129V128.01C103.486 128.208 102.452 128.164 102.452 126.228V119.078H105.73ZM117.384 118V120.486C116.46 118.836 114.766 117.758 112.654 117.758C109.53 117.758 106.956 120.244 106.956 123.5C106.956 126.756 109.53 129.242 112.654 129.242C114.766 129.242 116.46 128.164 117.384 126.514V129H118.506V118H117.384ZM112.742 128.186C110.124 128.186 108.078 126.118 108.078 123.5C108.078 120.882 110.124 118.814 112.742 118.814C115.36 118.814 117.384 120.882 117.384 123.5C117.384 126.118 115.36 128.186 112.742 128.186ZM122.433 115.338C122.917 115.338 123.313 114.942 123.313 114.458C123.313 113.996 122.917 113.6 122.433 113.6C121.949 113.6 121.553 113.996 121.553 114.458C121.553 114.942 121.949 115.338 122.433 115.338ZM121.883 129H122.983V118H121.883V129ZM131.412 117.758C129.718 117.758 128.31 118.462 127.474 120.09V118H126.374V129H127.474V123.192C127.474 120.222 129.168 118.814 131.324 118.814C133.392 118.814 134.558 120.134 134.558 122.158V129H135.68V122.158C135.68 119.496 134.03 117.758 131.412 117.758ZM148.472 118V120.486C147.548 118.836 145.854 117.758 143.742 117.758C140.618 117.758 138.044 120.244 138.044 123.5C138.044 126.756 140.618 129.242 143.742 129.242C145.854 129.242 147.548 128.164 148.472 126.514V129H149.594V118H148.472ZM143.83 128.186C141.212 128.186 139.166 126.118 139.166 123.5C139.166 120.882 141.212 118.814 143.83 118.814C146.448 118.814 148.472 120.882 148.472 123.5C148.472 126.118 146.448 128.186 143.83 128.186ZM158.801 117.758C156.667 117.758 154.973 118.858 154.071 120.552V113.6H152.971V129H154.071V126.448C154.973 128.142 156.667 129.242 158.801 129.242C161.947 129.242 164.499 126.756 164.499 123.5C164.499 120.244 161.947 117.758 158.801 117.758ZM158.735 128.186C156.117 128.186 154.071 126.118 154.071 123.5C154.071 120.882 156.117 118.814 158.735 118.814C161.353 118.814 163.399 120.882 163.399 123.5C163.399 126.118 161.353 128.186 158.735 128.186ZM167.701 115.338C168.185 115.338 168.581 114.942 168.581 114.458C168.581 113.996 168.185 113.6 167.701 113.6C167.217 113.6 166.821 113.996 166.821 114.458C166.821 114.942 167.217 115.338 167.701 115.338ZM167.151 129H168.251V118H167.151V129ZM171.641 129H172.741V112.94H171.641V129ZM176.682 115.338C177.166 115.338 177.562 114.942 177.562 114.458C177.562 113.996 177.166 113.6 176.682 113.6C176.198 113.6 175.802 113.996 175.802 114.458C175.802 114.942 176.198 115.338 176.682 115.338ZM176.132 129H177.232V118H176.132V129ZM186.254 119.078V118H182.976V114.92L181.854 115.25V118H179.434V119.078H181.854V126.228C181.854 128.736 183.372 129.44 186.254 129V128.01C184.01 128.208 182.976 128.164 182.976 126.228V119.078H186.254ZM197.16 118L193.332 127.79L188.888 118H187.7L192.76 129.198L192.518 129.792C191.836 131.398 190.714 132.498 189.24 132.366V133.4C191.132 133.554 192.76 132.124 193.596 130.012L198.348 118H197.16Z" fill="black"/>
<path d="M103.48 44H108.376L113.848 27.2H109.648L105.928 39.56L102.208 27.2H98.0078L103.48 44ZM116.503 30.944C117.679 30.944 118.663 29.96 118.663 28.784C118.663 27.608 117.679 26.624 116.503 26.624C115.327 26.624 114.343 27.608 114.343 28.784C114.343 29.96 115.327 30.944 116.503 30.944ZM114.703 44H118.303V32H114.703V44ZM124.228 35.504C124.228 35.072 124.612 34.832 125.236 34.832C126.028 34.832 126.508 35.264 126.844 35.888L129.916 34.232C128.908 32.528 127.18 31.664 125.236 31.664C122.74 31.664 120.532 32.984 120.532 35.6C120.532 39.752 126.436 39.056 126.436 40.376C126.436 40.856 126.004 41.12 125.14 41.12C124.084 41.12 123.412 40.616 123.1 39.704L119.98 41.48C120.916 43.424 122.74 44.336 125.14 44.336C127.732 44.336 130.132 43.16 130.132 40.4C130.132 35.96 124.228 36.872 124.228 35.504ZM133.729 30.944C134.905 30.944 135.889 29.96 135.889 28.784C135.889 27.608 134.905 26.624 133.729 26.624C132.553 26.624 131.569 27.608 131.569 28.784C131.569 29.96 132.553 30.944 133.729 30.944ZM131.929 44H135.529V32H131.929V44ZM143.924 44.336C147.452 44.336 150.284 41.576 150.284 38C150.284 34.424 147.452 31.664 143.924 31.664C140.396 31.664 137.564 34.424 137.564 38C137.564 41.576 140.396 44.336 143.924 44.336ZM143.924 40.832C142.364 40.832 141.164 39.704 141.164 38C141.164 36.296 142.364 35.168 143.924 35.168C145.484 35.168 146.684 36.296 146.684 38C146.684 39.704 145.484 40.832 143.924 40.832ZM159.352 31.664C157.768 31.664 156.568 32.24 155.92 33.128V32H152.32V44H155.92V37.448C155.92 35.744 156.832 34.976 158.152 34.976C159.304 34.976 160.24 35.672 160.24 37.16V44H163.84V36.632C163.84 33.392 161.776 31.664 159.352 31.664Z" fill="black"/>
<defs>
<filter id="filter0_d_228_2228" x="2" y="6" width="260" height="178" filterUnits="userSpaceOnUse" color-interpolation-filters="sRGB">
<feFlood flood-opacity="0" result="BackgroundImageFix"/>
<feColorMatrix in="SourceAlpha" type="matrix" values="0 0 0 0 0 0 0 0 0 0 0 0 0 0 0 0 0 0 127 0" result="hardAlpha"/>
<feOffset dy="4"/>
<feGaussianBlur stdDeviation="2"/>
<feComposite in2="hardAlpha" operator="out"/>
<feColorMatrix type="matrix" values="0 0 0 0 0 0 0 0 0 0 0 0 0 0 0 0 0 0 0.25 0"/>
<feBlend mode="normal" in2="BackgroundImageFix" result="effect1_dropShadow_228_2228"/>
<feBlend mode="normal" in="SourceGraphic" in2="effect1_dropShadow_228_2228" result="shape"/>
</filter>
<filter id="filter1_d_228_2228" x="0" y="0" width="272" height="190" filterUnits="userSpaceOnUse" color-interpolation-filters="sRGB">
<feFlood flood-opacity="0" result="BackgroundImageFix"/>
<feColorMatrix in="SourceAlpha" type="matrix" values="0 0 0 0 0 0 0 0 0 0 0 0 0 0 0 0 0 0 127 0" result="hardAlpha"/>
<feOffset dx="4" dy="4"/>
<feGaussianBlur stdDeviation="5"/>
<feComposite in2="hardAlpha" operator="out"/>
<feColorMatrix type="matrix" values="0 0 0 0 0.607843 0 0 0 0 0.74902 0 0 0 0 0.498039 0 0 0 1 0"/>
<feBlend mode="normal" in2="BackgroundImageFix" result="effect1_dropShadow_228_2228"/>
<feBlend mode="normal" in="SourceGraphic" in2="effect1_dropShadow_228_2228" result="shape"/>
</filter>
</defs>
</svg>
