<svg width="55" height="55" viewBox="0 0 55 55" fill="none" xmlns="http://www.w3.org/2000/svg">
<path d="M12.0317 39.5313C9.87871 39.5308 7.76529 38.9526 5.9119 37.8571C4.05852 36.7615 2.53307 35.1886 1.4947 33.3026C0.456323 31.4166 -0.0569273 29.2865 0.00848508 27.1345C0.0738975 24.9825 0.715576 22.8875 1.86658 21.068C3.01759 19.2485 4.63575 17.7712 6.55226 16.7902C8.46877 15.8092 10.6134 15.3605 12.7624 15.4908C14.9115 15.6211 16.9862 16.3257 18.7701 17.5311C20.554 18.7365 21.9818 20.3985 22.9045 22.3438H48.1254L53.2817 27.5L48.1254 32.6563L44.6879 29.2188L41.2504 32.6563L37.8129 29.2188L34.3754 32.6563L30.9379 29.2188L27.5004 32.6563H22.9045C21.9286 34.7137 20.3888 36.4519 18.4641 37.6689C16.5394 38.8859 14.3089 39.5317 12.0317 39.5313ZM8.5942 30.9375C9.50588 30.9375 10.3802 30.5753 11.0249 29.9307C11.6695 29.286 12.0317 28.4117 12.0317 27.5C12.0317 26.5883 11.6695 25.714 11.0249 25.0693C10.3802 24.4247 9.50588 24.0625 8.5942 24.0625C7.68252 24.0625 6.80817 24.4247 6.16352 25.0693C5.51886 25.714 5.1567 26.5883 5.1567 27.5C5.1567 28.4117 5.51886 29.286 6.16352 29.9307C6.80817 30.5753 7.68252 30.9375 8.5942 30.9375Z" fill="black"/>
</svg>
