<svg width="55" height="55" viewBox="0 0 55 55" fill="none" xmlns="http://www.w3.org/2000/svg">
<path d="M10.3125 48.125C10.3125 48.125 6.875 48.125 6.875 44.6875C6.875 41.25 10.3125 30.9375 27.5 30.9375C44.6875 30.9375 48.125 41.25 48.125 44.6875C48.125 48.125 44.6875 48.125 44.6875 48.125H10.3125ZM27.5 27.5C30.235 27.5 32.8581 26.4135 34.792 24.4795C36.726 22.5456 37.8125 19.9225 37.8125 17.1875C37.8125 14.4525 36.726 11.8294 34.792 9.89546C32.8581 7.96149 30.235 6.875 27.5 6.875C24.765 6.875 22.1419 7.96149 20.208 9.89546C18.274 11.8294 17.1875 14.4525 17.1875 17.1875C17.1875 19.9225 18.274 22.5456 20.208 24.4795C22.1419 26.4135 24.765 27.5 27.5 27.5Z" fill="black"/>
</svg>
