<svg width="39" height="21" viewBox="0 0 39 21" fill="none" xmlns="http://www.w3.org/2000/svg">
<path d="M9.8702 8.014C10.7062 7.288 11.2122 6.276 11.2122 5C11.2122 2.338 9.0342 0.599999 6.3502 0.599999H0.322197V16H6.7902C9.5402 16 11.7622 14.218 11.7622 11.49C11.7622 9.928 11.0142 8.74 9.8702 8.014ZM6.3502 3.9C7.1642 3.9 7.6922 4.472 7.6922 5.264C7.6922 6.056 7.1422 6.628 6.3502 6.628H3.8422V3.9H6.3502ZM6.7902 12.7H3.8422V9.752H6.7902C7.6702 9.752 8.2422 10.368 8.2422 11.226C8.2422 12.084 7.6702 12.7 6.7902 12.7ZM21.6044 5V6.034C20.8784 5.198 19.8004 4.692 18.3264 4.692C15.4444 4.692 13.0684 7.222 13.0684 10.5C13.0684 13.778 15.4444 16.308 18.3264 16.308C19.8004 16.308 20.8784 15.802 21.6044 14.966V16H24.9044V5H21.6044ZM18.9864 13.184C17.4684 13.184 16.3684 12.15 16.3684 10.5C16.3684 8.85 17.4684 7.816 18.9864 7.816C20.5044 7.816 21.6044 8.85 21.6044 10.5C21.6044 12.15 20.5044 13.184 18.9864 13.184ZM35.3995 5V6.122C34.6735 5.22 33.6175 4.692 32.1875 4.692C29.0635 4.692 26.7755 7.244 26.7755 10.28C26.7755 13.316 29.0635 15.868 32.1875 15.868C33.6175 15.868 34.6735 15.34 35.3995 14.438V15.45C35.3995 17.012 34.4535 17.804 32.9135 17.804C31.4615 17.804 30.8235 17.188 30.4055 16.418L27.5895 18.046C28.6015 19.85 30.5155 20.708 32.8035 20.708C35.7295 20.708 38.6115 19.146 38.6115 15.45V5H35.3995ZM32.7375 12.832C31.1755 12.832 30.0755 11.798 30.0755 10.28C30.0755 8.762 31.1755 7.728 32.7375 7.728C34.2995 7.728 35.3995 8.762 35.3995 10.28C35.3995 11.798 34.2995 12.832 32.7375 12.832Z" fill="black"/>
</svg>
