<svg width="94" height="66" viewBox="0 0 94 66" fill="none" xmlns="http://www.w3.org/2000/svg">
<g filter="url(#filter0_d_1936_5713)">
<path d="M7 12C7 9.23858 9.23858 7 12 7H82C84.7614 7 87 9.23858 87 12V54C87 56.7614 84.7614 59 82 59H12C9.23858 59 7 56.7614 7 54V12Z" fill="#749723"/>
<path d="M38.868 32.514C39.704 31.788 40.21 30.776 40.21 29.5C40.21 26.838 38.032 25.1 35.348 25.1H29.32V40.5H35.788C38.538 40.5 40.76 38.718 40.76 35.99C40.76 34.428 40.012 33.24 38.868 32.514ZM35.348 28.4C36.162 28.4 36.69 28.972 36.69 29.764C36.69 30.556 36.14 31.128 35.348 31.128H32.84V28.4H35.348ZM35.788 37.2H32.84V34.252H35.788C36.668 34.252 37.24 34.868 37.24 35.726C37.24 36.584 36.668 37.2 35.788 37.2ZM49.7223 29.5V35.506C49.7223 37.068 48.8863 37.772 47.6763 37.772C46.6203 37.772 45.7623 37.134 45.7623 35.77V29.5H42.4623V36.254C42.4623 39.224 44.3543 40.808 46.5763 40.808C48.0283 40.808 49.1283 40.28 49.7223 39.466V40.5H53.0222V29.5H49.7223ZM62.3724 29.5L60.3044 36.232L57.8624 29.5H54.2324L58.6104 39.994C58.1264 41.336 57.4004 41.82 55.8604 41.82V44.9C58.9404 45.054 60.8984 43.668 62.1304 40.17L65.8924 29.5H62.3724Z" fill="white"/>
<path d="M12 10H82V4H12V10ZM84 12V54H90V12H84ZM82 56H12V62H82V56ZM10 54V12H4V54H10ZM12 56C10.8954 56 10 55.1046 10 54H4C4 58.4183 7.58172 62 12 62V56ZM84 54C84 55.1046 83.1046 56 82 56V62C86.4183 62 90 58.4183 90 54H84ZM82 10C83.1046 10 84 10.8954 84 12H90C90 7.58172 86.4183 4 82 4V10ZM12 4C7.58172 4 4 7.58172 4 12H10C10 10.8954 10.8954 10 12 10V4Z" fill="#749723"/>
</g>
<defs>
<filter id="filter0_d_1936_5713" x="0" y="0" width="94" height="66" filterUnits="userSpaceOnUse" color-interpolation-filters="sRGB">
<feFlood flood-opacity="0" result="BackgroundImageFix"/>
<feColorMatrix in="SourceAlpha" type="matrix" values="0 0 0 0 0 0 0 0 0 0 0 0 0 0 0 0 0 0 127 0" result="hardAlpha"/>
<feOffset/>
<feGaussianBlur stdDeviation="2"/>
<feComposite in2="hardAlpha" operator="out"/>
<feColorMatrix type="matrix" values="0 0 0 0 0 0 0 0 0 0 0 0 0 0 0 0 0 0 0.25 0"/>
<feBlend mode="normal" in2="BackgroundImageFix" result="effect1_dropShadow_1936_5713"/>
<feBlend mode="normal" in="SourceGraphic" in2="effect1_dropShadow_1936_5713" result="shape"/>
</filter>
</defs>
</svg>
