<svg width="94" height="66" viewBox="0 0 94 66" fill="none" xmlns="http://www.w3.org/2000/svg">
<g filter="url(#filter0_d_272_2210)">
<path d="M5 10C5 7.23858 7.23858 5 10 5H80C82.7614 5 85 7.23858 85 10V52C85 54.7614 82.7614 57 80 57H10C7.23858 57 5 54.7614 5 52V10Z" fill="#749723"/>
<path d="M36.868 30.514C37.704 29.788 38.21 28.776 38.21 27.5C38.21 24.838 36.032 23.1 33.348 23.1H27.32V38.5H33.788C36.538 38.5 38.76 36.718 38.76 33.99C38.76 32.428 38.012 31.24 36.868 30.514ZM33.348 26.4C34.162 26.4 34.69 26.972 34.69 27.764C34.69 28.556 34.14 29.128 33.348 29.128H30.84V26.4H33.348ZM33.788 35.2H30.84V32.252H33.788C34.668 32.252 35.24 32.868 35.24 33.726C35.24 34.584 34.668 35.2 33.788 35.2ZM47.7223 27.5V33.506C47.7223 35.068 46.8863 35.772 45.6763 35.772C44.6203 35.772 43.7623 35.134 43.7623 33.77V27.5H40.4623V34.254C40.4623 37.224 42.3543 38.808 44.5763 38.808C46.0283 38.808 47.1283 38.28 47.7223 37.466V38.5H51.0222V27.5H47.7223ZM60.3724 27.5L58.3044 34.232L55.8624 27.5H52.2324L56.6104 37.994C56.1264 39.336 55.4004 39.82 53.8604 39.82V42.9C56.9404 43.054 58.8984 41.668 60.1304 38.17L63.8924 27.5H60.3724Z" fill="white"/>
<path d="M10 8H80V2H10V8ZM82 10V52H88V10H82ZM80 54H10V60H80V54ZM8 52V10H2V52H8ZM10 54C8.89543 54 8 53.1046 8 52H2C2 56.4183 5.58172 60 10 60V54ZM82 52C82 53.1046 81.1046 54 80 54V60C84.4183 60 88 56.4183 88 52H82ZM80 8C81.1046 8 82 8.89543 82 10H88C88 5.58172 84.4183 2 80 2V8ZM10 2C5.58172 2 2 5.58172 2 10H8C8 8.89543 8.89543 8 10 8V2Z" fill="#749723"/>
</g>
<defs>
<filter id="filter0_d_272_2210" x="0" y="0" width="94" height="66" filterUnits="userSpaceOnUse" color-interpolation-filters="sRGB">
<feFlood flood-opacity="0" result="BackgroundImageFix"/>
<feColorMatrix in="SourceAlpha" type="matrix" values="0 0 0 0 0 0 0 0 0 0 0 0 0 0 0 0 0 0 127 0" result="hardAlpha"/>
<feOffset dx="2" dy="2"/>
<feGaussianBlur stdDeviation="2"/>
<feComposite in2="hardAlpha" operator="out"/>
<feColorMatrix type="matrix" values="0 0 0 0 0 0 0 0 0 0 0 0 0 0 0 0 0 0 0.25 0"/>
<feBlend mode="normal" in2="BackgroundImageFix" result="effect1_dropShadow_272_2210"/>
<feBlend mode="normal" in="SourceGraphic" in2="effect1_dropShadow_272_2210" result="shape"/>
</filter>
</defs>
</svg>
