<svg width="87" height="22" viewBox="0 0 87 22" fill="none" xmlns="http://www.w3.org/2000/svg">
<path d="M8.6702 17.308C11.4862 17.308 13.9502 15.922 15.2702 13.744L12.2342 11.984C11.5742 13.172 10.2322 13.876 8.6702 13.876C5.9422 13.876 4.1822 12.05 4.1822 9.3C4.1822 6.55 5.9422 4.724 8.6702 4.724C10.2322 4.724 11.5522 5.428 12.2342 6.616L15.2702 4.856C13.9282 2.678 11.4642 1.292 8.6702 1.292C4.0282 1.292 0.662197 4.768 0.662197 9.3C0.662197 13.832 4.0282 17.308 8.6702 17.308ZM17.0247 17H20.3247V0.94H17.0247V17ZM28.0195 17.308C31.2535 17.308 33.8495 14.778 33.8495 11.5C33.8495 8.222 31.2535 5.692 28.0195 5.692C24.7855 5.692 22.1895 8.222 22.1895 11.5C22.1895 14.778 24.7855 17.308 28.0195 17.308ZM28.0195 14.096C26.5895 14.096 25.4895 13.062 25.4895 11.5C25.4895 9.938 26.5895 8.904 28.0195 8.904C29.4495 8.904 30.5495 9.938 30.5495 11.5C30.5495 13.062 29.4495 14.096 28.0195 14.096ZM41.9473 9.168V6H39.6813V2.92L36.3813 3.91V6H34.6213V9.168H36.3813V13.062C36.3813 16.142 37.6353 17.44 41.9473 17V14.008C40.4953 14.096 39.6813 14.008 39.6813 13.062V9.168H41.9473ZM50.2617 5.692C48.8097 5.692 47.7097 6.22 47.1157 7.034V1.6H43.8157V17H47.1157V10.994C47.1157 9.432 47.9517 8.728 49.1617 8.728C50.2177 8.728 51.0757 9.366 51.0757 10.73V17H54.3757V10.246C54.3757 7.276 52.4837 5.692 50.2617 5.692ZM58.2919 5.032C59.3699 5.032 60.2719 4.13 60.2719 3.052C60.2719 1.974 59.3699 1.072 58.2919 1.072C57.2139 1.072 56.3119 1.974 56.3119 3.052C56.3119 4.13 57.2139 5.032 58.2919 5.032ZM56.6419 17H59.9419V6H56.6419V17ZM68.8027 5.692C67.3507 5.692 66.2507 6.22 65.6567 7.034V6H62.3567V17H65.6567V10.994C65.6567 9.432 66.4927 8.728 67.7027 8.728C68.7587 8.728 69.6167 9.366 69.6167 10.73V17H72.9167V10.246C72.9167 7.276 71.0247 5.692 68.8027 5.692ZM83.2569 6V7.122C82.5309 6.22 81.4749 5.692 80.0449 5.692C76.9209 5.692 74.6329 8.244 74.6329 11.28C74.6329 14.316 76.9209 16.868 80.0449 16.868C81.4749 16.868 82.5309 16.34 83.2569 15.438V16.45C83.2569 18.012 82.3109 18.804 80.7709 18.804C79.3189 18.804 78.6809 18.188 78.2629 17.418L75.4469 19.046C76.4589 20.85 78.3729 21.708 80.6609 21.708C83.5869 21.708 86.4689 20.146 86.4689 16.45V6H83.2569ZM80.5949 13.832C79.0329 13.832 77.9329 12.798 77.9329 11.28C77.9329 9.762 79.0329 8.728 80.5949 8.728C82.1569 8.728 83.2569 9.762 83.2569 11.28C83.2569 12.798 82.1569 13.832 80.5949 13.832Z" fill="black"/>
</svg>
