<svg width="40" height="37" viewBox="0 0 40 37" fill="none" xmlns="http://www.w3.org/2000/svg">
<path d="M19.9968 36.0791C19.7206 36.0783 19.4525 35.986 19.2343 35.8166C12.2843 30.4166 7.49678 25.7666 4.14678 21.1791C-0.128218 15.3166 -1.10322 9.90412 1.24678 5.09162C2.92178 1.65412 7.73428 -1.15838 13.3593 0.479122C16.0412 1.2538 18.3811 2.9151 19.9968 5.19162C21.6124 2.9151 23.9524 1.2538 26.6343 0.479122C32.2468 -1.13338 37.0718 1.65412 38.7468 5.09162C41.0968 9.90412 40.1218 15.3166 35.8468 21.1791C32.4968 25.7666 27.7093 30.4166 20.7593 35.8166C20.5411 35.986 20.273 36.0783 19.9968 36.0791ZM10.1593 2.51662C8.82085 2.46453 7.4935 2.77793 6.31971 3.42318C5.14593 4.06843 4.17003 5.02117 3.49678 6.17912C1.55928 10.1541 2.43428 14.5791 6.17178 19.6916C10.1437 24.8148 14.7948 29.3734 19.9968 33.2416C25.1979 29.3772 29.8489 24.8229 33.8218 19.7041C37.5718 14.5791 38.4343 10.1541 36.4968 6.19162C35.2468 3.69162 31.4968 1.70412 27.3218 2.87912C25.9831 3.27475 24.742 3.94627 23.6785 4.85047C22.615 5.75466 21.7526 6.87151 21.1468 8.12912C21.0526 8.35839 20.8924 8.55448 20.6865 8.69248C20.4806 8.83048 20.2384 8.90416 19.9905 8.90416C19.7427 8.90416 19.5004 8.83048 19.2945 8.69248C19.0887 8.55448 18.9285 8.35839 18.8343 8.12912C18.233 6.86836 17.3721 5.74891 16.3079 4.84415C15.2437 3.93939 14.0004 3.26975 12.6593 2.87912C11.8468 2.64312 11.0054 2.52113 10.1593 2.51662Z" fill="black"/>
</svg>
