<svg width="45" height="45" viewBox="0 0 45 45" fill="none" xmlns="http://www.w3.org/2000/svg">
<path d="M22.5 22.5C27.6777 22.5 31.875 18.3027 31.875 13.125C31.875 7.94733 27.6777 3.75 22.5 3.75C17.3223 3.75 13.125 7.94733 13.125 13.125C13.125 18.3027 17.3223 22.5 22.5 22.5Z" stroke="black" stroke-width="2"/>
<path d="M31.875 26.25H32.535C33.9058 26.2504 35.2292 26.7513 36.2567 27.6587C37.2842 28.566 37.945 29.8173 38.115 31.1775L38.8481 37.035C38.9141 37.5627 38.867 38.0984 38.7101 38.6065C38.5532 39.1146 38.29 39.5835 37.938 39.9821C37.5861 40.3807 37.1533 40.6999 36.6685 40.9185C36.1838 41.1371 35.658 41.2501 35.1262 41.25H9.87374C9.34196 41.2501 8.81623 41.1371 8.33145 40.9185C7.84667 40.6999 7.41393 40.3807 7.06195 39.9821C6.70996 39.5835 6.44678 39.1146 6.28987 38.6065C6.13297 38.0984 6.08593 37.5627 6.15187 37.035L6.88312 31.1775C7.05317 29.8167 7.71452 28.5648 8.7428 27.6574C9.77108 26.75 11.0954 26.2495 12.4669 26.25H13.125" stroke="black" stroke-width="2" stroke-linecap="round" stroke-linejoin="round"/>
</svg>
