<svg width="45" height="45" viewBox="0 0 45 45" fill="none" xmlns="http://www.w3.org/2000/svg">
<path d="M7.45691 18.45C7.53234 17.5103 7.95895 16.6334 8.6518 15.9941C9.34466 15.3547 10.2529 14.9998 11.1957 15H33.8044C34.7472 14.9998 35.6554 15.3547 36.3483 15.9941C37.0411 16.6334 37.4677 17.5103 37.5432 18.45L39.0488 37.2C39.0902 37.716 39.0243 38.235 38.8553 38.7242C38.6864 39.2135 38.4179 39.6625 38.0669 40.043C37.7158 40.4234 37.2898 40.7271 36.8157 40.9348C36.3416 41.1425 35.8296 41.2498 35.3119 41.25H9.68816C9.17052 41.2498 8.65851 41.1425 8.18437 40.9348C7.71024 40.7271 7.28425 40.4234 6.93322 40.043C6.58219 39.6625 6.31373 39.2135 6.14474 38.7242C5.97574 38.235 5.90988 37.716 5.95129 37.2L7.45691 18.45V18.45Z" stroke="black" stroke-width="2" stroke-linecap="round" stroke-linejoin="round"/>
<path d="M30 20.625V11.25C30 9.26088 29.2098 7.35322 27.8033 5.9467C26.3968 4.54018 24.4891 3.75 22.5 3.75C20.5109 3.75 18.6032 4.54018 17.1967 5.9467C15.7902 7.35322 15 9.26088 15 11.25V20.625" stroke="black" stroke-width="2" stroke-linecap="round" stroke-linejoin="round"/>
</svg>
