<svg width="82" height="21" viewBox="0 0 82 21" fill="none" xmlns="http://www.w3.org/2000/svg">
<path d="M8.6702 16.308C13.0922 16.308 16.6782 12.832 16.6782 8.3C16.6782 3.768 13.0922 0.291999 8.6702 0.291999C4.2482 0.291999 0.662197 3.768 0.662197 8.3C0.662197 12.832 4.2482 16.308 8.6702 16.308ZM8.6702 12.876C6.1622 12.876 4.1822 11.05 4.1822 8.3C4.1822 5.55 6.1622 3.724 8.6702 3.724C11.1782 3.724 13.1582 5.55 13.1582 8.3C13.1582 11.05 11.1782 12.876 8.6702 12.876ZM24.9961 8.168V5H22.7301V1.92L19.4301 2.91V5H17.6701V8.168H19.4301V12.062C19.4301 15.142 20.6841 16.44 24.9961 16V13.008C23.5441 13.096 22.7301 13.008 22.7301 12.062V8.168H24.9961ZM33.3105 4.692C31.8585 4.692 30.7585 5.22 30.1645 6.034V0.599999H26.8645V16H30.1645V9.994C30.1645 8.432 31.0005 7.728 32.2105 7.728C33.2665 7.728 34.1245 8.366 34.1245 9.73V16H37.4245V9.246C37.4245 6.276 35.5325 4.692 33.3105 4.692ZM42.6387 11.82H50.4487C50.5367 11.402 50.5807 10.962 50.5807 10.5C50.5807 7.178 48.2047 4.692 44.9927 4.692C41.5167 4.692 39.1407 7.222 39.1407 10.5C39.1407 13.778 41.4727 16.308 45.2347 16.308C47.3247 16.308 48.9527 15.538 50.0307 14.042L47.3907 12.524C46.9507 13.008 46.1807 13.36 45.2787 13.36C44.0687 13.36 43.0567 12.964 42.6387 11.82ZM42.5727 9.356C42.8807 8.234 43.7167 7.618 44.9707 7.618C45.9607 7.618 46.9507 8.08 47.3027 9.356H42.5727ZM55.7524 6.958V5H52.4524V16H55.7524V11.028C55.7524 8.85 57.6884 8.3 59.0524 8.52V4.78C57.6664 4.78 56.1924 5.484 55.7524 6.958ZM63.3967 8.212C63.3967 7.816 63.7487 7.596 64.3207 7.596C65.0467 7.596 65.4867 7.992 65.7947 8.564L68.6107 7.046C67.6867 5.484 66.1027 4.692 64.3207 4.692C62.0327 4.692 60.0087 5.902 60.0087 8.3C60.0087 12.106 65.4207 11.468 65.4207 12.678C65.4207 13.118 65.0247 13.36 64.2327 13.36C63.2647 13.36 62.6487 12.898 62.3627 12.062L59.5027 13.69C60.3607 15.472 62.0327 16.308 64.2327 16.308C66.6087 16.308 68.8087 15.23 68.8087 12.7C68.8087 8.63 63.3967 9.466 63.3967 8.212Z" fill="black"/>
<path d="M78.6378 5V6.122C77.9118 5.22 76.8558 4.692 75.4258 4.692C72.3018 4.692 70.0138 7.244 70.0138 10.28C70.0138 13.316 72.3018 15.868 75.4258 15.868C76.8558 15.868 77.9118 15.34 78.6378 14.438V15.45C78.6378 17.012 77.6918 17.804 76.1518 17.804C74.6998 17.804 74.0618 17.188 73.6438 16.418L70.8278 18.046C71.8398 19.85 73.7538 20.708 76.0418 20.708C78.9678 20.708 81.8498 19.146 81.8498 15.45V5H78.6378ZM75.9758 12.832C74.4138 12.832 73.3138 11.798 73.3138 10.28C73.3138 8.762 74.4138 7.728 75.9758 7.728C77.5378 7.728 78.6378 8.762 78.6378 10.28C78.6378 11.798 77.5378 12.832 75.9758 12.832Z" fill="white"/>
</svg>
