<svg width="193" height="73" viewBox="0 0 193 73" fill="none" xmlns="http://www.w3.org/2000/svg">
<g filter="url(#filter0_d_183_799)">
<path d="M4.0022 9C4.0022 6.23857 6.24077 4 9.0022 4H181.98C184.741 4 186.98 6.23858 186.98 9V61.19C186.98 63.9515 184.741 66.19 181.98 66.19H9.0022C6.24078 66.19 4.0022 63.9515 4.0022 61.19V9Z" fill="white"/>
<path d="M32.7011 42.9032C36.0451 42.9032 38.4211 41.1432 38.4211 38.1732C38.4211 34.9172 35.8031 34.1032 33.4711 33.3992C31.0731 32.6732 30.6991 32.1892 30.6991 31.4852C30.6991 30.8692 31.2491 30.3192 32.3491 30.3192C33.7571 30.3192 34.4831 31.0012 35.0111 32.1012L37.9811 30.3632C36.8591 28.0972 34.8791 26.8872 32.3491 26.8872C29.6871 26.8872 27.1791 28.6032 27.1791 31.5732C27.1791 34.5212 29.4231 35.6212 31.7111 36.2592C34.0211 36.8972 34.9011 37.2712 34.9011 38.2172C34.9011 38.8112 34.4831 39.4712 32.8111 39.4712C31.0731 39.4712 30.1271 38.6132 29.5771 37.3372L26.5411 39.0972C27.3991 41.3632 29.4671 42.9032 32.7011 42.9032ZM43.3405 38.4152H51.1505C51.2385 37.9972 51.2825 37.5572 51.2825 37.0952C51.2825 33.7732 48.9065 31.2872 45.6945 31.2872C42.2185 31.2872 39.8425 33.8172 39.8425 37.0952C39.8425 40.3732 42.1745 42.9032 45.9365 42.9032C48.0265 42.9032 49.6545 42.1332 50.7325 40.6372L48.0925 39.1192C47.6525 39.6032 46.8825 39.9552 45.9805 39.9552C44.7705 39.9552 43.7585 39.5592 43.3405 38.4152ZM43.2745 35.9512C43.5825 34.8292 44.4185 34.2132 45.6725 34.2132C46.6625 34.2132 47.6525 34.6752 48.0045 35.9512H43.2745ZM53.1542 42.5952H56.4542V26.5352H53.1542V42.5952ZM58.8691 42.5952H62.1691V26.5352H58.8691V42.5952ZM77.0139 31.5952L74.9459 38.3272L72.5039 31.5952H68.8739L73.2519 42.0892C72.7679 43.4312 72.0419 43.9152 70.5019 43.9152V46.9952C73.5819 47.1492 75.5399 45.7632 76.7719 42.2652L80.5339 31.5952H77.0139ZM86.6002 42.9032C89.8342 42.9032 92.4302 40.3732 92.4302 37.0952C92.4302 33.8172 89.8342 31.2872 86.6002 31.2872C83.3662 31.2872 80.7702 33.8172 80.7702 37.0952C80.7702 40.3732 83.3662 42.9032 86.6002 42.9032ZM86.6002 39.6912C85.1702 39.6912 84.0702 38.6572 84.0702 37.0952C84.0702 35.5332 85.1702 34.4992 86.6002 34.4992C88.0302 34.4992 89.1302 35.5332 89.1302 37.0952C89.1302 38.6572 88.0302 39.6912 86.6002 39.6912ZM101.403 31.5952V37.6012C101.403 39.1632 100.567 39.8672 99.3568 39.8672C98.3008 39.8672 97.4428 39.2292 97.4428 37.8652V31.5952H94.1428V38.3492C94.1428 41.3192 96.0348 42.9032 98.2568 42.9032C99.7088 42.9032 100.809 42.3752 101.403 41.5612V42.5952H104.703V31.5952H101.403ZM110.423 33.5532V31.5952H107.123V42.5952H110.423V37.6232C110.423 35.4452 112.359 34.8952 113.723 35.1152V31.3752C112.337 31.3752 110.863 32.0792 110.423 33.5532ZM122.416 30.6272C123.494 30.6272 124.396 29.7252 124.396 28.6472C124.396 27.5692 123.494 26.6672 122.416 26.6672C121.338 26.6672 120.436 27.5692 120.436 28.6472C120.436 29.7252 121.338 30.6272 122.416 30.6272ZM120.766 42.5952H124.066V31.5952H120.766V42.5952ZM132.926 34.7632V31.5952H130.66V28.5152L127.36 29.5052V31.5952H125.6V34.7632H127.36V38.6572C127.36 41.7372 128.614 43.0352 132.926 42.5952V39.6032C131.474 39.6912 130.66 39.6032 130.66 38.6572V34.7632H132.926ZM137.528 38.4152H145.338C145.426 37.9972 145.47 37.5572 145.47 37.0952C145.47 33.7732 143.094 31.2872 139.882 31.2872C136.406 31.2872 134.03 33.8172 134.03 37.0952C134.03 40.3732 136.362 42.9032 140.124 42.9032C142.214 42.9032 143.842 42.1332 144.92 40.6372L142.28 39.1192C141.84 39.6032 141.07 39.9552 140.168 39.9552C138.958 39.9552 137.946 39.5592 137.528 38.4152ZM137.462 35.9512C137.77 34.8292 138.606 34.2132 139.86 34.2132C140.85 34.2132 141.84 34.6752 142.192 35.9512H137.462ZM159.662 31.2872C158.1 31.2872 157.088 31.8592 156.472 32.7392C155.856 31.8152 154.888 31.2872 153.59 31.2872C152.116 31.2872 151.148 31.8592 150.642 32.6072V31.5952H147.342V42.5952H150.642V36.3912C150.642 35.0932 151.258 34.3232 152.358 34.3232C153.414 34.3232 153.942 35.0272 153.942 36.1272V42.5952H157.242V36.3912C157.242 35.0932 157.858 34.3232 158.958 34.3232C160.014 34.3232 160.542 35.0272 160.542 36.1272V42.5952H163.842V35.8412C163.842 33.0912 162.192 31.2872 159.662 31.2872Z" fill="#749723"/>
<path d="M9.0022 7H181.98V1H9.0022V7ZM183.98 9V61.19H189.98V9H183.98ZM181.98 63.19H9.0022V69.19H181.98V63.19ZM7.0022 61.19V9H1.0022V61.19H7.0022ZM9.0022 63.19C7.89763 63.19 7.0022 62.2946 7.0022 61.19H1.0022C1.0022 65.6083 4.58393 69.19 9.0022 69.19V63.19ZM183.98 61.19C183.98 62.2946 183.085 63.19 181.98 63.19V69.19C186.398 69.19 189.98 65.6083 189.98 61.19H183.98ZM181.98 7C183.085 7 183.98 7.89543 183.98 9H189.98C189.98 4.58172 186.398 1 181.98 1V7ZM9.0022 1C4.58392 1 1.0022 4.58172 1.0022 9H7.0022C7.0022 7.89543 7.89763 7 9.0022 7V1Z" fill="#749723"/>
</g>
<defs>
<filter id="filter0_d_183_799" x="0.00219727" y="0" width="192.978" height="72.1899" filterUnits="userSpaceOnUse" color-interpolation-filters="sRGB">
<feFlood flood-opacity="0" result="BackgroundImageFix"/>
<feColorMatrix in="SourceAlpha" type="matrix" values="0 0 0 0 0 0 0 0 0 0 0 0 0 0 0 0 0 0 127 0" result="hardAlpha"/>
<feOffset dx="1" dy="1"/>
<feGaussianBlur stdDeviation="1"/>
<feComposite in2="hardAlpha" operator="out"/>
<feColorMatrix type="matrix" values="0 0 0 0 0 0 0 0 0 0 0 0 0 0 0 0 0 0 0.25 0"/>
<feBlend mode="normal" in2="BackgroundImageFix" result="effect1_dropShadow_183_799"/>
<feBlend mode="normal" in="SourceGraphic" in2="effect1_dropShadow_183_799" result="shape"/>
</filter>
</defs>
</svg>
