<svg width="94" height="66" viewBox="0 0 94 66" fill="none" xmlns="http://www.w3.org/2000/svg">
<g filter="url(#filter0_d_1984_5563)">
<rect x="7" y="7" width="80" height="52" rx="5" fill="white"/>
<path d="M34.71 40.808C38.054 40.808 40.43 39.048 40.43 36.078C40.43 32.822 37.812 32.008 35.48 31.304C33.082 30.578 32.708 30.094 32.708 29.39C32.708 28.774 33.258 28.224 34.358 28.224C35.766 28.224 36.492 28.906 37.02 30.006L39.99 28.268C38.868 26.002 36.888 24.792 34.358 24.792C31.696 24.792 29.188 26.508 29.188 29.478C29.188 32.426 31.432 33.526 33.72 34.164C36.03 34.802 36.91 35.176 36.91 36.122C36.91 36.716 36.492 37.376 34.82 37.376C33.082 37.376 32.136 36.518 31.586 35.242L28.55 37.002C29.408 39.268 31.476 40.808 34.71 40.808ZM45.3494 36.32H53.1594C53.2474 35.902 53.2914 35.462 53.2914 35C53.2914 31.678 50.9154 29.192 47.7034 29.192C44.2274 29.192 41.8514 31.722 41.8514 35C41.8514 38.278 44.1834 40.808 47.9454 40.808C50.0354 40.808 51.6634 40.038 52.7414 38.542L50.1014 37.024C49.6614 37.508 48.8914 37.86 47.9894 37.86C46.7794 37.86 45.7674 37.464 45.3494 36.32ZM45.2834 33.856C45.5914 32.734 46.4274 32.118 47.6814 32.118C48.6714 32.118 49.6614 32.58 50.0134 33.856H45.2834ZM55.1631 40.5H58.4631V24.44H55.1631V40.5ZM60.878 40.5H64.178V24.44H60.878V40.5Z" fill="#749723"/>
<rect x="5.5" y="5.5" width="83" height="55" rx="6.5" stroke="#749723" stroke-width="3"/>
</g>
<defs>
<filter id="filter0_d_1984_5563" x="0" y="0" width="94" height="66" filterUnits="userSpaceOnUse" color-interpolation-filters="sRGB">
<feFlood flood-opacity="0" result="BackgroundImageFix"/>
<feColorMatrix in="SourceAlpha" type="matrix" values="0 0 0 0 0 0 0 0 0 0 0 0 0 0 0 0 0 0 127 0" result="hardAlpha"/>
<feOffset/>
<feGaussianBlur stdDeviation="2"/>
<feComposite in2="hardAlpha" operator="out"/>
<feColorMatrix type="matrix" values="0 0 0 0 0 0 0 0 0 0 0 0 0 0 0 0 0 0 0.25 0"/>
<feBlend mode="normal" in2="BackgroundImageFix" result="effect1_dropShadow_1984_5563"/>
<feBlend mode="normal" in="SourceGraphic" in2="effect1_dropShadow_1984_5563" result="shape"/>
</filter>
</defs>
</svg>
