<svg width="94" height="66" viewBox="0 0 94 66" fill="none" xmlns="http://www.w3.org/2000/svg">
<g filter="url(#filter0_d_273_2225)">
<path d="M5 10C5 7.23858 7.23858 5 10 5H80C82.7614 5 85 7.23858 85 10V52C85 54.7614 82.7614 57 80 57H10C7.23858 57 5 54.7614 5 52V10Z" fill="white"/>
<path d="M32.71 38.808C36.054 38.808 38.43 37.048 38.43 34.078C38.43 30.822 35.812 30.008 33.48 29.304C31.082 28.578 30.708 28.094 30.708 27.39C30.708 26.774 31.258 26.224 32.358 26.224C33.766 26.224 34.492 26.906 35.02 28.006L37.99 26.268C36.868 24.002 34.888 22.792 32.358 22.792C29.696 22.792 27.188 24.508 27.188 27.478C27.188 30.426 29.432 31.526 31.72 32.164C34.03 32.802 34.91 33.176 34.91 34.122C34.91 34.716 34.492 35.376 32.82 35.376C31.082 35.376 30.136 34.518 29.586 33.242L26.55 35.002C27.408 37.268 29.476 38.808 32.71 38.808ZM43.3494 34.32H51.1594C51.2474 33.902 51.2914 33.462 51.2914 33C51.2914 29.678 48.9154 27.192 45.7034 27.192C42.2274 27.192 39.8514 29.722 39.8514 33C39.8514 36.278 42.1834 38.808 45.9454 38.808C48.0354 38.808 49.6634 38.038 50.7414 36.542L48.1014 35.024C47.6614 35.508 46.8914 35.86 45.9894 35.86C44.7794 35.86 43.7674 35.464 43.3494 34.32ZM43.2834 31.856C43.5914 30.734 44.4274 30.118 45.6814 30.118C46.6714 30.118 47.6614 30.58 48.0134 31.856H43.2834ZM53.1631 38.5H56.4631V22.44H53.1631V38.5ZM58.878 38.5H62.178V22.44H58.878V38.5Z" fill="#749723"/>
<path d="M10 8H80V2H10V8ZM82 10V52H88V10H82ZM80 54H10V60H80V54ZM8 52V10H2V52H8ZM10 54C8.89543 54 8 53.1046 8 52H2C2 56.4183 5.58172 60 10 60V54ZM82 52C82 53.1046 81.1046 54 80 54V60C84.4183 60 88 56.4183 88 52H82ZM80 8C81.1046 8 82 8.89543 82 10H88C88 5.58172 84.4183 2 80 2V8ZM10 2C5.58172 2 2 5.58172 2 10H8C8 8.89543 8.89543 8 10 8V2Z" fill="#749723"/>
</g>
<defs>
<filter id="filter0_d_273_2225" x="0" y="0" width="94" height="66" filterUnits="userSpaceOnUse" color-interpolation-filters="sRGB">
<feFlood flood-opacity="0" result="BackgroundImageFix"/>
<feColorMatrix in="SourceAlpha" type="matrix" values="0 0 0 0 0 0 0 0 0 0 0 0 0 0 0 0 0 0 127 0" result="hardAlpha"/>
<feOffset dx="2" dy="2"/>
<feGaussianBlur stdDeviation="2"/>
<feComposite in2="hardAlpha" operator="out"/>
<feColorMatrix type="matrix" values="0 0 0 0 0 0 0 0 0 0 0 0 0 0 0 0 0 0 0.25 0"/>
<feBlend mode="normal" in2="BackgroundImageFix" result="effect1_dropShadow_273_2225"/>
<feBlend mode="normal" in="SourceGraphic" in2="effect1_dropShadow_273_2225" result="shape"/>
</filter>
</defs>
</svg>
