<svg width="187" height="67" viewBox="0 0 187 67" fill="none" xmlns="http://www.w3.org/2000/svg">
<g filter="url(#filter0_d_101_428)">
<path d="M1.0022 27C1.0022 12.6406 12.6428 1 27.0022 1H157.98C172.339 1 183.98 12.6406 183.98 27V37.19C183.98 51.5494 172.339 63.19 157.98 63.19H27.0022C12.6428 63.19 1.0022 51.5494 1.0022 37.19V27Z" fill="#FDBD40"/>
<path d="M29.7011 39.903C33.0451 39.903 35.4211 38.143 35.4211 35.173C35.4211 31.917 32.8031 31.103 30.4711 30.399C28.0731 29.673 27.6991 29.189 27.6991 28.485C27.6991 27.869 28.2491 27.319 29.3491 27.319C30.7571 27.319 31.4831 28.001 32.0111 29.101L34.9811 27.363C33.8591 25.097 31.8791 23.887 29.3491 23.887C26.6871 23.887 24.1791 25.603 24.1791 28.573C24.1791 31.521 26.4231 32.621 28.7111 33.259C31.0211 33.897 31.9011 34.271 31.9011 35.217C31.9011 35.811 31.4831 36.471 29.8111 36.471C28.0731 36.471 27.1271 35.613 26.5771 34.337L23.5411 36.097C24.3991 38.363 26.4671 39.903 29.7011 39.903ZM40.3405 35.415H48.1505C48.2385 34.997 48.2825 34.557 48.2825 34.095C48.2825 30.773 45.9065 28.287 42.6945 28.287C39.2185 28.287 36.8425 30.817 36.8425 34.095C36.8425 37.373 39.1745 39.903 42.9365 39.903C45.0265 39.903 46.6545 39.133 47.7325 37.637L45.0925 36.119C44.6525 36.603 43.8825 36.955 42.9805 36.955C41.7705 36.955 40.7585 36.559 40.3405 35.415ZM40.2745 32.951C40.5825 31.829 41.4185 31.213 42.6725 31.213C43.6625 31.213 44.6525 31.675 45.0045 32.951H40.2745ZM50.1542 39.595H53.4542V23.535H50.1542V39.595ZM55.8691 39.595H59.1691V23.535H55.8691V39.595ZM74.0139 28.595L71.9459 35.327L69.5039 28.595H65.8739L70.2519 39.089C69.7679 40.431 69.0419 40.915 67.5019 40.915V43.995C70.5819 44.149 72.5399 42.763 73.7719 39.265L77.5339 28.595H74.0139ZM83.6002 39.903C86.8342 39.903 89.4302 37.373 89.4302 34.095C89.4302 30.817 86.8342 28.287 83.6002 28.287C80.3662 28.287 77.7702 30.817 77.7702 34.095C77.7702 37.373 80.3662 39.903 83.6002 39.903ZM83.6002 36.691C82.1702 36.691 81.0702 35.657 81.0702 34.095C81.0702 32.533 82.1702 31.499 83.6002 31.499C85.0302 31.499 86.1302 32.533 86.1302 34.095C86.1302 35.657 85.0302 36.691 83.6002 36.691ZM98.4028 28.595V34.601C98.4028 36.163 97.5668 36.867 96.3568 36.867C95.3008 36.867 94.4428 36.229 94.4428 34.865V28.595H91.1428V35.349C91.1428 38.319 93.0348 39.903 95.2568 39.903C96.7088 39.903 97.8088 39.375 98.4028 38.561V39.595H101.703V28.595H98.4028ZM107.423 30.553V28.595H104.123V39.595H107.423V34.623C107.423 32.445 109.359 31.895 110.723 32.115V28.375C109.337 28.375 107.863 29.079 107.423 30.553ZM119.416 27.627C120.494 27.627 121.396 26.725 121.396 25.647C121.396 24.569 120.494 23.667 119.416 23.667C118.338 23.667 117.436 24.569 117.436 25.647C117.436 26.725 118.338 27.627 119.416 27.627ZM117.766 39.595H121.066V28.595H117.766V39.595ZM129.926 31.763V28.595H127.66V25.515L124.36 26.505V28.595H122.6V31.763H124.36V35.657C124.36 38.737 125.614 40.035 129.926 39.595V36.603C128.474 36.691 127.66 36.603 127.66 35.657V31.763H129.926ZM134.528 35.415H142.338C142.426 34.997 142.47 34.557 142.47 34.095C142.47 30.773 140.094 28.287 136.882 28.287C133.406 28.287 131.03 30.817 131.03 34.095C131.03 37.373 133.362 39.903 137.124 39.903C139.214 39.903 140.842 39.133 141.92 37.637L139.28 36.119C138.84 36.603 138.07 36.955 137.168 36.955C135.958 36.955 134.946 36.559 134.528 35.415ZM134.462 32.951C134.77 31.829 135.606 31.213 136.86 31.213C137.85 31.213 138.84 31.675 139.192 32.951H134.462ZM156.662 28.287C155.1 28.287 154.088 28.859 153.472 29.739C152.856 28.815 151.888 28.287 150.59 28.287C149.116 28.287 148.148 28.859 147.642 29.607V28.595H144.342V39.595H147.642V33.391C147.642 32.093 148.258 31.323 149.358 31.323C150.414 31.323 150.942 32.027 150.942 33.127V39.595H154.242V33.391C154.242 32.093 154.858 31.323 155.958 31.323C157.014 31.323 157.542 32.027 157.542 33.127V39.595H160.842V32.841C160.842 30.091 159.192 28.287 156.662 28.287Z" fill="black"/>
</g>
<defs>
<filter id="filter0_d_101_428" x="0.00219727" y="0" width="186.978" height="66.19" filterUnits="userSpaceOnUse" color-interpolation-filters="sRGB">
<feFlood flood-opacity="0" result="BackgroundImageFix"/>
<feColorMatrix in="SourceAlpha" type="matrix" values="0 0 0 0 0 0 0 0 0 0 0 0 0 0 0 0 0 0 127 0" result="hardAlpha"/>
<feOffset dx="1" dy="1"/>
<feGaussianBlur stdDeviation="1"/>
<feComposite in2="hardAlpha" operator="out"/>
<feColorMatrix type="matrix" values="0 0 0 0 0 0 0 0 0 0 0 0 0 0 0 0 0 0 0.25 0"/>
<feBlend mode="normal" in2="BackgroundImageFix" result="effect1_dropShadow_101_428"/>
<feBlend mode="normal" in="SourceGraphic" in2="effect1_dropShadow_101_428" result="shape"/>
</filter>
</defs>
</svg>
