<svg width="45" height="45" viewBox="0 0 45 45" fill="none" xmlns="http://www.w3.org/2000/svg">
<path d="M7.45685 18.45C7.53227 17.5103 7.95889 16.6334 8.65174 15.9941C9.34459 15.3547 10.2528 14.9998 11.1956 15H33.8044C34.7471 14.9998 35.6554 15.3547 36.3482 15.9941C37.0411 16.6334 37.4677 17.5103 37.5431 18.45L39.0487 37.2C39.0901 37.716 39.0243 38.235 38.8553 38.7242C38.6863 39.2135 38.4178 39.6625 38.0668 40.043C37.7158 40.4234 37.2898 40.7271 36.8156 40.9348C36.3415 41.1425 35.8295 41.2498 35.3119 41.25H9.6881C9.17046 41.2498 8.65845 41.1425 8.18431 40.9348C7.71018 40.7271 7.28419 40.4234 6.93316 40.043C6.58213 39.6625 6.31367 39.2135 6.14467 38.7242C5.97568 38.235 5.90982 37.716 5.95123 37.2L7.45685 18.45V18.45Z" stroke="black" stroke-width="2" stroke-linecap="round" stroke-linejoin="round"/>
<path d="M30 20.625V11.25C30 9.26088 29.2098 7.35322 27.8033 5.9467C26.3968 4.54018 24.4891 3.75 22.5 3.75C20.5109 3.75 18.6032 4.54018 17.1967 5.9467C15.7902 7.35322 15 9.26088 15 11.25V20.625" stroke="black" stroke-width="2" stroke-linecap="round" stroke-linejoin="round"/>
</svg>
