<svg width="400" height="62" viewBox="0 0 400 62" fill="none" xmlns="http://www.w3.org/2000/svg">
<g filter="url(#filter0_d_1969_6625)">
<rect x="5" y="5" width="390" height="52" rx="5" fill="white"/>
<rect x="3.5" y="3.5" width="393" height="55" rx="6.5" stroke="#749723" stroke-width="3"/>
</g>
<path d="M120.67 26.988V23.6H111.32V39H114.84V33.346H120.56V29.958H114.84V26.988H120.67ZM122.75 23.6V39H126.27V23.6H122.75ZM137.496 23.6V31.96L131.556 23.6H128.916V39H132.436V30.64L138.376 39H141.016V23.6H137.496ZM149.814 23.6H143.654V39H149.814C154.06 39 157.294 35.656 157.294 31.3C157.294 26.944 154.06 23.6 149.814 23.6ZM149.814 35.612H147.174V26.988H149.814C152.234 26.988 153.906 28.66 153.906 31.3C153.906 33.94 152.234 35.612 149.814 35.612ZM180.173 23.6H176.653L172.473 30.442L168.293 23.6H164.773V39H168.293V30.046L172.275 36.58H172.671L176.653 30.046V39H180.173V23.6ZM190.168 39.308C194.59 39.308 198.176 35.832 198.176 31.3C198.176 26.768 194.59 23.292 190.168 23.292C185.746 23.292 182.16 26.768 182.16 31.3C182.16 35.832 185.746 39.308 190.168 39.308ZM190.168 35.876C187.66 35.876 185.68 34.05 185.68 31.3C185.68 28.55 187.66 26.724 190.168 26.724C192.676 26.724 194.656 28.55 194.656 31.3C194.656 34.05 192.676 35.876 190.168 35.876ZM208.254 39H212.038L208.76 33.346C210.454 32.488 211.598 30.772 211.598 28.88C211.598 25.954 209.244 23.6 206.318 23.6H200.158V39H203.678V33.94H205.35L208.254 39ZM203.678 26.9H206.318C207.286 26.9 208.078 27.758 208.078 28.88C208.078 30.002 207.286 30.86 206.318 30.86H203.678V26.9ZM217.213 35.612V32.884H222.713V29.54H217.213V26.988H223.263V23.6H213.693V39H223.373V35.612H217.213ZM230.859 23.6V39H234.379V23.6H230.859ZM247.365 23.6H235.925V26.988H239.885V39H243.405V26.988H247.365V23.6ZM252.426 35.612V32.884H257.926V29.54H252.426V26.988H258.476V23.6H248.906V39H258.586V35.612H252.426ZM275.972 23.6H272.452L268.272 30.442L264.092 23.6H260.572V39H264.092V30.046L268.074 36.58H268.47L272.452 30.046V39H275.972V23.6ZM283.794 39.308C287.138 39.308 289.514 37.548 289.514 34.578C289.514 31.322 286.896 30.508 284.564 29.804C282.166 29.078 281.792 28.594 281.792 27.89C281.792 27.274 282.342 26.724 283.442 26.724C284.85 26.724 285.576 27.406 286.104 28.506L289.074 26.768C287.952 24.502 285.972 23.292 283.442 23.292C280.78 23.292 278.272 25.008 278.272 27.978C278.272 30.926 280.516 32.026 282.804 32.664C285.114 33.302 285.994 33.676 285.994 34.622C285.994 35.216 285.576 35.876 283.904 35.876C282.166 35.876 281.22 35.018 280.67 33.742L277.634 35.502C278.492 37.768 280.56 39.308 283.794 39.308Z" fill="#749723"/>
<defs>
<filter id="filter0_d_1969_6625" x="0" y="0" width="400" height="62" filterUnits="userSpaceOnUse" color-interpolation-filters="sRGB">
<feFlood flood-opacity="0" result="BackgroundImageFix"/>
<feColorMatrix in="SourceAlpha" type="matrix" values="0 0 0 0 0 0 0 0 0 0 0 0 0 0 0 0 0 0 127 0" result="hardAlpha"/>
<feOffset/>
<feGaussianBlur stdDeviation="1"/>
<feComposite in2="hardAlpha" operator="out"/>
<feColorMatrix type="matrix" values="0 0 0 0 0 0 0 0 0 0 0 0 0 0 0 0 0 0 0.2 0"/>
<feBlend mode="normal" in2="BackgroundImageFix" result="effect1_dropShadow_1969_6625"/>
<feBlend mode="normal" in="SourceGraphic" in2="effect1_dropShadow_1969_6625" result="shape"/>
</filter>
</defs>
</svg>
