<svg width="50" height="50" viewBox="0 0 50 50" fill="none" xmlns="http://www.w3.org/2000/svg">
<path d="M42.1875 9.375H32.8125V7.03125C32.8125 5.99525 32.4009 5.00168 31.6684 4.26911C30.9358 3.53655 29.9423 3.125 28.9062 3.125H21.0938C20.0577 3.125 19.0642 3.53655 18.3316 4.26911C17.5991 5.00168 17.1875 5.99525 17.1875 7.03125V9.375H7.8125C7.3981 9.375 7.00067 9.53962 6.70765 9.83265C6.41462 10.1257 6.25 10.5231 6.25 10.9375C6.25 11.3519 6.41462 11.7493 6.70765 12.0424C7.00067 12.3354 7.3981 12.5 7.8125 12.5H9.47266L11.3281 42.2773C11.4668 44.8994 13.4766 46.875 16.0156 46.875H33.9844C36.5361 46.875 38.5059 44.9434 38.6719 42.2852L40.5273 12.5H42.1875C42.6019 12.5 42.9993 12.3354 43.2924 12.0424C43.5854 11.7493 43.75 11.3519 43.75 10.9375C43.75 10.5231 43.5854 10.1257 43.2924 9.83265C42.9993 9.53962 42.6019 9.375 42.1875 9.375ZM18.8057 40.625H18.75C18.3451 40.6253 17.9558 40.4683 17.6644 40.1872C17.3729 39.9061 17.2019 39.5228 17.1875 39.1182L16.4062 17.2432C16.3915 16.8288 16.5419 16.4255 16.8245 16.122C17.1071 15.8185 17.4987 15.6398 17.9131 15.625C18.3275 15.6102 18.7308 15.7607 19.0342 16.0433C19.3377 16.3259 19.5165 16.7174 19.5312 17.1318L20.3125 39.0068C20.3199 39.2121 20.2869 39.4167 20.2151 39.6092C20.1434 39.8016 20.0345 39.978 19.8945 40.1283C19.7546 40.2786 19.5864 40.3998 19.3995 40.485C19.2127 40.5703 19.0109 40.6178 18.8057 40.625ZM26.5625 39.0625C26.5625 39.4769 26.3979 39.8743 26.1049 40.1674C25.8118 40.4604 25.4144 40.625 25 40.625C24.5856 40.625 24.1882 40.4604 23.8951 40.1674C23.6021 39.8743 23.4375 39.4769 23.4375 39.0625V17.1875C23.4375 16.7731 23.6021 16.3757 23.8951 16.0826C24.1882 15.7896 24.5856 15.625 25 15.625C25.4144 15.625 25.8118 15.7896 26.1049 16.0826C26.3979 16.3757 26.5625 16.7731 26.5625 17.1875V39.0625ZM29.6875 9.375H20.3125V7.03125C20.3113 6.92833 20.3307 6.82621 20.3696 6.73089C20.4084 6.63557 20.4659 6.54898 20.5387 6.4762C20.6115 6.40342 20.6981 6.34591 20.7934 6.30707C20.8887 6.26823 20.9908 6.24882 21.0938 6.25H28.9062C29.0092 6.24882 29.1113 6.26823 29.2066 6.30707C29.3019 6.34591 29.3885 6.40342 29.4613 6.4762C29.5341 6.54898 29.5916 6.63557 29.6304 6.73089C29.6693 6.82621 29.6887 6.92833 29.6875 7.03125V9.375ZM32.8125 39.1182C32.7981 39.5228 32.6271 39.9061 32.3356 40.1872C32.0442 40.4683 31.6549 40.6253 31.25 40.625H31.1934C30.9882 40.6177 30.7865 40.57 30.5998 40.4847C30.4131 40.3995 30.245 40.2782 30.1051 40.1279C29.9653 39.9777 29.8564 39.8013 29.7848 39.6089C29.7131 39.4166 29.6801 39.212 29.6875 39.0068L30.4688 17.1318C30.4761 16.9266 30.5237 16.7249 30.609 16.5381C30.6943 16.3514 30.8155 16.1832 30.9658 16.0433C31.116 15.9034 31.2924 15.7944 31.4847 15.7226C31.6771 15.6509 31.8817 15.6177 32.0869 15.625C32.2921 15.6323 32.4938 15.68 32.6806 15.7652C32.8674 15.8505 33.0355 15.9717 33.1755 16.122C33.3154 16.2723 33.4243 16.4486 33.4961 16.641C33.5679 16.8334 33.6011 17.038 33.5938 17.2432L32.8125 39.1182Z" fill="#9BBF7F"/>
</svg>
